<ttFont>
    <TTGlyph name="A" xMin="-41" yMin="0" xMax="568" yMax="710">
      <contour>
        <pt x="400" y="710" on="1"/>
        <pt x="430" y="710" on="1"/>
        <pt x="568" y="0" on="1"/>
        <pt x="531" y="0" on="1"/>
        <pt x="484" y="245" on="1"/>
        <pt x="148" y="245" on="1"/>
        <pt x="-3" y="0" on="1"/>
        <pt x="-41" y="0" on="1"/>
      </contour>
      <contour>
        <pt x="480" y="275" on="1"/>
        <pt x="406" y="666" on="1"/>
        <pt x="164" y="275" on="1"/>
      </contour>
    </TTGlyph>
    <TTGlyph name="A.sc" xMin="-34" yMin="0" xMax="471" yMax="542">
      <contour>
        <pt x="321" y="542" on="1"/>
        <pt x="348" y="542" on="1"/>
        <pt x="471" y="0" on="1"/>
        <pt x="437" y="0" on="1"/>
        <pt x="395" y="183" on="1"/>
        <pt x="121" y="183" on="1"/>
        <pt x="1" y="0" on="1"/>
        <pt x="-34" y="0" on="1"/>
      </contour>
      <contour>
        <pt x="391" y="212" on="1"/>
        <pt x="325" y="500" on="1"/>
        <pt x="136" y="212" on="1"/>
      </contour>
    </TTGlyph>
    <TTGlyph name="AE" xMin="-83" yMin="0" xMax="954" yMax="710">
      <contour>
        <pt x="509" y="710" on="1"/>
        <pt x="954" y="710" on="1"/>
        <pt x="947" y="678" on="1"/>
        <pt x="545" y="678" on="1"/>
        <pt x="482" y="379" on="1"/>
        <pt x="832" y="379" on="1"/>
        <pt x="825" y="347" on="1"/>
        <pt x="475" y="347" on="1"/>
        <pt x="408" y="32" on="1"/>
        <pt x="818" y="32" on="1"/>
        <pt x="811" y="0" on="1"/>
        <pt x="367" y="0" on="1"/>
        <pt x="419" y="245" on="1"/>
        <pt x="159" y="245" on="1"/>
        <pt x="-43" y="0" on="1"/>
        <pt x="-83" y="0" on="1"/>
      </contour>
      <contour>
        <pt x="425" y="277" on="1"/>
        <pt x="506" y="663" on="1"/>
        <pt x="184" y="277" on="1"/>
      </contour>
    </TTGlyph>
    <TTGlyph name="AEacute" xMin="-83" yMin="0" xMax="954" yMax="918">
      <contour>
        <pt x="544" y="826" on="1"/>
        <pt x="523" y="839" on="1"/>
        <pt x="599" y="918" on="1"/>
        <pt x="643" y="918" on="1"/>
      </contour>
      <contour>
        <pt x="509" y="710" on="1"/>
        <pt x="954" y="710" on="1"/>
        <pt x="947" y="678" on="1"/>
        <pt x="545" y="678" on="1"/>
        <pt x="482" y="379" on="1"/>
        <pt x="832" y="379" on="1"/>
        <pt x="825" y="347" on="1"/>
        <pt x="475" y="347" on="1"/>
        <pt x="408" y="32" on="1"/>
        <pt x="818" y="32" on="1"/>
        <pt x="811" y="0" on="1"/>
        <pt x="367" y="0" on="1"/>
        <pt x="419" y="245" on="1"/>
        <pt x="159" y="245" on="1"/>
        <pt x="-43" y="0" on="1"/>
        <pt x="-83" y="0" on="1"/>
      </contour>
      <contour>
        <pt x="425" y="277" on="1"/>
        <pt x="506" y="663" on="1"/>
        <pt x="184" y="277" on="1"/>
      </contour>
    </TTGlyph>
    <TTGlyph name="Aacute" xMin="-41" yMin="0" xMax="568" yMax="918">
      <contour>
        <pt x="400" y="710" on="1"/>
        <pt x="430" y="710" on="1"/>
        <pt x="568" y="0" on="1"/>
        <pt x="531" y="0" on="1"/>
        <pt x="484" y="245" on="1"/>
        <pt x="148" y="245" on="1"/>
        <pt x="-3" y="0" on="1"/>
        <pt x="-41" y="0" on="1"/>
      </contour>
      <contour>
        <pt x="480" y="275" on="1"/>
        <pt x="406" y="666" on="1"/>
        <pt x="164" y="275" on="1"/>
      </contour>
      <contour>
        <pt x="429" y="826" on="1"/>
        <pt x="408" y="839" on="1"/>
        <pt x="484" y="918" on="1"/>
        <pt x="528" y="918" on="1"/>
      </contour>
    </TTGlyph>
    <TTGlyph name="Abreve" xMin="-41" yMin="0" xMax="568" yMax="918">
      <contour>
        <pt x="400" y="710" on="1"/>
        <pt x="430" y="710" on="1"/>
        <pt x="568" y="0" on="1"/>
        <pt x="531" y="0" on="1"/>
        <pt x="484" y="245" on="1"/>
        <pt x="148" y="245" on="1"/>
        <pt x="-3" y="0" on="1"/>
        <pt x="-41" y="0" on="1"/>
      </contour>
      <contour>
        <pt x="480" y="275" on="1"/>
        <pt x="406" y="666" on="1"/>
        <pt x="164" y="275" on="1"/>
      </contour>
      <contour>
        <pt x="438" y="856" on="1"/>
        <pt x="458" y="856" on="0"/>
        <pt x="497" y="892" on="0"/>
        <pt x="505" y="918" on="1"/>
        <pt x="529" y="918" on="1"/>
        <pt x="525" y="901" on="0"/>
        <pt x="506" y="870" on="0"/>
        <pt x="480" y="847" on="0"/>
        <pt x="449" y="834" on="0"/>
        <pt x="434" y="834" on="1"/>
        <pt x="406" y="834" on="0"/>
        <pt x="371" y="872" on="0"/>
        <pt x="371" y="901" on="1"/>
        <pt x="371" y="906" on="0"/>
        <pt x="372" y="913" on="0"/>
        <pt x="373" y="918" on="1"/>
        <pt x="399" y="918" on="1"/>
        <pt x="397" y="910" on="0"/>
        <pt x="397" y="906" on="1"/>
        <pt x="397" y="886" on="0"/>
        <pt x="420" y="856" on="0"/>
      </contour>
    </TTGlyph>
    <TTGlyph name="Acircumflex" xMin="-41" yMin="0" xMax="568" yMax="918">
      <contour>
        <pt x="400" y="710" on="1"/>
        <pt x="430" y="710" on="1"/>
        <pt x="568" y="0" on="1"/>
        <pt x="531" y="0" on="1"/>
        <pt x="484" y="245" on="1"/>
        <pt x="148" y="245" on="1"/>
        <pt x="-3" y="0" on="1"/>
        <pt x="-41" y="0" on="1"/>
      </contour>
      <contour>
        <pt x="480" y="275" on="1"/>
        <pt x="406" y="666" on="1"/>
        <pt x="164" y="275" on="1"/>
      </contour>
      <contour>
        <pt x="339" y="841" on="1"/>
        <pt x="445" y="918" on="1"/>
        <pt x="471" y="918" on="1"/>
        <pt x="545" y="841" on="1"/>
        <pt x="520" y="826" on="1"/>
        <pt x="452" y="889" on="1"/>
        <pt x="358" y="826" on="1"/>
      </contour>
    </TTGlyph>
    <TTGlyph name="Adblgrave" xMin="-41" yMin="0" xMax="568" yMax="918">
      <contour>
        <pt x="400" y="710" on="1"/>
        <pt x="430" y="710" on="1"/>
        <pt x="568" y="0" on="1"/>
        <pt x="531" y="0" on="1"/>
        <pt x="484" y="245" on="1"/>
        <pt x="148" y="245" on="1"/>
        <pt x="-3" y="0" on="1"/>
        <pt x="-41" y="0" on="1"/>
      </contour>
      <contour>
        <pt x="480" y="275" on="1"/>
        <pt x="406" y="666" on="1"/>
        <pt x="164" y="275" on="1"/>
      </contour>
      <contour>
        <pt x="442" y="918" on="1"/>
        <pt x="483" y="918" on="1"/>
        <pt x="526" y="839" on="1"/>
        <pt x="500" y="826" on="1"/>
      </contour>
      <contour>
        <pt x="339" y="918" on="1"/>
        <pt x="380" y="918" on="1"/>
        <pt x="422" y="839" on="1"/>
        <pt x="398" y="826" on="1"/>
      </contour>
    </TTGlyph>
    <TTGlyph name="Adieresis" xMin="-41" yMin="0" xMax="568" yMax="917">
      <contour>
        <pt x="400" y="710" on="1"/>
        <pt x="430" y="710" on="1"/>
        <pt x="568" y="0" on="1"/>
        <pt x="531" y="0" on="1"/>
        <pt x="484" y="245" on="1"/>
        <pt x="148" y="245" on="1"/>
        <pt x="-3" y="0" on="1"/>
        <pt x="-41" y="0" on="1"/>
      </contour>
      <contour>
        <pt x="480" y="275" on="1"/>
        <pt x="406" y="666" on="1"/>
        <pt x="164" y="275" on="1"/>
      </contour>
      <contour>
        <pt x="361" y="835" on="1"/>
        <pt x="378" y="917" on="1"/>
        <pt x="409" y="917" on="1"/>
        <pt x="392" y="835" on="1"/>
      </contour>
      <contour>
        <pt x="481" y="835" on="1"/>
        <pt x="498" y="917" on="1"/>
        <pt x="529" y="917" on="1"/>
        <pt x="512" y="835" on="1"/>
      </contour>
    </TTGlyph>
    <TTGlyph name="Agrave" xMin="-41" yMin="0" xMax="568" yMax="918">
      <contour>
        <pt x="400" y="710" on="1"/>
        <pt x="430" y="710" on="1"/>
        <pt x="568" y="0" on="1"/>
        <pt x="531" y="0" on="1"/>
        <pt x="484" y="245" on="1"/>
        <pt x="148" y="245" on="1"/>
        <pt x="-3" y="0" on="1"/>
        <pt x="-41" y="0" on="1"/>
      </contour>
      <contour>
        <pt x="480" y="275" on="1"/>
        <pt x="406" y="666" on="1"/>
        <pt x="164" y="275" on="1"/>
      </contour>
      <contour>
        <pt x="376" y="918" on="1"/>
        <pt x="420" y="918" on="1"/>
        <pt x="463" y="839" on="1"/>
        <pt x="436" y="826" on="1"/>
      </contour>
    </TTGlyph>
    <TTGlyph name="Ainvertedbreve" xMin="-41" yMin="0" xMax="568" yMax="918">
      <contour>
        <pt x="400" y="710" on="1"/>
        <pt x="430" y="710" on="1"/>
        <pt x="568" y="0" on="1"/>
        <pt x="531" y="0" on="1"/>
        <pt x="484" y="245" on="1"/>
        <pt x="148" y="245" on="1"/>
        <pt x="-3" y="0" on="1"/>
        <pt x="-41" y="0" on="1"/>
      </contour>
      <contour>
        <pt x="480" y="275" on="1"/>
        <pt x="406" y="666" on="1"/>
        <pt x="164" y="275" on="1"/>
      </contour>
      <contour>
        <pt x="368" y="834" on="1"/>
        <pt x="371" y="850" on="0"/>
        <pt x="389" y="881" on="0"/>
        <pt x="414" y="904" on="0"/>
        <pt x="445" y="918" on="0"/>
        <pt x="463" y="918" on="1"/>
        <pt x="494" y="918" on="0"/>
        <pt x="525" y="877" on="0"/>
        <pt x="525" y="851" on="1"/>
        <pt x="525" y="846" on="0"/>
        <pt x="525" y="839" on="0"/>
        <pt x="524" y="834" on="1"/>
        <pt x="499" y="834" on="1"/>
        <pt x="501" y="844" on="0"/>
        <pt x="501" y="849" on="1"/>
        <pt x="501" y="896" on="0"/>
        <pt x="460" y="896" on="1"/>
        <pt x="434" y="896" on="0"/>
        <pt x="398" y="858" on="0"/>
        <pt x="393" y="834" on="1"/>
      </contour>
    </TTGlyph>
    <TTGlyph name="Amacron" xMin="-41" yMin="0" xMax="585" yMax="895">
      <contour>
        <pt x="400" y="710" on="1"/>
        <pt x="430" y="710" on="1"/>
        <pt x="568" y="0" on="1"/>
        <pt x="531" y="0" on="1"/>
        <pt x="484" y="245" on="1"/>
        <pt x="148" y="245" on="1"/>
        <pt x="-3" y="0" on="1"/>
        <pt x="-41" y="0" on="1"/>
      </contour>
      <contour>
        <pt x="480" y="275" on="1"/>
        <pt x="406" y="666" on="1"/>
        <pt x="164" y="275" on="1"/>
      </contour>
      <contour>
        <pt x="311" y="867" on="1"/>
        <pt x="316" y="895" on="1"/>
        <pt x="585" y="895" on="1"/>
        <pt x="579" y="867" on="1"/>
      </contour>
    </TTGlyph>
    <TTGlyph name="Aogonek" xMin="-41" yMin="-164" xMax="568" yMax="710">
      <contour>
        <pt x="486" y="-164" on="1"/>
        <pt x="464" y="-158" on="0"/>
        <pt x="442" y="-130" on="0"/>
        <pt x="442" y="-111" on="1"/>
        <pt x="442" y="-84" on="0"/>
        <pt x="482" y="-33" on="0"/>
        <pt x="531" y="0" on="1"/>
        <pt x="484" y="245" on="1"/>
        <pt x="148" y="245" on="1"/>
        <pt x="-3" y="0" on="1"/>
        <pt x="-41" y="0" on="1"/>
        <pt x="400" y="710" on="1"/>
        <pt x="430" y="710" on="1"/>
        <pt x="568" y="0" on="1"/>
        <pt x="539" y="-18" on="0"/>
        <pt x="501" y="-45" on="0"/>
        <pt x="478" y="-69" on="0"/>
        <pt x="469" y="-92" on="0"/>
        <pt x="469" y="-104" on="1"/>
        <pt x="469" y="-134" on="0"/>
        <pt x="505" y="-141" on="1"/>
      </contour>
      <contour>
        <pt x="480" y="275" on="1"/>
        <pt x="406" y="666" on="1"/>
        <pt x="164" y="275" on="1"/>
      </contour>
    </TTGlyph>
    <TTGlyph name="Aring" xMin="-41" yMin="0" xMax="568" yMax="918">
      <contour>
        <pt x="400" y="710" on="1"/>
        <pt x="430" y="710" on="1"/>
        <pt x="568" y="0" on="1"/>
        <pt x="531" y="0" on="1"/>
        <pt x="484" y="245" on="1"/>
        <pt x="148" y="245" on="1"/>
        <pt x="-3" y="0" on="1"/>
        <pt x="-41" y="0" on="1"/>
      </contour>
      <contour>
        <pt x="480" y="275" on="1"/>
        <pt x="406" y="666" on="1"/>
        <pt x="164" y="275" on="1"/>
      </contour>
      <contour>
        <pt x="384" y="847" on="1"/>
        <pt x="384" y="877" on="0"/>
        <pt x="429" y="918" on="0"/>
        <pt x="458" y="918" on="1"/>
        <pt x="480" y="918" on="0"/>
        <pt x="505" y="891" on="0"/>
        <pt x="505" y="870" on="1"/>
        <pt x="505" y="841" on="0"/>
        <pt x="461" y="799" on="0"/>
        <pt x="432" y="799" on="1"/>
        <pt x="410" y="799" on="0"/>
        <pt x="384" y="826" on="0"/>
      </contour>
      <contour>
        <pt x="453" y="899" on="1"/>
        <pt x="435" y="899" on="0"/>
        <pt x="405" y="872" on="0"/>
        <pt x="405" y="851" on="1"/>
        <pt x="405" y="837" on="0"/>
        <pt x="422" y="818" on="0"/>
        <pt x="436" y="818" on="1"/>
        <pt x="453" y="818" on="0"/>
        <pt x="485" y="846" on="0"/>
        <pt x="485" y="866" on="1"/>
        <pt x="485" y="881" on="0"/>
        <pt x="467" y="899" on="0"/>
      </contour>
    </TTGlyph>
    <TTGlyph name="Aringacute" xMin="-41" yMin="0" xMax="568" yMax="918">
      <contour>
        <pt x="364" y="739" on="1"/>
        <pt x="364" y="769" on="0"/>
        <pt x="409" y="810" on="0"/>
        <pt x="438" y="810" on="1"/>
        <pt x="460" y="810" on="0"/>
        <pt x="485" y="783" on="0"/>
        <pt x="485" y="762" on="1"/>
        <pt x="485" y="738" on="0"/>
        <pt x="455" y="701" on="0"/>
        <pt x="433" y="694" on="1"/>
        <pt x="568" y="0" on="1"/>
        <pt x="531" y="0" on="1"/>
        <pt x="484" y="245" on="1"/>
        <pt x="148" y="245" on="1"/>
        <pt x="-3" y="0" on="1"/>
        <pt x="-41" y="0" on="1"/>
        <pt x="391" y="695" on="1"/>
        <pt x="364" y="706" on="0"/>
      </contour>
      <contour>
        <pt x="480" y="275" on="1"/>
        <pt x="406" y="666" on="1"/>
        <pt x="164" y="275" on="1"/>
      </contour>
      <contour>
        <pt x="433" y="791" on="1"/>
        <pt x="415" y="791" on="0"/>
        <pt x="385" y="764" on="0"/>
        <pt x="385" y="743" on="1"/>
        <pt x="385" y="729" on="0"/>
        <pt x="402" y="710" on="0"/>
        <pt x="416" y="710" on="1"/>
        <pt x="433" y="710" on="0"/>
        <pt x="465" y="738" on="0"/>
        <pt x="465" y="758" on="1"/>
        <pt x="465" y="773" on="0"/>
        <pt x="447" y="791" on="0"/>
      </contour>
      <contour>
        <pt x="426" y="827" on="1"/>
        <pt x="405" y="840" on="1"/>
        <pt x="481" y="918" on="1"/>
        <pt x="525" y="918" on="1"/>
      </contour>
    </TTGlyph>
    <TTGlyph name="Atilde" xMin="-41" yMin="0" xMax="594" yMax="918">
      <contour>
        <pt x="400" y="710" on="1"/>
        <pt x="430" y="710" on="1"/>
        <pt x="568" y="0" on="1"/>
        <pt x="531" y="0" on="1"/>
        <pt x="484" y="245" on="1"/>
        <pt x="148" y="245" on="1"/>
        <pt x="-3" y="0" on="1"/>
        <pt x="-41" y="0" on="1"/>
      </contour>
      <contour>
        <pt x="480" y="275" on="1"/>
        <pt x="406" y="666" on="1"/>
        <pt x="164" y="275" on="1"/>
      </contour>
      <contour>
        <pt x="496" y="844" on="1"/>
        <pt x="475" y="844" on="0"/>
        <pt x="446" y="856" on="0"/>
        <pt x="422" y="870" on="0"/>
        <pt x="400" y="882" on="0"/>
        <pt x="385" y="882" on="1"/>
        <pt x="370" y="882" on="0"/>
        <pt x="348" y="869" on="0"/>
        <pt x="334" y="852" on="0"/>
        <pt x="327" y="836" on="0"/>
        <pt x="326" y="834" on="1"/>
        <pt x="301" y="834" on="1"/>
        <pt x="301" y="837" on="0"/>
        <pt x="311" y="862" on="0"/>
        <pt x="333" y="888" on="0"/>
        <pt x="367" y="909" on="0"/>
        <pt x="392" y="909" on="1"/>
        <pt x="411" y="909" on="0"/>
        <pt x="437" y="897" on="0"/>
        <pt x="460" y="882" on="0"/>
        <pt x="485" y="870" on="0"/>
        <pt x="503" y="870" on="1"/>
        <pt x="522" y="870" on="0"/>
        <pt x="547" y="884" on="0"/>
        <pt x="562" y="901" on="0"/>
        <pt x="569" y="916" on="0"/>
        <pt x="569" y="918" on="1"/>
        <pt x="594" y="918" on="1"/>
        <pt x="593" y="914" on="0"/>
        <pt x="583" y="890" on="0"/>
        <pt x="560" y="864" on="0"/>
        <pt x="523" y="844" on="0"/>
      </contour>
    </TTGlyph>
    <TTGlyph name="B" xMin="30" yMin="0" xMax="608" yMax="710">
      <contour>
        <pt x="181" y="710" on="1"/>
        <pt x="488" y="710" on="1"/>
        <pt x="518" y="710" on="0"/>
        <pt x="563" y="685" on="0"/>
        <pt x="593" y="645" on="0"/>
        <pt x="608" y="593" on="0"/>
        <pt x="608" y="565" on="1"/>
        <pt x="608" y="533" on="0"/>
        <pt x="587" y="471" on="0"/>
        <pt x="551" y="419" on="0"/>
        <pt x="501" y="377" on="0"/>
        <pt x="471" y="364" on="1"/>
        <pt x="516" y="349" on="0"/>
        <pt x="563" y="269" on="0"/>
        <pt x="563" y="219" on="1"/>
        <pt x="563" y="175" on="0"/>
        <pt x="525" y="95" on="0"/>
        <pt x="464" y="35" on="0"/>
        <pt x="385" y="0" on="0"/>
        <pt x="345" y="0" on="1"/>
        <pt x="30" y="0" on="1"/>
      </contour>
      <contour>
        <pt x="351" y="32" on="1"/>
        <pt x="385" y="32" on="0"/>
        <pt x="448" y="64" on="0"/>
        <pt x="498" y="116" on="0"/>
        <pt x="528" y="182" on="0"/>
        <pt x="528" y="217" on="1"/>
        <pt x="528" y="242" on="0"/>
        <pt x="514" y="288" on="0"/>
        <pt x="487" y="322" on="0"/>
        <pt x="448" y="343" on="0"/>
        <pt x="424" y="343" on="1"/>
        <pt x="137" y="343" on="1"/>
        <pt x="71" y="32" on="1"/>
      </contour>
      <contour>
        <pt x="404" y="374" on="1"/>
        <pt x="437" y="374" on="0"/>
        <pt x="498" y="406" on="0"/>
        <pt x="545" y="458" on="0"/>
        <pt x="573" y="523" on="0"/>
        <pt x="573" y="557" on="1"/>
        <pt x="573" y="582" on="0"/>
        <pt x="560" y="626" on="0"/>
        <pt x="535" y="659" on="0"/>
        <pt x="498" y="678" on="0"/>
        <pt x="475" y="678" on="1"/>
        <pt x="209" y="678" on="1"/>
        <pt x="144" y="374" on="1"/>
      </contour>
    </TTGlyph>
    <TTGlyph name="B.sc" xMin="26" yMin="0" xMax="498" yMax="542">
      <contour>
        <pt x="141" y="542" on="1"/>
        <pt x="397" y="542" on="1"/>
        <pt x="422" y="542" on="0"/>
        <pt x="459" y="523" on="0"/>
        <pt x="485" y="492" on="0"/>
        <pt x="498" y="451" on="0"/>
        <pt x="498" y="430" on="1"/>
        <pt x="498" y="380" on="0"/>
        <pt x="436" y="297" on="0"/>
        <pt x="388" y="278" on="1"/>
        <pt x="425" y="266" on="0"/>
        <pt x="466" y="204" on="0"/>
        <pt x="466" y="165" on="1"/>
        <pt x="466" y="131" on="0"/>
        <pt x="435" y="71" on="0"/>
        <pt x="385" y="26" on="0"/>
        <pt x="320" y="0" on="0"/>
        <pt x="286" y="0" on="1"/>
        <pt x="26" y="0" on="1"/>
      </contour>
      <contour>
        <pt x="292" y="29" on="1"/>
        <pt x="319" y="29" on="0"/>
        <pt x="369" y="52" on="0"/>
        <pt x="409" y="90" on="0"/>
        <pt x="433" y="139" on="0"/>
        <pt x="433" y="164" on="1"/>
        <pt x="433" y="183" on="0"/>
        <pt x="421" y="218" on="0"/>
        <pt x="398" y="244" on="0"/>
        <pt x="366" y="260" on="0"/>
        <pt x="346" y="260" on="1"/>
        <pt x="113" y="260" on="1"/>
        <pt x="65" y="29" on="1"/>
      </contour>
      <contour>
        <pt x="331" y="288" on="1"/>
        <pt x="358" y="288" on="0"/>
        <pt x="406" y="311" on="0"/>
        <pt x="442" y="348" on="0"/>
        <pt x="464" y="396" on="0"/>
        <pt x="464" y="422" on="1"/>
        <pt x="464" y="459" on="0"/>
        <pt x="421" y="512" on="0"/>
        <pt x="383" y="512" on="1"/>
        <pt x="167" y="512" on="1"/>
        <pt x="119" y="288" on="1"/>
      </contour>
    </TTGlyph>
    <TTGlyph name="C" xMin="51" yMin="-6" xMax="668" yMax="714">
      <contour>
        <pt x="295" y="-6" on="1"/>
        <pt x="237" y="-6" on="0"/>
        <pt x="146" y="44" on="0"/>
        <pt x="84" y="128" on="0"/>
        <pt x="51" y="236" on="0"/>
        <pt x="51" y="293" on="1"/>
        <pt x="51" y="366" on="0"/>
        <pt x="111" y="515" on="0"/>
        <pt x="219" y="637" on="0"/>
        <pt x="366" y="714" on="0"/>
        <pt x="453" y="714" on="1"/>
        <pt x="498" y="714" on="0"/>
        <pt x="570" y="691" on="0"/>
        <pt x="624" y="650" on="0"/>
        <pt x="660" y="593" on="0"/>
        <pt x="668" y="559" on="1"/>
        <pt x="635" y="545" on="1"/>
        <pt x="624" y="583" on="0"/>
        <pt x="585" y="635" on="0"/>
        <pt x="534" y="667" on="0"/>
        <pt x="474" y="681" on="0"/>
        <pt x="443" y="681" on="1"/>
        <pt x="365" y="681" on="0"/>
        <pt x="234" y="610" on="0"/>
        <pt x="139" y="498" on="0"/>
        <pt x="85" y="361" on="0"/>
        <pt x="85" y="294" on="1"/>
        <pt x="85" y="240" on="0"/>
        <pt x="116" y="143" on="0"/>
        <pt x="174" y="70" on="0"/>
        <pt x="255" y="27" on="0"/>
        <pt x="306" y="27" on="1"/>
        <pt x="338" y="27" on="0"/>
        <pt x="408" y="44" on="0"/>
        <pt x="478" y="79" on="0"/>
        <pt x="543" y="133" on="0"/>
        <pt x="570" y="171" on="1"/>
        <pt x="598" y="159" on="1"/>
        <pt x="572" y="119" on="0"/>
        <pt x="501" y="57" on="0"/>
        <pt x="419" y="15" on="0"/>
        <pt x="334" y="-6" on="0"/>
      </contour>
    </TTGlyph>
    <TTGlyph name="C.sc" xMin="39" yMin="-5" xMax="546" yMax="545">
      <contour>
        <pt x="246" y="-5" on="1"/>
        <pt x="197" y="-5" on="0"/>
        <pt x="120" y="34" on="0"/>
        <pt x="67" y="99" on="0"/>
        <pt x="39" y="183" on="0"/>
        <pt x="39" y="228" on="1"/>
        <pt x="39" y="283" on="0"/>
        <pt x="88" y="395" on="0"/>
        <pt x="175" y="487" on="0"/>
        <pt x="295" y="545" on="0"/>
        <pt x="367" y="545" on="1"/>
        <pt x="441" y="545" on="0"/>
        <pt x="532" y="478" on="0"/>
        <pt x="546" y="427" on="1"/>
        <pt x="516" y="412" on="1"/>
        <pt x="507" y="441" on="0"/>
        <pt x="474" y="480" on="0"/>
        <pt x="431" y="504" on="0"/>
        <pt x="382" y="515" on="0"/>
        <pt x="357" y="515" on="1"/>
        <pt x="294" y="515" on="0"/>
        <pt x="189" y="463" on="0"/>
        <pt x="113" y="380" on="0"/>
        <pt x="71" y="278" on="0"/>
        <pt x="71" y="229" on="1"/>
        <pt x="71" y="188" on="0"/>
        <pt x="97" y="114" on="0"/>
        <pt x="145" y="59" on="0"/>
        <pt x="213" y="26" on="0"/>
        <pt x="255" y="26" on="1"/>
        <pt x="281" y="26" on="0"/>
        <pt x="339" y="38" on="0"/>
        <pt x="395" y="65" on="0"/>
        <pt x="447" y="105" on="0"/>
        <pt x="468" y="134" on="1"/>
        <pt x="493" y="121" on="1"/>
        <pt x="472" y="91" on="0"/>
        <pt x="414" y="44" on="0"/>
        <pt x="347" y="12" on="0"/>
        <pt x="277" y="-5" on="0"/>
      </contour>
    </TTGlyph>
    <TTGlyph name="Cacute" xMin="51" yMin="-6" xMax="668" yMax="918">
      <contour>
        <pt x="473" y="826" on="1"/>
        <pt x="452" y="839" on="1"/>
        <pt x="528" y="918" on="1"/>
        <pt x="572" y="918" on="1"/>
      </contour>
      <contour>
        <pt x="295" y="-6" on="1"/>
        <pt x="237" y="-6" on="0"/>
        <pt x="146" y="44" on="0"/>
        <pt x="84" y="128" on="0"/>
        <pt x="51" y="236" on="0"/>
        <pt x="51" y="293" on="1"/>
        <pt x="51" y="366" on="0"/>
        <pt x="111" y="515" on="0"/>
        <pt x="219" y="637" on="0"/>
        <pt x="366" y="714" on="0"/>
        <pt x="453" y="714" on="1"/>
        <pt x="498" y="714" on="0"/>
        <pt x="570" y="691" on="0"/>
        <pt x="624" y="650" on="0"/>
        <pt x="660" y="593" on="0"/>
        <pt x="668" y="559" on="1"/>
        <pt x="635" y="545" on="1"/>
        <pt x="624" y="583" on="0"/>
        <pt x="585" y="635" on="0"/>
        <pt x="534" y="667" on="0"/>
        <pt x="474" y="681" on="0"/>
        <pt x="443" y="681" on="1"/>
        <pt x="365" y="681" on="0"/>
        <pt x="234" y="610" on="0"/>
        <pt x="139" y="498" on="0"/>
        <pt x="85" y="361" on="0"/>
        <pt x="85" y="294" on="1"/>
        <pt x="85" y="240" on="0"/>
        <pt x="116" y="143" on="0"/>
        <pt x="174" y="70" on="0"/>
        <pt x="255" y="27" on="0"/>
        <pt x="306" y="27" on="1"/>
        <pt x="338" y="27" on="0"/>
        <pt x="408" y="44" on="0"/>
        <pt x="478" y="79" on="0"/>
        <pt x="543" y="133" on="0"/>
        <pt x="570" y="171" on="1"/>
        <pt x="598" y="159" on="1"/>
        <pt x="572" y="119" on="0"/>
        <pt x="501" y="57" on="0"/>
        <pt x="419" y="15" on="0"/>
        <pt x="334" y="-6" on="0"/>
      </contour>
    </TTGlyph>
    <TTGlyph name="Ccaron" xMin="51" yMin="-6" xMax="668" yMax="918">
      <contour>
        <pt x="391" y="904" on="1"/>
        <pt x="416" y="918" on="1"/>
        <pt x="484" y="855" on="1"/>
        <pt x="578" y="918" on="1"/>
        <pt x="597" y="904" on="1"/>
        <pt x="490" y="826" on="1"/>
        <pt x="464" y="826" on="1"/>
      </contour>
      <contour>
        <pt x="295" y="-6" on="1"/>
        <pt x="237" y="-6" on="0"/>
        <pt x="146" y="44" on="0"/>
        <pt x="84" y="128" on="0"/>
        <pt x="51" y="236" on="0"/>
        <pt x="51" y="293" on="1"/>
        <pt x="51" y="366" on="0"/>
        <pt x="111" y="515" on="0"/>
        <pt x="219" y="637" on="0"/>
        <pt x="366" y="714" on="0"/>
        <pt x="453" y="714" on="1"/>
        <pt x="498" y="714" on="0"/>
        <pt x="570" y="691" on="0"/>
        <pt x="624" y="650" on="0"/>
        <pt x="660" y="593" on="0"/>
        <pt x="668" y="559" on="1"/>
        <pt x="635" y="545" on="1"/>
        <pt x="624" y="583" on="0"/>
        <pt x="585" y="635" on="0"/>
        <pt x="534" y="667" on="0"/>
        <pt x="474" y="681" on="0"/>
        <pt x="443" y="681" on="1"/>
        <pt x="365" y="681" on="0"/>
        <pt x="234" y="610" on="0"/>
        <pt x="139" y="498" on="0"/>
        <pt x="85" y="361" on="0"/>
        <pt x="85" y="294" on="1"/>
        <pt x="85" y="240" on="0"/>
        <pt x="116" y="143" on="0"/>
        <pt x="174" y="70" on="0"/>
        <pt x="255" y="27" on="0"/>
        <pt x="306" y="27" on="1"/>
        <pt x="338" y="27" on="0"/>
        <pt x="408" y="44" on="0"/>
        <pt x="478" y="79" on="0"/>
        <pt x="543" y="133" on="0"/>
        <pt x="570" y="171" on="1"/>
        <pt x="598" y="159" on="1"/>
        <pt x="572" y="119" on="0"/>
        <pt x="501" y="57" on="0"/>
        <pt x="419" y="15" on="0"/>
        <pt x="334" y="-6" on="0"/>
      </contour>
    </TTGlyph>
    <TTGlyph name="Ccedilla" xMin="48" yMin="-166" xMax="665" yMax="714">
      <contour>
        <pt x="194" y="-125" on="1"/>
        <pt x="207" y="-132" on="0"/>
        <pt x="249" y="-143" on="0"/>
        <pt x="273" y="-143" on="1"/>
        <pt x="338" y="-143" on="0"/>
        <pt x="338" y="-97" on="1"/>
        <pt x="338" y="-81" on="0"/>
        <pt x="315" y="-69" on="0"/>
        <pt x="298" y="-69" on="1"/>
        <pt x="278" y="-69" on="0"/>
        <pt x="232" y="-79" on="0"/>
        <pt x="218" y="-84" on="1"/>
        <pt x="277" y="-5" on="1"/>
        <pt x="222" y="-2" on="0"/>
        <pt x="137" y="50" on="0"/>
        <pt x="78" y="133" on="0"/>
        <pt x="48" y="237" on="0"/>
        <pt x="48" y="293" on="1"/>
        <pt x="48" y="366" on="0"/>
        <pt x="108" y="515" on="0"/>
        <pt x="216" y="637" on="0"/>
        <pt x="363" y="714" on="0"/>
        <pt x="450" y="714" on="1"/>
        <pt x="495" y="714" on="0"/>
        <pt x="567" y="691" on="0"/>
        <pt x="621" y="650" on="0"/>
        <pt x="657" y="593" on="0"/>
        <pt x="665" y="559" on="1"/>
        <pt x="632" y="545" on="1"/>
        <pt x="621" y="583" on="0"/>
        <pt x="582" y="635" on="0"/>
        <pt x="531" y="667" on="0"/>
        <pt x="471" y="681" on="0"/>
        <pt x="440" y="681" on="1"/>
        <pt x="362" y="681" on="0"/>
        <pt x="231" y="610" on="0"/>
        <pt x="136" y="498" on="0"/>
        <pt x="82" y="361" on="0"/>
        <pt x="82" y="294" on="1"/>
        <pt x="82" y="240" on="0"/>
        <pt x="113" y="143" on="0"/>
        <pt x="171" y="70" on="0"/>
        <pt x="252" y="27" on="0"/>
        <pt x="303" y="27" on="1"/>
        <pt x="335" y="27" on="0"/>
        <pt x="405" y="44" on="0"/>
        <pt x="475" y="79" on="0"/>
        <pt x="540" y="133" on="0"/>
        <pt x="567" y="171" on="1"/>
        <pt x="595" y="159" on="1"/>
        <pt x="570" y="120" on="0"/>
        <pt x="502" y="61" on="0"/>
        <pt x="424" y="19" on="0"/>
        <pt x="342" y="-4" on="0"/>
        <pt x="304" y="-5" on="1"/>
        <pt x="266" y="-55" on="1"/>
        <pt x="276" y="-51" on="0"/>
        <pt x="298" y="-49" on="0"/>
        <pt x="306" y="-49" on="1"/>
        <pt x="362" y="-49" on="0"/>
        <pt x="362" y="-93" on="1"/>
        <pt x="362" y="-129" on="0"/>
        <pt x="311" y="-166" on="0"/>
        <pt x="264" y="-166" on="1"/>
        <pt x="238" y="-166" on="0"/>
        <pt x="195" y="-155" on="0"/>
        <pt x="178" y="-147" on="1"/>
      </contour>
    </TTGlyph>
    <TTGlyph name="Ccircumflex" xMin="51" yMin="-6" xMax="668" yMax="918">
      <contour>
        <pt x="385" y="841" on="1"/>
        <pt x="491" y="918" on="1"/>
        <pt x="517" y="918" on="1"/>
        <pt x="591" y="841" on="1"/>
        <pt x="566" y="826" on="1"/>
        <pt x="498" y="889" on="1"/>
        <pt x="404" y="826" on="1"/>
      </contour>
      <contour>
        <pt x="295" y="-6" on="1"/>
        <pt x="237" y="-6" on="0"/>
        <pt x="146" y="44" on="0"/>
        <pt x="84" y="128" on="0"/>
        <pt x="51" y="236" on="0"/>
        <pt x="51" y="293" on="1"/>
        <pt x="51" y="366" on="0"/>
        <pt x="111" y="515" on="0"/>
        <pt x="219" y="637" on="0"/>
        <pt x="366" y="714" on="0"/>
        <pt x="453" y="714" on="1"/>
        <pt x="498" y="714" on="0"/>
        <pt x="570" y="691" on="0"/>
        <pt x="624" y="650" on="0"/>
        <pt x="660" y="593" on="0"/>
        <pt x="668" y="559" on="1"/>
        <pt x="635" y="545" on="1"/>
        <pt x="624" y="583" on="0"/>
        <pt x="585" y="635" on="0"/>
        <pt x="534" y="667" on="0"/>
        <pt x="474" y="681" on="0"/>
        <pt x="443" y="681" on="1"/>
        <pt x="365" y="681" on="0"/>
        <pt x="234" y="610" on="0"/>
        <pt x="139" y="498" on="0"/>
        <pt x="85" y="361" on="0"/>
        <pt x="85" y="294" on="1"/>
        <pt x="85" y="240" on="0"/>
        <pt x="116" y="143" on="0"/>
        <pt x="174" y="70" on="0"/>
        <pt x="255" y="27" on="0"/>
        <pt x="306" y="27" on="1"/>
        <pt x="338" y="27" on="0"/>
        <pt x="408" y="44" on="0"/>
        <pt x="478" y="79" on="0"/>
        <pt x="543" y="133" on="0"/>
        <pt x="570" y="171" on="1"/>
        <pt x="598" y="159" on="1"/>
        <pt x="572" y="119" on="0"/>
        <pt x="501" y="57" on="0"/>
        <pt x="419" y="15" on="0"/>
        <pt x="334" y="-6" on="0"/>
      </contour>
    </TTGlyph>
    <TTGlyph name="Cdotaccent" xMin="51" yMin="-6" xMax="668" yMax="918">
      <contour>
        <pt x="295" y="-6" on="1"/>
        <pt x="237" y="-6" on="0"/>
        <pt x="146" y="44" on="0"/>
        <pt x="84" y="128" on="0"/>
        <pt x="51" y="236" on="0"/>
        <pt x="51" y="293" on="1"/>
        <pt x="51" y="366" on="0"/>
        <pt x="111" y="515" on="0"/>
        <pt x="219" y="637" on="0"/>
        <pt x="366" y="714" on="0"/>
        <pt x="453" y="714" on="1"/>
        <pt x="498" y="714" on="0"/>
        <pt x="570" y="691" on="0"/>
        <pt x="624" y="650" on="0"/>
        <pt x="660" y="593" on="0"/>
        <pt x="668" y="559" on="1"/>
        <pt x="635" y="545" on="1"/>
        <pt x="624" y="583" on="0"/>
        <pt x="585" y="635" on="0"/>
        <pt x="534" y="667" on="0"/>
        <pt x="474" y="681" on="0"/>
        <pt x="443" y="681" on="1"/>
        <pt x="365" y="681" on="0"/>
        <pt x="234" y="610" on="0"/>
        <pt x="139" y="498" on="0"/>
        <pt x="85" y="361" on="0"/>
        <pt x="85" y="294" on="1"/>
        <pt x="85" y="240" on="0"/>
        <pt x="116" y="143" on="0"/>
        <pt x="174" y="70" on="0"/>
        <pt x="255" y="27" on="0"/>
        <pt x="306" y="27" on="1"/>
        <pt x="338" y="27" on="0"/>
        <pt x="408" y="44" on="0"/>
        <pt x="478" y="79" on="0"/>
        <pt x="543" y="133" on="0"/>
        <pt x="570" y="171" on="1"/>
        <pt x="598" y="159" on="1"/>
        <pt x="572" y="119" on="0"/>
        <pt x="501" y="57" on="0"/>
        <pt x="419" y="15" on="0"/>
        <pt x="334" y="-6" on="0"/>
      </contour>
      <contour>
        <pt x="470" y="835" on="1"/>
        <pt x="488" y="918" on="1"/>
        <pt x="520" y="918" on="1"/>
        <pt x="503" y="835" on="1"/>
      </contour>
    </TTGlyph>
    <TTGlyph name="D" xMin="30" yMin="0" xMax="656" yMax="710">
      <contour>
        <pt x="181" y="710" on="1"/>
        <pt x="402" y="710" on="1"/>
        <pt x="467" y="710" on="0"/>
        <pt x="563" y="668" on="0"/>
        <pt x="626" y="595" on="0"/>
        <pt x="656" y="496" on="0"/>
        <pt x="656" y="439" on="1"/>
        <pt x="656" y="345" on="0"/>
        <pt x="595" y="184" on="0"/>
        <pt x="487" y="67" on="0"/>
        <pt x="339" y="0" on="0"/>
        <pt x="251" y="0" on="1"/>
        <pt x="30" y="0" on="1"/>
      </contour>
      <contour>
        <pt x="258" y="32" on="1"/>
        <pt x="343" y="32" on="0"/>
        <pt x="477" y="98" on="0"/>
        <pt x="571" y="209" on="0"/>
        <pt x="621" y="354" on="0"/>
        <pt x="621" y="433" on="1"/>
        <pt x="621" y="487" on="0"/>
        <pt x="593" y="577" on="0"/>
        <pt x="536" y="642" on="0"/>
        <pt x="451" y="678" on="0"/>
        <pt x="395" y="678" on="1"/>
        <pt x="209" y="678" on="1"/>
        <pt x="71" y="32" on="1"/>
      </contour>
    </TTGlyph>
    <TTGlyph name="D.sc" xMin="26" yMin="0" xMax="540" yMax="542">
      <contour>
        <pt x="141" y="542" on="1"/>
        <pt x="325" y="542" on="1"/>
        <pt x="380" y="542" on="0"/>
        <pt x="461" y="510" on="0"/>
        <pt x="514" y="453" on="0"/>
        <pt x="540" y="376" on="0"/>
        <pt x="540" y="331" on="1"/>
        <pt x="540" y="259" on="0"/>
        <pt x="490" y="138" on="0"/>
        <pt x="402" y="50" on="0"/>
        <pt x="281" y="0" on="0"/>
        <pt x="210" y="0" on="1"/>
        <pt x="26" y="0" on="1"/>
      </contour>
      <contour>
        <pt x="216" y="30" on="1"/>
        <pt x="285" y="30" on="0"/>
        <pt x="392" y="78" on="0"/>
        <pt x="467" y="160" on="0"/>
        <pt x="506" y="267" on="0"/>
        <pt x="506" y="326" on="1"/>
        <pt x="506" y="367" on="0"/>
        <pt x="482" y="435" on="0"/>
        <pt x="435" y="485" on="0"/>
        <pt x="365" y="512" on="0"/>
        <pt x="318" y="512" on="1"/>
        <pt x="167" y="512" on="1"/>
        <pt x="65" y="30" on="1"/>
      </contour>
    </TTGlyph>
    <TTGlyph name="Dcaron" xMin="30" yMin="0" xMax="656" yMax="918">
      <contour>
        <pt x="353" y="904" on="1"/>
        <pt x="378" y="918" on="1"/>
        <pt x="446" y="855" on="1"/>
        <pt x="540" y="918" on="1"/>
        <pt x="559" y="904" on="1"/>
        <pt x="452" y="826" on="1"/>
        <pt x="426" y="826" on="1"/>
      </contour>
      <contour>
        <pt x="181" y="710" on="1"/>
        <pt x="402" y="710" on="1"/>
        <pt x="467" y="710" on="0"/>
        <pt x="563" y="668" on="0"/>
        <pt x="626" y="595" on="0"/>
        <pt x="656" y="496" on="0"/>
        <pt x="656" y="439" on="1"/>
        <pt x="656" y="345" on="0"/>
        <pt x="595" y="184" on="0"/>
        <pt x="487" y="67" on="0"/>
        <pt x="339" y="0" on="0"/>
        <pt x="251" y="0" on="1"/>
        <pt x="30" y="0" on="1"/>
      </contour>
      <contour>
        <pt x="258" y="32" on="1"/>
        <pt x="343" y="32" on="0"/>
        <pt x="477" y="98" on="0"/>
        <pt x="571" y="209" on="0"/>
        <pt x="621" y="354" on="0"/>
        <pt x="621" y="433" on="1"/>
        <pt x="621" y="487" on="0"/>
        <pt x="593" y="577" on="0"/>
        <pt x="536" y="642" on="0"/>
        <pt x="451" y="678" on="0"/>
        <pt x="395" y="678" on="1"/>
        <pt x="209" y="678" on="1"/>
        <pt x="71" y="32" on="1"/>
      </contour>
    </TTGlyph>
    <TTGlyph name="Dcroat" xMin="37" yMin="0" xMax="663" yMax="710">
      <contour>
        <pt x="52" y="372" on="1"/>
        <pt x="116" y="372" on="1"/>
        <pt x="188" y="710" on="1"/>
        <pt x="409" y="710" on="1"/>
        <pt x="474" y="710" on="0"/>
        <pt x="570" y="668" on="0"/>
        <pt x="633" y="595" on="0"/>
        <pt x="663" y="496" on="0"/>
        <pt x="663" y="439" on="1"/>
        <pt x="663" y="345" on="0"/>
        <pt x="602" y="184" on="0"/>
        <pt x="494" y="67" on="0"/>
        <pt x="346" y="0" on="0"/>
        <pt x="258" y="0" on="1"/>
        <pt x="37" y="0" on="1"/>
        <pt x="109" y="342" on="1"/>
        <pt x="46" y="342" on="1"/>
      </contour>
      <contour>
        <pt x="265" y="32" on="1"/>
        <pt x="350" y="32" on="0"/>
        <pt x="484" y="98" on="0"/>
        <pt x="578" y="209" on="0"/>
        <pt x="628" y="354" on="0"/>
        <pt x="628" y="433" on="1"/>
        <pt x="628" y="487" on="0"/>
        <pt x="600" y="577" on="0"/>
        <pt x="543" y="642" on="0"/>
        <pt x="458" y="678" on="0"/>
        <pt x="402" y="678" on="1"/>
        <pt x="216" y="678" on="1"/>
        <pt x="150" y="372" on="1"/>
        <pt x="326" y="372" on="1"/>
        <pt x="320" y="342" on="1"/>
        <pt x="144" y="342" on="1"/>
        <pt x="78" y="32" on="1"/>
      </contour>
    </TTGlyph>
    <TTGlyph name="Ddotbelow" xMin="30" yMin="-138" xMax="656" yMax="710">
      <contour>
        <pt x="216" y="-138" on="1"/>
        <pt x="233" y="-55" on="1"/>
        <pt x="265" y="-55" on="1"/>
        <pt x="248" y="-138" on="1"/>
      </contour>
      <contour>
        <pt x="181" y="710" on="1"/>
        <pt x="402" y="710" on="1"/>
        <pt x="467" y="710" on="0"/>
        <pt x="563" y="668" on="0"/>
        <pt x="626" y="595" on="0"/>
        <pt x="656" y="496" on="0"/>
        <pt x="656" y="439" on="1"/>
        <pt x="656" y="345" on="0"/>
        <pt x="595" y="184" on="0"/>
        <pt x="487" y="67" on="0"/>
        <pt x="339" y="0" on="0"/>
        <pt x="251" y="0" on="1"/>
        <pt x="30" y="0" on="1"/>
      </contour>
      <contour>
        <pt x="258" y="32" on="1"/>
        <pt x="343" y="32" on="0"/>
        <pt x="477" y="98" on="0"/>
        <pt x="571" y="209" on="0"/>
        <pt x="621" y="354" on="0"/>
        <pt x="621" y="433" on="1"/>
        <pt x="621" y="487" on="0"/>
        <pt x="593" y="577" on="0"/>
        <pt x="536" y="642" on="0"/>
        <pt x="451" y="678" on="0"/>
        <pt x="395" y="678" on="1"/>
        <pt x="209" y="678" on="1"/>
        <pt x="71" y="32" on="1"/>
      </contour>
    </TTGlyph>
    <TTGlyph name="Delta" xMin="-9" yMin="0" xMax="590" yMax="710">
      <contour>
        <pt x="590" y="30" on="1"/>
        <pt x="590" y="0" on="1"/>
        <pt x="-9" y="0" on="1"/>
        <pt x="-9" y="30" on="1"/>
        <pt x="277" y="710" on="1"/>
        <pt x="306" y="710" on="1"/>
      </contour>
      <contour>
        <pt x="553" y="32" on="1"/>
        <pt x="291" y="666" on="1"/>
        <pt x="29" y="32" on="1"/>
      </contour>
    </TTGlyph>
    <TTGlyph name="E" xMin="30" yMin="0" xMax="619" yMax="710">
      <contour>
        <pt x="181" y="710" on="1"/>
        <pt x="619" y="710" on="1"/>
        <pt x="612" y="678" on="1"/>
        <pt x="209" y="678" on="1"/>
        <pt x="145" y="379" on="1"/>
        <pt x="498" y="379" on="1"/>
        <pt x="491" y="347" on="1"/>
        <pt x="138" y="347" on="1"/>
        <pt x="71" y="32" on="1"/>
        <pt x="483" y="32" on="1"/>
        <pt x="477" y="0" on="1"/>
        <pt x="30" y="0" on="1"/>
      </contour>
    </TTGlyph>
    <TTGlyph name="E.sc" xMin="26" yMin="0" xMax="504" yMax="542">
      <contour>
        <pt x="141" y="542" on="1"/>
        <pt x="504" y="542" on="1"/>
        <pt x="498" y="512" on="1"/>
        <pt x="167" y="512" on="1"/>
        <pt x="120" y="291" on="1"/>
        <pt x="410" y="291" on="1"/>
        <pt x="403" y="262" on="1"/>
        <pt x="114" y="262" on="1"/>
        <pt x="65" y="30" on="1"/>
        <pt x="402" y="30" on="1"/>
        <pt x="396" y="0" on="1"/>
        <pt x="26" y="0" on="1"/>
      </contour>
    </TTGlyph>
    <TTGlyph name="Eacute" xMin="30" yMin="0" xMax="619" yMax="918">
      <contour>
        <pt x="405" y="826" on="1"/>
        <pt x="384" y="839" on="1"/>
        <pt x="460" y="918" on="1"/>
        <pt x="504" y="918" on="1"/>
      </contour>
      <contour>
        <pt x="181" y="710" on="1"/>
        <pt x="619" y="710" on="1"/>
        <pt x="612" y="678" on="1"/>
        <pt x="209" y="678" on="1"/>
        <pt x="145" y="379" on="1"/>
        <pt x="498" y="379" on="1"/>
        <pt x="491" y="347" on="1"/>
        <pt x="138" y="347" on="1"/>
        <pt x="71" y="32" on="1"/>
        <pt x="483" y="32" on="1"/>
        <pt x="477" y="0" on="1"/>
        <pt x="30" y="0" on="1"/>
      </contour>
    </TTGlyph>
    <TTGlyph name="Ebreve" xMin="30" yMin="0" xMax="619" yMax="918">
      <contour>
        <pt x="181" y="710" on="1"/>
        <pt x="619" y="710" on="1"/>
        <pt x="612" y="678" on="1"/>
        <pt x="209" y="678" on="1"/>
        <pt x="145" y="379" on="1"/>
        <pt x="498" y="379" on="1"/>
        <pt x="491" y="347" on="1"/>
        <pt x="138" y="347" on="1"/>
        <pt x="71" y="32" on="1"/>
        <pt x="483" y="32" on="1"/>
        <pt x="477" y="0" on="1"/>
        <pt x="30" y="0" on="1"/>
      </contour>
      <contour>
        <pt x="427" y="856" on="1"/>
        <pt x="447" y="856" on="0"/>
        <pt x="486" y="892" on="0"/>
        <pt x="494" y="918" on="1"/>
        <pt x="518" y="918" on="1"/>
        <pt x="514" y="901" on="0"/>
        <pt x="495" y="870" on="0"/>
        <pt x="469" y="847" on="0"/>
        <pt x="438" y="834" on="0"/>
        <pt x="423" y="834" on="1"/>
        <pt x="395" y="834" on="0"/>
        <pt x="360" y="872" on="0"/>
        <pt x="360" y="901" on="1"/>
        <pt x="360" y="906" on="0"/>
        <pt x="361" y="913" on="0"/>
        <pt x="362" y="918" on="1"/>
        <pt x="388" y="918" on="1"/>
        <pt x="386" y="910" on="0"/>
        <pt x="386" y="906" on="1"/>
        <pt x="386" y="886" on="0"/>
        <pt x="409" y="856" on="0"/>
      </contour>
    </TTGlyph>
    <TTGlyph name="Ecaron" xMin="30" yMin="0" xMax="619" yMax="918">
      <contour>
        <pt x="333" y="904" on="1"/>
        <pt x="358" y="918" on="1"/>
        <pt x="426" y="855" on="1"/>
        <pt x="520" y="918" on="1"/>
        <pt x="539" y="904" on="1"/>
        <pt x="432" y="826" on="1"/>
        <pt x="406" y="826" on="1"/>
      </contour>
      <contour>
        <pt x="181" y="710" on="1"/>
        <pt x="619" y="710" on="1"/>
        <pt x="612" y="678" on="1"/>
        <pt x="209" y="678" on="1"/>
        <pt x="145" y="379" on="1"/>
        <pt x="498" y="379" on="1"/>
        <pt x="491" y="347" on="1"/>
        <pt x="138" y="347" on="1"/>
        <pt x="71" y="32" on="1"/>
        <pt x="483" y="32" on="1"/>
        <pt x="477" y="0" on="1"/>
        <pt x="30" y="0" on="1"/>
      </contour>
    </TTGlyph>
    <TTGlyph name="Ecircumflex" xMin="30" yMin="0" xMax="619" yMax="918">
      <contour>
        <pt x="331" y="841" on="1"/>
        <pt x="437" y="918" on="1"/>
        <pt x="463" y="918" on="1"/>
        <pt x="537" y="841" on="1"/>
        <pt x="512" y="826" on="1"/>
        <pt x="444" y="889" on="1"/>
        <pt x="350" y="826" on="1"/>
      </contour>
      <contour>
        <pt x="181" y="710" on="1"/>
        <pt x="619" y="710" on="1"/>
        <pt x="612" y="678" on="1"/>
        <pt x="209" y="678" on="1"/>
        <pt x="145" y="379" on="1"/>
        <pt x="498" y="379" on="1"/>
        <pt x="491" y="347" on="1"/>
        <pt x="138" y="347" on="1"/>
        <pt x="71" y="32" on="1"/>
        <pt x="483" y="32" on="1"/>
        <pt x="477" y="0" on="1"/>
        <pt x="30" y="0" on="1"/>
      </contour>
    </TTGlyph>
    <TTGlyph name="Edblgrave" xMin="30" yMin="0" xMax="619" yMax="918">
      <contour>
        <pt x="416" y="918" on="1"/>
        <pt x="457" y="918" on="1"/>
        <pt x="500" y="839" on="1"/>
        <pt x="474" y="826" on="1"/>
      </contour>
      <contour>
        <pt x="313" y="918" on="1"/>
        <pt x="354" y="918" on="1"/>
        <pt x="396" y="839" on="1"/>
        <pt x="372" y="826" on="1"/>
      </contour>
      <contour>
        <pt x="181" y="710" on="1"/>
        <pt x="619" y="710" on="1"/>
        <pt x="612" y="678" on="1"/>
        <pt x="209" y="678" on="1"/>
        <pt x="145" y="379" on="1"/>
        <pt x="498" y="379" on="1"/>
        <pt x="491" y="347" on="1"/>
        <pt x="138" y="347" on="1"/>
        <pt x="71" y="32" on="1"/>
        <pt x="483" y="32" on="1"/>
        <pt x="477" y="0" on="1"/>
        <pt x="30" y="0" on="1"/>
      </contour>
    </TTGlyph>
    <TTGlyph name="Edieresis" xMin="30" yMin="0" xMax="619" yMax="917">
      <contour>
        <pt x="349" y="835" on="1"/>
        <pt x="366" y="917" on="1"/>
        <pt x="397" y="917" on="1"/>
        <pt x="380" y="835" on="1"/>
      </contour>
      <contour>
        <pt x="469" y="835" on="1"/>
        <pt x="486" y="917" on="1"/>
        <pt x="517" y="917" on="1"/>
        <pt x="500" y="835" on="1"/>
      </contour>
      <contour>
        <pt x="181" y="710" on="1"/>
        <pt x="619" y="710" on="1"/>
        <pt x="612" y="678" on="1"/>
        <pt x="209" y="678" on="1"/>
        <pt x="145" y="379" on="1"/>
        <pt x="498" y="379" on="1"/>
        <pt x="491" y="347" on="1"/>
        <pt x="138" y="347" on="1"/>
        <pt x="71" y="32" on="1"/>
        <pt x="483" y="32" on="1"/>
        <pt x="477" y="0" on="1"/>
        <pt x="30" y="0" on="1"/>
      </contour>
    </TTGlyph>
    <TTGlyph name="Edotaccent" xMin="30" yMin="0" xMax="619" yMax="918">
      <contour>
        <pt x="181" y="710" on="1"/>
        <pt x="619" y="710" on="1"/>
        <pt x="612" y="678" on="1"/>
        <pt x="209" y="678" on="1"/>
        <pt x="145" y="379" on="1"/>
        <pt x="498" y="379" on="1"/>
        <pt x="491" y="347" on="1"/>
        <pt x="138" y="347" on="1"/>
        <pt x="71" y="32" on="1"/>
        <pt x="483" y="32" on="1"/>
        <pt x="477" y="0" on="1"/>
        <pt x="30" y="0" on="1"/>
      </contour>
      <contour>
        <pt x="413" y="835" on="1"/>
        <pt x="431" y="918" on="1"/>
        <pt x="463" y="918" on="1"/>
        <pt x="446" y="835" on="1"/>
      </contour>
    </TTGlyph>
    <TTGlyph name="Edotbelow" xMin="30" yMin="-138" xMax="619" yMax="710">
      <contour>
        <pt x="181" y="710" on="1"/>
        <pt x="619" y="710" on="1"/>
        <pt x="612" y="678" on="1"/>
        <pt x="209" y="678" on="1"/>
        <pt x="145" y="379" on="1"/>
        <pt x="498" y="379" on="1"/>
        <pt x="491" y="347" on="1"/>
        <pt x="138" y="347" on="1"/>
        <pt x="71" y="32" on="1"/>
        <pt x="483" y="32" on="1"/>
        <pt x="477" y="0" on="1"/>
        <pt x="30" y="0" on="1"/>
      </contour>
      <contour>
        <pt x="207" y="-138" on="1"/>
        <pt x="224" y="-55" on="1"/>
        <pt x="256" y="-55" on="1"/>
        <pt x="239" y="-138" on="1"/>
      </contour>
    </TTGlyph>
    <TTGlyph name="Egrave" xMin="30" yMin="0" xMax="619" yMax="918">
      <contour>
        <pt x="181" y="710" on="1"/>
        <pt x="619" y="710" on="1"/>
        <pt x="612" y="678" on="1"/>
        <pt x="209" y="678" on="1"/>
        <pt x="145" y="379" on="1"/>
        <pt x="498" y="379" on="1"/>
        <pt x="491" y="347" on="1"/>
        <pt x="138" y="347" on="1"/>
        <pt x="71" y="32" on="1"/>
        <pt x="483" y="32" on="1"/>
        <pt x="477" y="0" on="1"/>
        <pt x="30" y="0" on="1"/>
      </contour>
      <contour>
        <pt x="364" y="918" on="1"/>
        <pt x="408" y="918" on="1"/>
        <pt x="451" y="839" on="1"/>
        <pt x="424" y="826" on="1"/>
      </contour>
    </TTGlyph>
    <TTGlyph name="Einvertedbreve" xMin="30" yMin="0" xMax="619" yMax="918">
      <contour>
        <pt x="352" y="834" on="1"/>
        <pt x="355" y="850" on="0"/>
        <pt x="373" y="881" on="0"/>
        <pt x="398" y="904" on="0"/>
        <pt x="429" y="918" on="0"/>
        <pt x="447" y="918" on="1"/>
        <pt x="478" y="918" on="0"/>
        <pt x="509" y="877" on="0"/>
        <pt x="509" y="851" on="1"/>
        <pt x="509" y="846" on="0"/>
        <pt x="509" y="839" on="0"/>
        <pt x="508" y="834" on="1"/>
        <pt x="483" y="834" on="1"/>
        <pt x="485" y="844" on="0"/>
        <pt x="485" y="849" on="1"/>
        <pt x="485" y="896" on="0"/>
        <pt x="444" y="896" on="1"/>
        <pt x="418" y="896" on="0"/>
        <pt x="382" y="858" on="0"/>
        <pt x="377" y="834" on="1"/>
      </contour>
      <contour>
        <pt x="181" y="710" on="1"/>
        <pt x="619" y="710" on="1"/>
        <pt x="612" y="678" on="1"/>
        <pt x="209" y="678" on="1"/>
        <pt x="145" y="379" on="1"/>
        <pt x="498" y="379" on="1"/>
        <pt x="491" y="347" on="1"/>
        <pt x="138" y="347" on="1"/>
        <pt x="71" y="32" on="1"/>
        <pt x="483" y="32" on="1"/>
        <pt x="477" y="0" on="1"/>
        <pt x="30" y="0" on="1"/>
      </contour>
    </TTGlyph>
    <TTGlyph name="Emacron" xMin="30" yMin="0" xMax="619" yMax="895">
      <contour>
        <pt x="181" y="710" on="1"/>
        <pt x="619" y="710" on="1"/>
        <pt x="612" y="678" on="1"/>
        <pt x="209" y="678" on="1"/>
        <pt x="145" y="379" on="1"/>
        <pt x="498" y="379" on="1"/>
        <pt x="491" y="347" on="1"/>
        <pt x="138" y="347" on="1"/>
        <pt x="71" y="32" on="1"/>
        <pt x="483" y="32" on="1"/>
        <pt x="477" y="0" on="1"/>
        <pt x="30" y="0" on="1"/>
      </contour>
      <contour>
        <pt x="299" y="867" on="1"/>
        <pt x="304" y="895" on="1"/>
        <pt x="573" y="895" on="1"/>
        <pt x="567" y="867" on="1"/>
      </contour>
    </TTGlyph>
    <TTGlyph name="Eng" xMin="30" yMin="-173" xMax="733" yMax="710">
      <contour>
        <pt x="412" y="-173" on="1"/>
        <pt x="383" y="-173" on="0"/>
        <pt x="337" y="-158" on="0"/>
        <pt x="321" y="-138" on="1"/>
        <pt x="346" y="-116" on="1"/>
        <pt x="360" y="-131" on="0"/>
        <pt x="397" y="-141" on="0"/>
        <pt x="417" y="-141" on="1"/>
        <pt x="436" y="-141" on="0"/>
        <pt x="476" y="-124" on="0"/>
        <pt x="510" y="-95" on="0"/>
        <pt x="537" y="-56" on="0"/>
        <pt x="542" y="-33" on="1"/>
        <pt x="549" y="0" on="1"/>
        <pt x="202" y="644" on="1"/>
        <pt x="65" y="0" on="1"/>
        <pt x="30" y="0" on="1"/>
        <pt x="181" y="710" on="1"/>
        <pt x="207" y="710" on="1"/>
        <pt x="560" y="56" on="1"/>
        <pt x="699" y="709" on="1"/>
        <pt x="733" y="709" on="1"/>
        <pt x="576" y="-33" on="1"/>
        <pt x="569" y="-64" on="0"/>
        <pt x="535" y="-115" on="0"/>
        <pt x="489" y="-152" on="0"/>
        <pt x="436" y="-173" on="0"/>
      </contour>
    </TTGlyph>
    <TTGlyph name="Eogonek" xMin="30" yMin="-164" xMax="619" yMax="710">
      <contour>
        <pt x="181" y="710" on="1"/>
        <pt x="619" y="710" on="1"/>
        <pt x="612" y="678" on="1"/>
        <pt x="209" y="678" on="1"/>
        <pt x="145" y="379" on="1"/>
        <pt x="498" y="379" on="1"/>
        <pt x="491" y="347" on="1"/>
        <pt x="138" y="347" on="1"/>
        <pt x="71" y="32" on="1"/>
        <pt x="483" y="32" on="1"/>
        <pt x="477" y="0" on="1"/>
        <pt x="279" y="0" on="1"/>
        <pt x="250" y="-18" on="0"/>
        <pt x="212" y="-45" on="0"/>
        <pt x="189" y="-69" on="0"/>
        <pt x="180" y="-92" on="0"/>
        <pt x="180" y="-104" on="1"/>
        <pt x="180" y="-134" on="0"/>
        <pt x="216" y="-141" on="1"/>
        <pt x="197" y="-164" on="1"/>
        <pt x="175" y="-158" on="0"/>
        <pt x="153" y="-130" on="0"/>
        <pt x="153" y="-111" on="1"/>
        <pt x="153" y="-84" on="0"/>
        <pt x="193" y="-33" on="0"/>
        <pt x="244" y="0" on="1"/>
        <pt x="30" y="0" on="1"/>
      </contour>
    </TTGlyph>
    <TTGlyph name="Eth" xMin="37" yMin="0" xMax="663" yMax="710">
      <contour>
        <pt x="52" y="372" on="1"/>
        <pt x="116" y="372" on="1"/>
        <pt x="188" y="710" on="1"/>
        <pt x="409" y="710" on="1"/>
        <pt x="474" y="710" on="0"/>
        <pt x="570" y="668" on="0"/>
        <pt x="633" y="595" on="0"/>
        <pt x="663" y="496" on="0"/>
        <pt x="663" y="439" on="1"/>
        <pt x="663" y="345" on="0"/>
        <pt x="602" y="184" on="0"/>
        <pt x="494" y="67" on="0"/>
        <pt x="346" y="0" on="0"/>
        <pt x="258" y="0" on="1"/>
        <pt x="37" y="0" on="1"/>
        <pt x="109" y="342" on="1"/>
        <pt x="46" y="342" on="1"/>
      </contour>
      <contour>
        <pt x="265" y="32" on="1"/>
        <pt x="350" y="32" on="0"/>
        <pt x="484" y="98" on="0"/>
        <pt x="578" y="209" on="0"/>
        <pt x="628" y="354" on="0"/>
        <pt x="628" y="433" on="1"/>
        <pt x="628" y="487" on="0"/>
        <pt x="600" y="577" on="0"/>
        <pt x="543" y="642" on="0"/>
        <pt x="458" y="678" on="0"/>
        <pt x="402" y="678" on="1"/>
        <pt x="216" y="678" on="1"/>
        <pt x="150" y="372" on="1"/>
        <pt x="326" y="372" on="1"/>
        <pt x="320" y="342" on="1"/>
        <pt x="144" y="342" on="1"/>
        <pt x="78" y="32" on="1"/>
      </contour>
    </TTGlyph>
    <TTGlyph name="Etilde" xMin="30" yMin="0" xMax="619" yMax="918">
      <contour>
        <pt x="181" y="710" on="1"/>
        <pt x="619" y="710" on="1"/>
        <pt x="612" y="678" on="1"/>
        <pt x="209" y="678" on="1"/>
        <pt x="145" y="379" on="1"/>
        <pt x="498" y="379" on="1"/>
        <pt x="491" y="347" on="1"/>
        <pt x="138" y="347" on="1"/>
        <pt x="71" y="32" on="1"/>
        <pt x="483" y="32" on="1"/>
        <pt x="477" y="0" on="1"/>
        <pt x="30" y="0" on="1"/>
      </contour>
      <contour>
        <pt x="477" y="844" on="1"/>
        <pt x="456" y="844" on="0"/>
        <pt x="427" y="856" on="0"/>
        <pt x="403" y="870" on="0"/>
        <pt x="381" y="882" on="0"/>
        <pt x="366" y="882" on="1"/>
        <pt x="351" y="882" on="0"/>
        <pt x="329" y="869" on="0"/>
        <pt x="315" y="852" on="0"/>
        <pt x="308" y="836" on="0"/>
        <pt x="307" y="834" on="1"/>
        <pt x="282" y="834" on="1"/>
        <pt x="282" y="837" on="0"/>
        <pt x="292" y="862" on="0"/>
        <pt x="314" y="888" on="0"/>
        <pt x="348" y="909" on="0"/>
        <pt x="373" y="909" on="1"/>
        <pt x="392" y="909" on="0"/>
        <pt x="418" y="897" on="0"/>
        <pt x="441" y="882" on="0"/>
        <pt x="466" y="870" on="0"/>
        <pt x="484" y="870" on="1"/>
        <pt x="503" y="870" on="0"/>
        <pt x="528" y="884" on="0"/>
        <pt x="543" y="901" on="0"/>
        <pt x="550" y="916" on="0"/>
        <pt x="550" y="918" on="1"/>
        <pt x="575" y="918" on="1"/>
        <pt x="574" y="914" on="0"/>
        <pt x="564" y="890" on="0"/>
        <pt x="541" y="864" on="0"/>
        <pt x="504" y="844" on="0"/>
      </contour>
    </TTGlyph>
    <TTGlyph name="Euro" xMin="29" yMin="-6" xMax="760" yMax="714">
      <contour>
        <pt x="160" y="405" on="1"/>
        <pt x="178" y="465" on="0"/>
        <pt x="250" y="577" on="0"/>
        <pt x="350" y="662" on="0"/>
        <pt x="474" y="714" on="0"/>
        <pt x="545" y="714" on="1"/>
        <pt x="590" y="714" on="0"/>
        <pt x="662" y="691" on="0"/>
        <pt x="716" y="650" on="0"/>
        <pt x="752" y="593" on="0"/>
        <pt x="760" y="559" on="1"/>
        <pt x="727" y="545" on="1"/>
        <pt x="716" y="583" on="0"/>
        <pt x="677" y="635" on="0"/>
        <pt x="626" y="667" on="0"/>
        <pt x="566" y="681" on="0"/>
        <pt x="535" y="681" on="1"/>
        <pt x="473" y="681" on="0"/>
        <pt x="364" y="635" on="0"/>
        <pt x="276" y="558" on="0"/>
        <pt x="212" y="459" on="0"/>
        <pt x="195" y="405" on="1"/>
        <pt x="556" y="405" on="1"/>
        <pt x="538" y="379" on="1"/>
        <pt x="188" y="379" on="1"/>
        <pt x="178" y="342" on="0"/>
        <pt x="177" y="311" on="1"/>
        <pt x="499" y="311" on="1"/>
        <pt x="481" y="284" on="1"/>
        <pt x="177" y="284" on="1"/>
        <pt x="178" y="231" on="0"/>
        <pt x="211" y="138" on="0"/>
        <pt x="268" y="68" on="0"/>
        <pt x="348" y="27" on="0"/>
        <pt x="398" y="27" on="1"/>
        <pt x="430" y="27" on="0"/>
        <pt x="500" y="44" on="0"/>
        <pt x="570" y="79" on="0"/>
        <pt x="636" y="133" on="0"/>
        <pt x="663" y="171" on="1"/>
        <pt x="690" y="159" on="1"/>
        <pt x="664" y="119" on="0"/>
        <pt x="593" y="57" on="0"/>
        <pt x="511" y="15" on="0"/>
        <pt x="426" y="-6" on="0"/>
        <pt x="387" y="-6" on="1"/>
        <pt x="330" y="-6" on="0"/>
        <pt x="240" y="42" on="0"/>
        <pt x="178" y="123" on="0"/>
        <pt x="144" y="228" on="0"/>
        <pt x="143" y="284" on="1"/>
        <pt x="29" y="284" on="1"/>
        <pt x="47" y="311" on="1"/>
        <pt x="143" y="311" on="1"/>
        <pt x="144" y="328" on="0"/>
        <pt x="149" y="362" on="0"/>
        <pt x="153" y="379" on="1"/>
        <pt x="84" y="379" on="1"/>
        <pt x="101" y="405" on="1"/>
      </contour>
    </TTGlyph>
    <TTGlyph name="F" xMin="30" yMin="0" xMax="618" yMax="710">
      <contour>
        <pt x="181" y="710" on="1"/>
        <pt x="618" y="710" on="1"/>
        <pt x="611" y="678" on="1"/>
        <pt x="209" y="678" on="1"/>
        <pt x="146" y="378" on="1"/>
        <pt x="487" y="378" on="1"/>
        <pt x="481" y="347" on="1"/>
        <pt x="138" y="347" on="1"/>
        <pt x="65" y="0" on="1"/>
        <pt x="30" y="0" on="1"/>
      </contour>
    </TTGlyph>
    <TTGlyph name="F.sc" xMin="26" yMin="0" xMax="503" yMax="542">
      <contour>
        <pt x="141" y="542" on="1"/>
        <pt x="503" y="542" on="1"/>
        <pt x="496" y="512" on="1"/>
        <pt x="167" y="512" on="1"/>
        <pt x="120" y="291" on="1"/>
        <pt x="400" y="291" on="1"/>
        <pt x="394" y="261" on="1"/>
        <pt x="113" y="261" on="1"/>
        <pt x="58" y="0" on="1"/>
        <pt x="26" y="0" on="1"/>
      </contour>
    </TTGlyph>
    <TTGlyph name="G" xMin="51" yMin="-5" xMax="669" yMax="715">
      <contour>
        <pt x="559" y="116" on="1"/>
        <pt x="434" y="-5" on="0"/>
        <pt x="300" y="-5" on="1"/>
        <pt x="240" y="-5" on="0"/>
        <pt x="148" y="45" on="0"/>
        <pt x="84" y="128" on="0"/>
        <pt x="51" y="235" on="0"/>
        <pt x="51" y="292" on="1"/>
        <pt x="51" y="370" on="0"/>
        <pt x="116" y="522" on="0"/>
        <pt x="225" y="641" on="0"/>
        <pt x="367" y="715" on="0"/>
        <pt x="444" y="715" on="1"/>
        <pt x="495" y="715" on="0"/>
        <pt x="572" y="692" on="0"/>
        <pt x="626" y="651" on="0"/>
        <pt x="660" y="594" on="0"/>
        <pt x="669" y="560" on="1"/>
        <pt x="636" y="545" on="1"/>
        <pt x="615" y="618" on="0"/>
        <pt x="512" y="682" on="0"/>
        <pt x="436" y="682" on="1"/>
        <pt x="364" y="682" on="0"/>
        <pt x="236" y="612" on="0"/>
        <pt x="140" y="501" on="0"/>
        <pt x="85" y="362" on="0"/>
        <pt x="85" y="294" on="1"/>
        <pt x="85" y="240" on="0"/>
        <pt x="117" y="143" on="0"/>
        <pt x="175" y="71" on="0"/>
        <pt x="257" y="28" on="0"/>
        <pt x="308" y="28" on="1"/>
        <pt x="372" y="28" on="0"/>
        <pt x="499" y="90" on="0"/>
        <pt x="568" y="157" on="1"/>
        <pt x="601" y="311" on="1"/>
        <pt x="446" y="311" on="1"/>
        <pt x="452" y="341" on="1"/>
        <pt x="639" y="341" on="1"/>
        <pt x="566" y="0" on="1"/>
        <pt x="535" y="0" on="1"/>
      </contour>
    </TTGlyph>
    <TTGlyph name="G.alt" xMin="51" yMin="-5" xMax="683" yMax="715">
      <contour>
        <pt x="298" y="-5" on="1"/>
        <pt x="239" y="-5" on="0"/>
        <pt x="148" y="43" on="0"/>
        <pt x="84" y="124" on="0"/>
        <pt x="51" y="231" on="0"/>
        <pt x="51" y="289" on="1"/>
        <pt x="51" y="370" on="0"/>
        <pt x="118" y="523" on="0"/>
        <pt x="230" y="642" on="0"/>
        <pt x="375" y="715" on="0"/>
        <pt x="452" y="715" on="1"/>
        <pt x="536" y="715" on="0"/>
        <pt x="649" y="628" on="0"/>
        <pt x="675" y="559" on="1"/>
        <pt x="645" y="536" on="1"/>
        <pt x="634" y="567" on="0"/>
        <pt x="596" y="621" on="0"/>
        <pt x="545" y="660" on="0"/>
        <pt x="481" y="682" on="0"/>
        <pt x="443" y="682" on="1"/>
        <pt x="371" y="682" on="0"/>
        <pt x="241" y="612" on="0"/>
        <pt x="143" y="500" on="0"/>
        <pt x="85" y="361" on="0"/>
        <pt x="85" y="291" on="1"/>
        <pt x="85" y="239" on="0"/>
        <pt x="115" y="144" on="0"/>
        <pt x="171" y="71" on="0"/>
        <pt x="253" y="28" on="0"/>
        <pt x="305" y="28" on="1"/>
        <pt x="361" y="28" on="0"/>
        <pt x="465" y="74" on="0"/>
        <pt x="553" y="150" on="0"/>
        <pt x="620" y="249" on="0"/>
        <pt x="638" y="302" on="1"/>
        <pt x="416" y="302" on="1"/>
        <pt x="423" y="335" on="1"/>
        <pt x="683" y="335" on="1"/>
        <pt x="682" y="330" on="0"/>
        <pt x="677" y="314" on="0"/>
        <pt x="675" y="308" on="1"/>
        <pt x="655" y="246" on="0"/>
        <pt x="579" y="133" on="0"/>
        <pt x="479" y="46" on="0"/>
        <pt x="361" y="-5" on="0"/>
      </contour>
    </TTGlyph>
    <TTGlyph name="G.sc" xMin="38" yMin="-4" xMax="546" yMax="545">
      <contour>
        <pt x="457" y="86" on="1"/>
        <pt x="357" y="-4" on="0"/>
        <pt x="247" y="-4" on="1"/>
        <pt x="197" y="-4" on="0"/>
        <pt x="120" y="35" on="0"/>
        <pt x="66" y="99" on="0"/>
        <pt x="38" y="182" on="0"/>
        <pt x="38" y="226" on="1"/>
        <pt x="38" y="286" on="0"/>
        <pt x="90" y="400" on="0"/>
        <pt x="178" y="490" on="0"/>
        <pt x="294" y="545" on="0"/>
        <pt x="358" y="545" on="1"/>
        <pt x="400" y="545" on="0"/>
        <pt x="463" y="528" on="0"/>
        <pt x="508" y="496" on="0"/>
        <pt x="538" y="453" on="0"/>
        <pt x="546" y="428" on="1"/>
        <pt x="515" y="412" on="1"/>
        <pt x="498" y="467" on="0"/>
        <pt x="411" y="516" on="0"/>
        <pt x="351" y="516" on="1"/>
        <pt x="292" y="516" on="0"/>
        <pt x="190" y="464" on="0"/>
        <pt x="115" y="382" on="0"/>
        <pt x="71" y="280" on="0"/>
        <pt x="71" y="229" on="1"/>
        <pt x="71" y="188" on="0"/>
        <pt x="97" y="114" on="0"/>
        <pt x="145" y="59" on="0"/>
        <pt x="213" y="27" on="0"/>
        <pt x="255" y="27" on="1"/>
        <pt x="307" y="27" on="0"/>
        <pt x="411" y="73" on="0"/>
        <pt x="465" y="123" on="1"/>
        <pt x="489" y="234" on="1"/>
        <pt x="362" y="234" on="1"/>
        <pt x="367" y="262" on="1"/>
        <pt x="525" y="262" on="1"/>
        <pt x="469" y="0" on="1"/>
        <pt x="439" y="0" on="1"/>
      </contour>
    </TTGlyph>
    <TTGlyph name="Gacute" xMin="51" yMin="-5" xMax="669" yMax="918">
      <contour>
        <pt x="456" y="826" on="1"/>
        <pt x="435" y="839" on="1"/>
        <pt x="511" y="918" on="1"/>
        <pt x="555" y="918" on="1"/>
      </contour>
      <contour>
        <pt x="559" y="116" on="1"/>
        <pt x="434" y="-5" on="0"/>
        <pt x="300" y="-5" on="1"/>
        <pt x="240" y="-5" on="0"/>
        <pt x="148" y="45" on="0"/>
        <pt x="84" y="128" on="0"/>
        <pt x="51" y="235" on="0"/>
        <pt x="51" y="292" on="1"/>
        <pt x="51" y="370" on="0"/>
        <pt x="116" y="522" on="0"/>
        <pt x="225" y="641" on="0"/>
        <pt x="367" y="715" on="0"/>
        <pt x="444" y="715" on="1"/>
        <pt x="495" y="715" on="0"/>
        <pt x="572" y="692" on="0"/>
        <pt x="626" y="651" on="0"/>
        <pt x="660" y="594" on="0"/>
        <pt x="669" y="560" on="1"/>
        <pt x="636" y="545" on="1"/>
        <pt x="615" y="618" on="0"/>
        <pt x="512" y="682" on="0"/>
        <pt x="436" y="682" on="1"/>
        <pt x="364" y="682" on="0"/>
        <pt x="236" y="612" on="0"/>
        <pt x="140" y="501" on="0"/>
        <pt x="85" y="362" on="0"/>
        <pt x="85" y="294" on="1"/>
        <pt x="85" y="240" on="0"/>
        <pt x="117" y="143" on="0"/>
        <pt x="175" y="71" on="0"/>
        <pt x="257" y="28" on="0"/>
        <pt x="308" y="28" on="1"/>
        <pt x="372" y="28" on="0"/>
        <pt x="499" y="90" on="0"/>
        <pt x="568" y="157" on="1"/>
        <pt x="601" y="311" on="1"/>
        <pt x="446" y="311" on="1"/>
        <pt x="452" y="341" on="1"/>
        <pt x="639" y="341" on="1"/>
        <pt x="566" y="0" on="1"/>
        <pt x="535" y="0" on="1"/>
      </contour>
    </TTGlyph>
    <TTGlyph name="Gbreve" xMin="51" yMin="-5" xMax="669" yMax="918">
      <contour>
        <pt x="559" y="116" on="1"/>
        <pt x="434" y="-5" on="0"/>
        <pt x="300" y="-5" on="1"/>
        <pt x="240" y="-5" on="0"/>
        <pt x="148" y="45" on="0"/>
        <pt x="84" y="128" on="0"/>
        <pt x="51" y="235" on="0"/>
        <pt x="51" y="292" on="1"/>
        <pt x="51" y="370" on="0"/>
        <pt x="116" y="522" on="0"/>
        <pt x="225" y="641" on="0"/>
        <pt x="367" y="715" on="0"/>
        <pt x="444" y="715" on="1"/>
        <pt x="495" y="715" on="0"/>
        <pt x="572" y="692" on="0"/>
        <pt x="626" y="651" on="0"/>
        <pt x="660" y="594" on="0"/>
        <pt x="669" y="560" on="1"/>
        <pt x="636" y="545" on="1"/>
        <pt x="615" y="618" on="0"/>
        <pt x="512" y="682" on="0"/>
        <pt x="436" y="682" on="1"/>
        <pt x="364" y="682" on="0"/>
        <pt x="236" y="612" on="0"/>
        <pt x="140" y="501" on="0"/>
        <pt x="85" y="362" on="0"/>
        <pt x="85" y="294" on="1"/>
        <pt x="85" y="240" on="0"/>
        <pt x="117" y="143" on="0"/>
        <pt x="175" y="71" on="0"/>
        <pt x="257" y="28" on="0"/>
        <pt x="308" y="28" on="1"/>
        <pt x="372" y="28" on="0"/>
        <pt x="499" y="90" on="0"/>
        <pt x="568" y="157" on="1"/>
        <pt x="601" y="311" on="1"/>
        <pt x="446" y="311" on="1"/>
        <pt x="452" y="341" on="1"/>
        <pt x="639" y="341" on="1"/>
        <pt x="566" y="0" on="1"/>
        <pt x="535" y="0" on="1"/>
      </contour>
      <contour>
        <pt x="469" y="856" on="1"/>
        <pt x="489" y="856" on="0"/>
        <pt x="528" y="892" on="0"/>
        <pt x="536" y="918" on="1"/>
        <pt x="560" y="918" on="1"/>
        <pt x="556" y="901" on="0"/>
        <pt x="537" y="870" on="0"/>
        <pt x="511" y="847" on="0"/>
        <pt x="480" y="834" on="0"/>
        <pt x="465" y="834" on="1"/>
        <pt x="437" y="834" on="0"/>
        <pt x="402" y="872" on="0"/>
        <pt x="402" y="901" on="1"/>
        <pt x="402" y="906" on="0"/>
        <pt x="403" y="913" on="0"/>
        <pt x="404" y="918" on="1"/>
        <pt x="430" y="918" on="1"/>
        <pt x="428" y="910" on="0"/>
        <pt x="428" y="906" on="1"/>
        <pt x="428" y="886" on="0"/>
        <pt x="451" y="856" on="0"/>
      </contour>
    </TTGlyph>
    <TTGlyph name="Gcircumflex" xMin="51" yMin="-5" xMax="669" yMax="918">
      <contour>
        <pt x="368" y="841" on="1"/>
        <pt x="474" y="918" on="1"/>
        <pt x="500" y="918" on="1"/>
        <pt x="574" y="841" on="1"/>
        <pt x="549" y="826" on="1"/>
        <pt x="481" y="889" on="1"/>
        <pt x="387" y="826" on="1"/>
      </contour>
      <contour>
        <pt x="559" y="116" on="1"/>
        <pt x="434" y="-5" on="0"/>
        <pt x="300" y="-5" on="1"/>
        <pt x="240" y="-5" on="0"/>
        <pt x="148" y="45" on="0"/>
        <pt x="84" y="128" on="0"/>
        <pt x="51" y="235" on="0"/>
        <pt x="51" y="292" on="1"/>
        <pt x="51" y="370" on="0"/>
        <pt x="116" y="522" on="0"/>
        <pt x="225" y="641" on="0"/>
        <pt x="367" y="715" on="0"/>
        <pt x="444" y="715" on="1"/>
        <pt x="495" y="715" on="0"/>
        <pt x="572" y="692" on="0"/>
        <pt x="626" y="651" on="0"/>
        <pt x="660" y="594" on="0"/>
        <pt x="669" y="560" on="1"/>
        <pt x="636" y="545" on="1"/>
        <pt x="615" y="618" on="0"/>
        <pt x="512" y="682" on="0"/>
        <pt x="436" y="682" on="1"/>
        <pt x="364" y="682" on="0"/>
        <pt x="236" y="612" on="0"/>
        <pt x="140" y="501" on="0"/>
        <pt x="85" y="362" on="0"/>
        <pt x="85" y="294" on="1"/>
        <pt x="85" y="240" on="0"/>
        <pt x="117" y="143" on="0"/>
        <pt x="175" y="71" on="0"/>
        <pt x="257" y="28" on="0"/>
        <pt x="308" y="28" on="1"/>
        <pt x="372" y="28" on="0"/>
        <pt x="499" y="90" on="0"/>
        <pt x="568" y="157" on="1"/>
        <pt x="601" y="311" on="1"/>
        <pt x="446" y="311" on="1"/>
        <pt x="452" y="341" on="1"/>
        <pt x="639" y="341" on="1"/>
        <pt x="566" y="0" on="1"/>
        <pt x="535" y="0" on="1"/>
      </contour>
    </TTGlyph>
    <TTGlyph name="Gcommaaccent" xMin="51" yMin="-176" xMax="669" yMax="715">
      <contour>
        <pt x="238" y="-176" on="1"/>
        <pt x="263" y="-114" on="1"/>
        <pt x="251" y="-114" on="1"/>
        <pt x="265" y="-50" on="1"/>
        <pt x="301" y="-50" on="1"/>
        <pt x="287" y="-114" on="1"/>
        <pt x="258" y="-176" on="1"/>
      </contour>
      <contour>
        <pt x="559" y="116" on="1"/>
        <pt x="434" y="-5" on="0"/>
        <pt x="300" y="-5" on="1"/>
        <pt x="240" y="-5" on="0"/>
        <pt x="148" y="45" on="0"/>
        <pt x="84" y="128" on="0"/>
        <pt x="51" y="235" on="0"/>
        <pt x="51" y="292" on="1"/>
        <pt x="51" y="370" on="0"/>
        <pt x="116" y="522" on="0"/>
        <pt x="225" y="641" on="0"/>
        <pt x="367" y="715" on="0"/>
        <pt x="444" y="715" on="1"/>
        <pt x="495" y="715" on="0"/>
        <pt x="572" y="692" on="0"/>
        <pt x="626" y="651" on="0"/>
        <pt x="660" y="594" on="0"/>
        <pt x="669" y="560" on="1"/>
        <pt x="636" y="545" on="1"/>
        <pt x="615" y="618" on="0"/>
        <pt x="512" y="682" on="0"/>
        <pt x="436" y="682" on="1"/>
        <pt x="364" y="682" on="0"/>
        <pt x="236" y="612" on="0"/>
        <pt x="140" y="501" on="0"/>
        <pt x="85" y="362" on="0"/>
        <pt x="85" y="294" on="1"/>
        <pt x="85" y="240" on="0"/>
        <pt x="117" y="143" on="0"/>
        <pt x="175" y="71" on="0"/>
        <pt x="257" y="28" on="0"/>
        <pt x="308" y="28" on="1"/>
        <pt x="372" y="28" on="0"/>
        <pt x="499" y="90" on="0"/>
        <pt x="568" y="157" on="1"/>
        <pt x="601" y="311" on="1"/>
        <pt x="446" y="311" on="1"/>
        <pt x="452" y="341" on="1"/>
        <pt x="639" y="341" on="1"/>
        <pt x="566" y="0" on="1"/>
        <pt x="535" y="0" on="1"/>
      </contour>
    </TTGlyph>
    <TTGlyph name="Gdotaccent" xMin="51" yMin="-5" xMax="669" yMax="918">
      <contour>
        <pt x="559" y="116" on="1"/>
        <pt x="434" y="-5" on="0"/>
        <pt x="300" y="-5" on="1"/>
        <pt x="240" y="-5" on="0"/>
        <pt x="148" y="45" on="0"/>
        <pt x="84" y="128" on="0"/>
        <pt x="51" y="235" on="0"/>
        <pt x="51" y="292" on="1"/>
        <pt x="51" y="370" on="0"/>
        <pt x="116" y="522" on="0"/>
        <pt x="225" y="641" on="0"/>
        <pt x="367" y="715" on="0"/>
        <pt x="444" y="715" on="1"/>
        <pt x="495" y="715" on="0"/>
        <pt x="572" y="692" on="0"/>
        <pt x="626" y="651" on="0"/>
        <pt x="660" y="594" on="0"/>
        <pt x="669" y="560" on="1"/>
        <pt x="636" y="545" on="1"/>
        <pt x="615" y="618" on="0"/>
        <pt x="512" y="682" on="0"/>
        <pt x="436" y="682" on="1"/>
        <pt x="364" y="682" on="0"/>
        <pt x="236" y="612" on="0"/>
        <pt x="140" y="501" on="0"/>
        <pt x="85" y="362" on="0"/>
        <pt x="85" y="294" on="1"/>
        <pt x="85" y="240" on="0"/>
        <pt x="117" y="143" on="0"/>
        <pt x="175" y="71" on="0"/>
        <pt x="257" y="28" on="0"/>
        <pt x="308" y="28" on="1"/>
        <pt x="372" y="28" on="0"/>
        <pt x="499" y="90" on="0"/>
        <pt x="568" y="157" on="1"/>
        <pt x="601" y="311" on="1"/>
        <pt x="446" y="311" on="1"/>
        <pt x="452" y="341" on="1"/>
        <pt x="639" y="341" on="1"/>
        <pt x="566" y="0" on="1"/>
        <pt x="535" y="0" on="1"/>
      </contour>
      <contour>
        <pt x="455" y="835" on="1"/>
        <pt x="473" y="918" on="1"/>
        <pt x="505" y="918" on="1"/>
        <pt x="488" y="835" on="1"/>
      </contour>
    </TTGlyph>
    <TTGlyph name="H" xMin="30" yMin="0" xMax="696" yMax="710">
      <contour>
        <pt x="181" y="710" on="1"/>
        <pt x="216" y="710" on="1"/>
        <pt x="145" y="379" on="1"/>
        <pt x="591" y="379" on="1"/>
        <pt x="662" y="710" on="1"/>
        <pt x="696" y="710" on="1"/>
        <pt x="545" y="0" on="1"/>
        <pt x="511" y="0" on="1"/>
        <pt x="585" y="347" on="1"/>
        <pt x="138" y="347" on="1"/>
        <pt x="65" y="0" on="1"/>
        <pt x="30" y="0" on="1"/>
      </contour>
    </TTGlyph>
    <TTGlyph name="H.sc" xMin="26" yMin="0" xMax="569" yMax="542">
      <contour>
        <pt x="141" y="542" on="1"/>
        <pt x="174" y="542" on="1"/>
        <pt x="120" y="293" on="1"/>
        <pt x="484" y="293" on="1"/>
        <pt x="537" y="542" on="1"/>
        <pt x="569" y="542" on="1"/>
        <pt x="454" y="0" on="1"/>
        <pt x="422" y="0" on="1"/>
        <pt x="477" y="262" on="1"/>
        <pt x="113" y="262" on="1"/>
        <pt x="58" y="0" on="1"/>
        <pt x="26" y="0" on="1"/>
      </contour>
    </TTGlyph>
    <TTGlyph name="Hbar" xMin="35" yMin="0" xMax="720" yMax="710">
      <contour>
        <pt x="111" y="578" on="1"/>
        <pt x="158" y="578" on="1"/>
        <pt x="186" y="710" on="1"/>
        <pt x="220" y="710" on="1"/>
        <pt x="192" y="578" on="1"/>
        <pt x="638" y="578" on="1"/>
        <pt x="666" y="710" on="1"/>
        <pt x="701" y="710" on="1"/>
        <pt x="673" y="578" on="1"/>
        <pt x="720" y="578" on="1"/>
        <pt x="714" y="553" on="1"/>
        <pt x="667" y="553" on="1"/>
        <pt x="550" y="0" on="1"/>
        <pt x="515" y="0" on="1"/>
        <pt x="589" y="347" on="1"/>
        <pt x="143" y="347" on="1"/>
        <pt x="69" y="0" on="1"/>
        <pt x="35" y="0" on="1"/>
        <pt x="152" y="553" on="1"/>
        <pt x="105" y="553" on="1"/>
      </contour>
      <contour>
        <pt x="596" y="379" on="1"/>
        <pt x="633" y="553" on="1"/>
        <pt x="186" y="553" on="1"/>
        <pt x="150" y="379" on="1"/>
      </contour>
    </TTGlyph>
    <TTGlyph name="Hcircumflex" xMin="30" yMin="0" xMax="696" yMax="918">
      <contour>
        <pt x="363" y="841" on="1"/>
        <pt x="469" y="918" on="1"/>
        <pt x="495" y="918" on="1"/>
        <pt x="569" y="841" on="1"/>
        <pt x="544" y="826" on="1"/>
        <pt x="476" y="889" on="1"/>
        <pt x="382" y="826" on="1"/>
      </contour>
      <contour>
        <pt x="181" y="710" on="1"/>
        <pt x="216" y="710" on="1"/>
        <pt x="145" y="379" on="1"/>
        <pt x="591" y="379" on="1"/>
        <pt x="662" y="710" on="1"/>
        <pt x="696" y="710" on="1"/>
        <pt x="545" y="0" on="1"/>
        <pt x="511" y="0" on="1"/>
        <pt x="585" y="347" on="1"/>
        <pt x="138" y="347" on="1"/>
        <pt x="65" y="0" on="1"/>
        <pt x="30" y="0" on="1"/>
      </contour>
    </TTGlyph>
    <TTGlyph name="Hdotbelow" xMin="30" yMin="-138" xMax="696" yMax="710">
      <contour>
        <pt x="181" y="710" on="1"/>
        <pt x="216" y="710" on="1"/>
        <pt x="145" y="379" on="1"/>
        <pt x="591" y="379" on="1"/>
        <pt x="662" y="710" on="1"/>
        <pt x="696" y="710" on="1"/>
        <pt x="545" y="0" on="1"/>
        <pt x="511" y="0" on="1"/>
        <pt x="585" y="347" on="1"/>
        <pt x="138" y="347" on="1"/>
        <pt x="65" y="0" on="1"/>
        <pt x="30" y="0" on="1"/>
      </contour>
      <contour>
        <pt x="243" y="-138" on="1"/>
        <pt x="260" y="-55" on="1"/>
        <pt x="292" y="-55" on="1"/>
        <pt x="275" y="-138" on="1"/>
      </contour>
    </TTGlyph>
    <TTGlyph name="I" xMin="30" yMin="0" xMax="216" yMax="709">
      <contour>
        <pt x="181" y="709" on="1"/>
        <pt x="216" y="709" on="1"/>
        <pt x="65" y="0" on="1"/>
        <pt x="30" y="0" on="1"/>
      </contour>
    </TTGlyph>
    <TTGlyph name="I.sc" xMin="26" yMin="0" xMax="173" yMax="541">
      <contour>
        <pt x="141" y="541" on="1"/>
        <pt x="173" y="541" on="1"/>
        <pt x="58" y="0" on="1"/>
        <pt x="26" y="0" on="1"/>
      </contour>
    </TTGlyph>
    <TTGlyph name="IJ" xMin="30" yMin="-11" xMax="686" yMax="709">
      <contour>
        <pt x="181" y="709" on="1"/>
        <pt x="216" y="709" on="1"/>
        <pt x="65" y="0" on="1"/>
        <pt x="30" y="0" on="1"/>
      </contour>
      <contour>
        <pt x="327" y="-11" on="1"/>
        <pt x="242" y="-11" on="0"/>
        <pt x="190" y="33" on="1"/>
        <pt x="208" y="61" on="1"/>
        <pt x="252" y="22" on="0"/>
        <pt x="333" y="22" on="1"/>
        <pt x="391" y="22" on="0"/>
        <pt x="468" y="66" on="0"/>
        <pt x="522" y="150" on="0"/>
        <pt x="558" y="272" on="0"/>
        <pt x="575" y="349" on="1"/>
        <pt x="652" y="709" on="1"/>
        <pt x="686" y="709" on="1"/>
        <pt x="609" y="349" on="1"/>
        <pt x="592" y="268" on="0"/>
        <pt x="551" y="135" on="0"/>
        <pt x="488" y="41" on="0"/>
        <pt x="396" y="-11" on="0"/>
      </contour>
    </TTGlyph>
    <TTGlyph name="Iacute" xMin="30" yMin="0" xMax="312" yMax="918">
      <contour>
        <pt x="181" y="709" on="1"/>
        <pt x="216" y="709" on="1"/>
        <pt x="65" y="0" on="1"/>
        <pt x="30" y="0" on="1"/>
      </contour>
      <contour>
        <pt x="213" y="826" on="1"/>
        <pt x="192" y="839" on="1"/>
        <pt x="268" y="918" on="1"/>
        <pt x="312" y="918" on="1"/>
      </contour>
    </TTGlyph>
    <TTGlyph name="Ibreve" xMin="30" yMin="0" xMax="310" yMax="918">
      <contour>
        <pt x="181" y="709" on="1"/>
        <pt x="216" y="709" on="1"/>
        <pt x="65" y="0" on="1"/>
        <pt x="30" y="0" on="1"/>
      </contour>
      <contour>
        <pt x="219" y="856" on="1"/>
        <pt x="239" y="856" on="0"/>
        <pt x="278" y="892" on="0"/>
        <pt x="286" y="918" on="1"/>
        <pt x="310" y="918" on="1"/>
        <pt x="306" y="901" on="0"/>
        <pt x="287" y="870" on="0"/>
        <pt x="261" y="847" on="0"/>
        <pt x="230" y="834" on="0"/>
        <pt x="215" y="834" on="1"/>
        <pt x="187" y="834" on="0"/>
        <pt x="152" y="872" on="0"/>
        <pt x="152" y="901" on="1"/>
        <pt x="152" y="906" on="0"/>
        <pt x="153" y="913" on="0"/>
        <pt x="154" y="918" on="1"/>
        <pt x="180" y="918" on="1"/>
        <pt x="178" y="910" on="0"/>
        <pt x="178" y="906" on="1"/>
        <pt x="178" y="886" on="0"/>
        <pt x="201" y="856" on="0"/>
      </contour>
    </TTGlyph>
    <TTGlyph name="Icircumflex" xMin="30" yMin="0" xMax="329" yMax="918">
      <contour>
        <pt x="181" y="709" on="1"/>
        <pt x="216" y="709" on="1"/>
        <pt x="65" y="0" on="1"/>
        <pt x="30" y="0" on="1"/>
      </contour>
      <contour>
        <pt x="123" y="841" on="1"/>
        <pt x="229" y="918" on="1"/>
        <pt x="255" y="918" on="1"/>
        <pt x="329" y="841" on="1"/>
        <pt x="304" y="826" on="1"/>
        <pt x="236" y="889" on="1"/>
        <pt x="142" y="826" on="1"/>
      </contour>
    </TTGlyph>
    <TTGlyph name="Idblgrave" xMin="30" yMin="0" xMax="309" yMax="918">
      <contour>
        <pt x="181" y="709" on="1"/>
        <pt x="216" y="709" on="1"/>
        <pt x="65" y="0" on="1"/>
        <pt x="30" y="0" on="1"/>
      </contour>
      <contour>
        <pt x="225" y="918" on="1"/>
        <pt x="266" y="918" on="1"/>
        <pt x="309" y="839" on="1"/>
        <pt x="283" y="826" on="1"/>
      </contour>
      <contour>
        <pt x="122" y="918" on="1"/>
        <pt x="163" y="918" on="1"/>
        <pt x="205" y="839" on="1"/>
        <pt x="181" y="826" on="1"/>
      </contour>
    </TTGlyph>
    <TTGlyph name="Idieresis" xMin="30" yMin="0" xMax="315" yMax="917">
      <contour>
        <pt x="181" y="709" on="1"/>
        <pt x="216" y="709" on="1"/>
        <pt x="65" y="0" on="1"/>
        <pt x="30" y="0" on="1"/>
      </contour>
      <contour>
        <pt x="147" y="835" on="1"/>
        <pt x="164" y="917" on="1"/>
        <pt x="195" y="917" on="1"/>
        <pt x="178" y="835" on="1"/>
      </contour>
      <contour>
        <pt x="267" y="835" on="1"/>
        <pt x="284" y="917" on="1"/>
        <pt x="315" y="917" on="1"/>
        <pt x="298" y="835" on="1"/>
      </contour>
    </TTGlyph>
    <TTGlyph name="Idotaccent" xMin="30" yMin="0" xMax="257" yMax="918">
      <contour>
        <pt x="181" y="709" on="1"/>
        <pt x="216" y="709" on="1"/>
        <pt x="65" y="0" on="1"/>
        <pt x="30" y="0" on="1"/>
      </contour>
      <contour>
        <pt x="207" y="835" on="1"/>
        <pt x="225" y="918" on="1"/>
        <pt x="257" y="918" on="1"/>
        <pt x="240" y="835" on="1"/>
      </contour>
    </TTGlyph>
    <TTGlyph name="Idotbelow" xMin="2" yMin="-138" xMax="216" yMax="709">
      <contour>
        <pt x="181" y="709" on="1"/>
        <pt x="216" y="709" on="1"/>
        <pt x="65" y="0" on="1"/>
        <pt x="30" y="0" on="1"/>
      </contour>
      <contour>
        <pt x="2" y="-138" on="1"/>
        <pt x="19" y="-55" on="1"/>
        <pt x="51" y="-55" on="1"/>
        <pt x="34" y="-138" on="1"/>
      </contour>
    </TTGlyph>
    <TTGlyph name="Igrave" xMin="30" yMin="0" xMax="247" yMax="918">
      <contour>
        <pt x="181" y="709" on="1"/>
        <pt x="216" y="709" on="1"/>
        <pt x="65" y="0" on="1"/>
        <pt x="30" y="0" on="1"/>
      </contour>
      <contour>
        <pt x="160" y="918" on="1"/>
        <pt x="204" y="918" on="1"/>
        <pt x="247" y="839" on="1"/>
        <pt x="220" y="826" on="1"/>
      </contour>
    </TTGlyph>
    <TTGlyph name="Iinvertedbreve" xMin="30" yMin="0" xMax="308" yMax="918">
      <contour>
        <pt x="181" y="709" on="1"/>
        <pt x="216" y="709" on="1"/>
        <pt x="65" y="0" on="1"/>
        <pt x="30" y="0" on="1"/>
      </contour>
      <contour>
        <pt x="151" y="834" on="1"/>
        <pt x="154" y="850" on="0"/>
        <pt x="172" y="881" on="0"/>
        <pt x="197" y="904" on="0"/>
        <pt x="228" y="918" on="0"/>
        <pt x="246" y="918" on="1"/>
        <pt x="277" y="918" on="0"/>
        <pt x="308" y="877" on="0"/>
        <pt x="308" y="851" on="1"/>
        <pt x="308" y="846" on="0"/>
        <pt x="308" y="839" on="0"/>
        <pt x="307" y="834" on="1"/>
        <pt x="282" y="834" on="1"/>
        <pt x="284" y="844" on="0"/>
        <pt x="284" y="849" on="1"/>
        <pt x="284" y="896" on="0"/>
        <pt x="243" y="896" on="1"/>
        <pt x="217" y="896" on="0"/>
        <pt x="181" y="858" on="0"/>
        <pt x="176" y="834" on="1"/>
      </contour>
    </TTGlyph>
    <TTGlyph name="Imacron" xMin="30" yMin="0" xMax="371" yMax="895">
      <contour>
        <pt x="181" y="709" on="1"/>
        <pt x="216" y="709" on="1"/>
        <pt x="65" y="0" on="1"/>
        <pt x="30" y="0" on="1"/>
      </contour>
      <contour>
        <pt x="97" y="867" on="1"/>
        <pt x="102" y="895" on="1"/>
        <pt x="371" y="895" on="1"/>
        <pt x="365" y="867" on="1"/>
      </contour>
    </TTGlyph>
    <TTGlyph name="Iogonek" xMin="-60" yMin="-164" xMax="217" yMax="709">
      <contour>
        <pt x="-16" y="-164" on="1"/>
        <pt x="-38" y="-158" on="0"/>
        <pt x="-60" y="-130" on="0"/>
        <pt x="-60" y="-111" on="1"/>
        <pt x="-60" y="-84" on="0"/>
        <pt x="-19" y="-33" on="0"/>
        <pt x="31" y="0" on="1"/>
        <pt x="182" y="709" on="1"/>
        <pt x="217" y="709" on="1"/>
        <pt x="66" y="0" on="1"/>
        <pt x="37" y="-18" on="0"/>
        <pt x="-1" y="-45" on="0"/>
        <pt x="-24" y="-69" on="0"/>
        <pt x="-33" y="-92" on="0"/>
        <pt x="-33" y="-104" on="1"/>
        <pt x="-33" y="-134" on="0"/>
        <pt x="3" y="-141" on="1"/>
        <pt x="-16" y="-164" on="1"/>
      </contour>
    </TTGlyph>
    <TTGlyph name="Itilde" xMin="30" yMin="0" xMax="377" yMax="918">
      <contour>
        <pt x="181" y="709" on="1"/>
        <pt x="216" y="709" on="1"/>
        <pt x="65" y="0" on="1"/>
        <pt x="30" y="0" on="1"/>
      </contour>
      <contour>
        <pt x="279" y="844" on="1"/>
        <pt x="258" y="844" on="0"/>
        <pt x="229" y="856" on="0"/>
        <pt x="205" y="870" on="0"/>
        <pt x="183" y="882" on="0"/>
        <pt x="168" y="882" on="1"/>
        <pt x="153" y="882" on="0"/>
        <pt x="131" y="869" on="0"/>
        <pt x="117" y="852" on="0"/>
        <pt x="110" y="836" on="0"/>
        <pt x="109" y="834" on="1"/>
        <pt x="84" y="834" on="1"/>
        <pt x="84" y="837" on="0"/>
        <pt x="94" y="862" on="0"/>
        <pt x="116" y="888" on="0"/>
        <pt x="150" y="909" on="0"/>
        <pt x="175" y="909" on="1"/>
        <pt x="194" y="909" on="0"/>
        <pt x="220" y="897" on="0"/>
        <pt x="243" y="882" on="0"/>
        <pt x="268" y="870" on="0"/>
        <pt x="286" y="870" on="1"/>
        <pt x="305" y="870" on="0"/>
        <pt x="330" y="884" on="0"/>
        <pt x="345" y="901" on="0"/>
        <pt x="352" y="916" on="0"/>
        <pt x="352" y="918" on="1"/>
        <pt x="377" y="918" on="1"/>
        <pt x="376" y="914" on="0"/>
        <pt x="366" y="890" on="0"/>
        <pt x="343" y="864" on="0"/>
        <pt x="306" y="844" on="0"/>
      </contour>
    </TTGlyph>
    <TTGlyph name="J" xMin="-33" yMin="-11" xMax="463" yMax="709">
      <contour>
        <pt x="104" y="-11" on="1"/>
        <pt x="19" y="-11" on="0"/>
        <pt x="-33" y="33" on="1"/>
        <pt x="-15" y="61" on="1"/>
        <pt x="29" y="22" on="0"/>
        <pt x="110" y="22" on="1"/>
        <pt x="168" y="22" on="0"/>
        <pt x="245" y="66" on="0"/>
        <pt x="299" y="150" on="0"/>
        <pt x="335" y="272" on="0"/>
        <pt x="352" y="349" on="1"/>
        <pt x="429" y="709" on="1"/>
        <pt x="463" y="709" on="1"/>
        <pt x="386" y="349" on="1"/>
        <pt x="369" y="268" on="0"/>
        <pt x="328" y="135" on="0"/>
        <pt x="265" y="41" on="0"/>
        <pt x="173" y="-11" on="0"/>
      </contour>
    </TTGlyph>
    <TTGlyph name="J.sc" xMin="-29" yMin="-8" xMax="375" yMax="541">
      <contour>
        <pt x="85" y="-8" on="1"/>
        <pt x="13" y="-8" on="0"/>
        <pt x="-29" y="25" on="1"/>
        <pt x="-12" y="51" on="1"/>
        <pt x="5" y="38" on="0"/>
        <pt x="58" y="22" on="0"/>
        <pt x="91" y="22" on="1"/>
        <pt x="138" y="22" on="0"/>
        <pt x="201" y="55" on="0"/>
        <pt x="244" y="118" on="0"/>
        <pt x="272" y="208" on="0"/>
        <pt x="284" y="266" on="1"/>
        <pt x="342" y="541" on="1"/>
        <pt x="375" y="541" on="1"/>
        <pt x="316" y="266" on="1"/>
        <pt x="303" y="204" on="0"/>
        <pt x="270" y="103" on="0"/>
        <pt x="219" y="31" on="0"/>
        <pt x="142" y="-8" on="0"/>
      </contour>
    </TTGlyph>
    <TTGlyph name="Jcircumflex" xMin="-33" yMin="-11" xMax="573" yMax="918">
      <contour>
        <pt x="367" y="841" on="1"/>
        <pt x="473" y="918" on="1"/>
        <pt x="499" y="918" on="1"/>
        <pt x="573" y="841" on="1"/>
        <pt x="548" y="826" on="1"/>
        <pt x="480" y="889" on="1"/>
        <pt x="386" y="826" on="1"/>
      </contour>
      <contour>
        <pt x="104" y="-11" on="1"/>
        <pt x="19" y="-11" on="0"/>
        <pt x="-33" y="33" on="1"/>
        <pt x="-15" y="61" on="1"/>
        <pt x="29" y="22" on="0"/>
        <pt x="110" y="22" on="1"/>
        <pt x="168" y="22" on="0"/>
        <pt x="245" y="66" on="0"/>
        <pt x="299" y="150" on="0"/>
        <pt x="335" y="272" on="0"/>
        <pt x="352" y="349" on="1"/>
        <pt x="429" y="709" on="1"/>
        <pt x="463" y="709" on="1"/>
        <pt x="386" y="349" on="1"/>
        <pt x="369" y="268" on="0"/>
        <pt x="328" y="135" on="0"/>
        <pt x="265" y="41" on="0"/>
        <pt x="173" y="-11" on="0"/>
      </contour>
    </TTGlyph>
    <TTGlyph name="K" xMin="30" yMin="0" xMax="669" yMax="710">
      <contour>
        <pt x="181" y="709" on="1"/>
        <pt x="216" y="709" on="1"/>
        <pt x="121" y="263" on="1"/>
        <pt x="626" y="710" on="1"/>
        <pt x="669" y="710" on="1"/>
        <pt x="319" y="399" on="1"/>
        <pt x="531" y="0" on="1"/>
        <pt x="490" y="0" on="1"/>
        <pt x="291" y="378" on="1"/>
        <pt x="112" y="220" on="1"/>
        <pt x="65" y="0" on="1"/>
        <pt x="30" y="0" on="1"/>
      </contour>
    </TTGlyph>
    <TTGlyph name="K.sc" xMin="26" yMin="0" xMax="548" yMax="542">
      <contour>
        <pt x="141" y="541" on="1"/>
        <pt x="173" y="541" on="1"/>
        <pt x="102" y="207" on="1"/>
        <pt x="508" y="542" on="1"/>
        <pt x="548" y="542" on="1"/>
        <pt x="263" y="305" on="1"/>
        <pt x="444" y="0" on="1"/>
        <pt x="406" y="0" on="1"/>
        <pt x="237" y="284" on="1"/>
        <pt x="94" y="168" on="1"/>
        <pt x="58" y="0" on="1"/>
        <pt x="26" y="0" on="1"/>
      </contour>
    </TTGlyph>
    <TTGlyph name="Kcommaaccent" xMin="30" yMin="-176" xMax="669" yMax="710">
      <contour>
        <pt x="188" y="-176" on="1"/>
        <pt x="213" y="-114" on="1"/>
        <pt x="201" y="-114" on="1"/>
        <pt x="215" y="-50" on="1"/>
        <pt x="251" y="-50" on="1"/>
        <pt x="237" y="-114" on="1"/>
        <pt x="208" y="-176" on="1"/>
      </contour>
      <contour>
        <pt x="181" y="709" on="1"/>
        <pt x="216" y="709" on="1"/>
        <pt x="121" y="263" on="1"/>
        <pt x="626" y="710" on="1"/>
        <pt x="669" y="710" on="1"/>
        <pt x="319" y="399" on="1"/>
        <pt x="531" y="0" on="1"/>
        <pt x="490" y="0" on="1"/>
        <pt x="291" y="378" on="1"/>
        <pt x="112" y="220" on="1"/>
        <pt x="65" y="0" on="1"/>
        <pt x="30" y="0" on="1"/>
      </contour>
    </TTGlyph>
    <TTGlyph name="L" xMin="30" yMin="0" xMax="484" yMax="710">
      <contour>
        <pt x="181" y="710" on="1"/>
        <pt x="216" y="710" on="1"/>
        <pt x="71" y="32" on="1"/>
        <pt x="484" y="32" on="1"/>
        <pt x="477" y="0" on="1"/>
        <pt x="30" y="0" on="1"/>
      </contour>
    </TTGlyph>
    <TTGlyph name="L.sc" xMin="26" yMin="0" xMax="399" yMax="542">
      <contour>
        <pt x="141" y="542" on="1"/>
        <pt x="174" y="542" on="1"/>
        <pt x="65" y="30" on="1"/>
        <pt x="399" y="30" on="1"/>
        <pt x="393" y="0" on="1"/>
        <pt x="26" y="0" on="1"/>
      </contour>
    </TTGlyph>
    <TTGlyph name="Lacute" xMin="30" yMin="0" xMax="484" yMax="918">
      <contour>
        <pt x="219" y="826" on="1"/>
        <pt x="198" y="839" on="1"/>
        <pt x="274" y="918" on="1"/>
        <pt x="318" y="918" on="1"/>
      </contour>
      <contour>
        <pt x="181" y="710" on="1"/>
        <pt x="216" y="710" on="1"/>
        <pt x="71" y="32" on="1"/>
        <pt x="484" y="32" on="1"/>
        <pt x="477" y="0" on="1"/>
        <pt x="30" y="0" on="1"/>
      </contour>
    </TTGlyph>
    <TTGlyph name="Lcaron" xMin="30" yMin="0" xMax="484" yMax="730">
      <contour>
        <pt x="268" y="651" on="1"/>
        <pt x="344" y="730" on="1"/>
        <pt x="388" y="730" on="1"/>
        <pt x="289" y="638" on="1"/>
      </contour>
      <contour>
        <pt x="181" y="710" on="1"/>
        <pt x="216" y="710" on="1"/>
        <pt x="71" y="32" on="1"/>
        <pt x="484" y="32" on="1"/>
        <pt x="477" y="0" on="1"/>
        <pt x="30" y="0" on="1"/>
      </contour>
    </TTGlyph>
    <TTGlyph name="Lcommaaccent" xMin="30" yMin="-176" xMax="484" yMax="710">
      <contour>
        <pt x="197" y="-176" on="1"/>
        <pt x="222" y="-114" on="1"/>
        <pt x="210" y="-114" on="1"/>
        <pt x="224" y="-50" on="1"/>
        <pt x="260" y="-50" on="1"/>
        <pt x="246" y="-114" on="1"/>
        <pt x="217" y="-176" on="1"/>
      </contour>
      <contour>
        <pt x="181" y="710" on="1"/>
        <pt x="216" y="710" on="1"/>
        <pt x="71" y="32" on="1"/>
        <pt x="484" y="32" on="1"/>
        <pt x="477" y="0" on="1"/>
        <pt x="30" y="0" on="1"/>
      </contour>
    </TTGlyph>
    <TTGlyph name="Ldot" xMin="30" yMin="0" xMax="484" yMax="710">
      <contour>
        <pt x="181" y="710" on="1"/>
        <pt x="216" y="710" on="1"/>
        <pt x="71" y="32" on="1"/>
        <pt x="484" y="32" on="1"/>
        <pt x="477" y="0" on="1"/>
        <pt x="30" y="0" on="1"/>
      </contour>
      <contour>
        <pt x="333" y="357" on="1"/>
        <pt x="352" y="448" on="1"/>
        <pt x="383" y="448" on="1"/>
        <pt x="364" y="357" on="1"/>
      </contour>
    </TTGlyph>
    <TTGlyph name="Lslash" xMin="16" yMin="0" xMax="492" yMax="710">
      <contour>
        <pt x="16" y="246" on="1"/>
        <pt x="106" y="320" on="1"/>
        <pt x="189" y="710" on="1"/>
        <pt x="224" y="710" on="1"/>
        <pt x="148" y="354" on="1"/>
        <pt x="352" y="521" on="1"/>
        <pt x="363" y="499" on="1"/>
        <pt x="139" y="315" on="1"/>
        <pt x="79" y="32" on="1"/>
        <pt x="492" y="32" on="1"/>
        <pt x="485" y="0" on="1"/>
        <pt x="38" y="0" on="1"/>
        <pt x="98" y="281" on="1"/>
        <pt x="27" y="223" on="1"/>
      </contour>
    </TTGlyph>
    <TTGlyph name="M" xMin="30" yMin="0" xMax="837" yMax="710">
      <contour>
        <pt x="181" y="710" on="1"/>
        <pt x="214" y="710" on="1"/>
        <pt x="397" y="181" on="1"/>
        <pt x="805" y="710" on="1"/>
        <pt x="837" y="710" on="1"/>
        <pt x="686" y="0" on="1"/>
        <pt x="652" y="0" on="1"/>
        <pt x="788" y="642" on="1"/>
        <pt x="399" y="138" on="1"/>
        <pt x="376" y="138" on="1"/>
        <pt x="202" y="642" on="1"/>
        <pt x="65" y="0" on="1"/>
        <pt x="30" y="0" on="1"/>
      </contour>
    </TTGlyph>
    <TTGlyph name="M.sc" xMin="26" yMin="0" xMax="684" yMax="542">
      <contour>
        <pt x="141" y="542" on="1"/>
        <pt x="172" y="542" on="1"/>
        <pt x="329" y="146" on="1"/>
        <pt x="653" y="542" on="1"/>
        <pt x="684" y="542" on="1"/>
        <pt x="569" y="0" on="1"/>
        <pt x="537" y="0" on="1"/>
        <pt x="638" y="480" on="1"/>
        <pt x="330" y="104" on="1"/>
        <pt x="309" y="104" on="1"/>
        <pt x="160" y="480" on="1"/>
        <pt x="58" y="0" on="1"/>
        <pt x="26" y="0" on="1"/>
      </contour>
    </TTGlyph>
    <TTGlyph name="N" xMin="30" yMin="0" xMax="735" yMax="710">
      <contour>
        <pt x="181" y="710" on="1"/>
        <pt x="208" y="710" on="1"/>
        <pt x="562" y="55" on="1"/>
        <pt x="700" y="709" on="1"/>
        <pt x="735" y="709" on="1"/>
        <pt x="584" y="0" on="1"/>
        <pt x="551" y="0" on="1"/>
        <pt x="202" y="644" on="1"/>
        <pt x="65" y="0" on="1"/>
        <pt x="30" y="0" on="1"/>
      </contour>
    </TTGlyph>
    <TTGlyph name="N.sc" xMin="26" yMin="0" xMax="600" yMax="542">
      <contour>
        <pt x="141" y="542" on="1"/>
        <pt x="166" y="542" on="1"/>
        <pt x="465" y="54" on="1"/>
        <pt x="568" y="541" on="1"/>
        <pt x="600" y="541" on="1"/>
        <pt x="486" y="0" on="1"/>
        <pt x="454" y="0" on="1"/>
        <pt x="160" y="481" on="1"/>
        <pt x="58" y="0" on="1"/>
        <pt x="26" y="0" on="1"/>
      </contour>
    </TTGlyph>
    <TTGlyph name="Nacute" xMin="30" yMin="0" xMax="735" yMax="918">
      <contour>
        <pt x="478" y="826" on="1"/>
        <pt x="457" y="839" on="1"/>
        <pt x="533" y="918" on="1"/>
        <pt x="577" y="918" on="1"/>
      </contour>
      <contour>
        <pt x="181" y="710" on="1"/>
        <pt x="208" y="710" on="1"/>
        <pt x="562" y="55" on="1"/>
        <pt x="700" y="709" on="1"/>
        <pt x="735" y="709" on="1"/>
        <pt x="584" y="0" on="1"/>
        <pt x="551" y="0" on="1"/>
        <pt x="202" y="644" on="1"/>
        <pt x="65" y="0" on="1"/>
        <pt x="30" y="0" on="1"/>
      </contour>
    </TTGlyph>
    <TTGlyph name="Ncaron" xMin="30" yMin="0" xMax="735" yMax="918">
      <contour>
        <pt x="397" y="904" on="1"/>
        <pt x="422" y="918" on="1"/>
        <pt x="490" y="855" on="1"/>
        <pt x="584" y="918" on="1"/>
        <pt x="603" y="904" on="1"/>
        <pt x="496" y="826" on="1"/>
        <pt x="470" y="826" on="1"/>
      </contour>
      <contour>
        <pt x="181" y="710" on="1"/>
        <pt x="208" y="710" on="1"/>
        <pt x="562" y="55" on="1"/>
        <pt x="700" y="709" on="1"/>
        <pt x="735" y="709" on="1"/>
        <pt x="584" y="0" on="1"/>
        <pt x="551" y="0" on="1"/>
        <pt x="202" y="644" on="1"/>
        <pt x="65" y="0" on="1"/>
        <pt x="30" y="0" on="1"/>
      </contour>
    </TTGlyph>
    <TTGlyph name="Ncommaaccent" xMin="30" yMin="-176" xMax="735" yMax="710">
      <contour>
        <pt x="258" y="-176" on="1"/>
        <pt x="283" y="-114" on="1"/>
        <pt x="271" y="-114" on="1"/>
        <pt x="285" y="-50" on="1"/>
        <pt x="321" y="-50" on="1"/>
        <pt x="307" y="-114" on="1"/>
        <pt x="278" y="-176" on="1"/>
      </contour>
      <contour>
        <pt x="181" y="710" on="1"/>
        <pt x="208" y="710" on="1"/>
        <pt x="562" y="55" on="1"/>
        <pt x="700" y="709" on="1"/>
        <pt x="735" y="709" on="1"/>
        <pt x="584" y="0" on="1"/>
        <pt x="551" y="0" on="1"/>
        <pt x="202" y="644" on="1"/>
        <pt x="65" y="0" on="1"/>
        <pt x="30" y="0" on="1"/>
      </contour>
    </TTGlyph>
    <TTGlyph name="Ndotaccent" xMin="30" yMin="0" xMax="735" yMax="918">
      <contour>
        <pt x="476" y="835" on="1"/>
        <pt x="494" y="918" on="1"/>
        <pt x="526" y="918" on="1"/>
        <pt x="509" y="835" on="1"/>
      </contour>
      <contour>
        <pt x="181" y="710" on="1"/>
        <pt x="208" y="710" on="1"/>
        <pt x="562" y="55" on="1"/>
        <pt x="700" y="709" on="1"/>
        <pt x="735" y="709" on="1"/>
        <pt x="584" y="0" on="1"/>
        <pt x="551" y="0" on="1"/>
        <pt x="202" y="644" on="1"/>
        <pt x="65" y="0" on="1"/>
        <pt x="30" y="0" on="1"/>
      </contour>
    </TTGlyph>
    <TTGlyph name="Ntilde" xMin="30" yMin="0" xMax="735" yMax="918">
      <contour>
        <pt x="181" y="710" on="1"/>
        <pt x="208" y="710" on="1"/>
        <pt x="562" y="55" on="1"/>
        <pt x="700" y="709" on="1"/>
        <pt x="735" y="709" on="1"/>
        <pt x="584" y="0" on="1"/>
        <pt x="551" y="0" on="1"/>
        <pt x="202" y="644" on="1"/>
        <pt x="65" y="0" on="1"/>
        <pt x="30" y="0" on="1"/>
      </contour>
      <contour>
        <pt x="550" y="844" on="1"/>
        <pt x="529" y="844" on="0"/>
        <pt x="500" y="856" on="0"/>
        <pt x="476" y="870" on="0"/>
        <pt x="454" y="882" on="0"/>
        <pt x="439" y="882" on="1"/>
        <pt x="424" y="882" on="0"/>
        <pt x="402" y="869" on="0"/>
        <pt x="388" y="852" on="0"/>
        <pt x="381" y="836" on="0"/>
        <pt x="380" y="834" on="1"/>
        <pt x="355" y="834" on="1"/>
        <pt x="355" y="837" on="0"/>
        <pt x="365" y="862" on="0"/>
        <pt x="387" y="888" on="0"/>
        <pt x="421" y="909" on="0"/>
        <pt x="446" y="909" on="1"/>
        <pt x="465" y="909" on="0"/>
        <pt x="491" y="897" on="0"/>
        <pt x="514" y="882" on="0"/>
        <pt x="539" y="870" on="0"/>
        <pt x="557" y="870" on="1"/>
        <pt x="576" y="870" on="0"/>
        <pt x="601" y="884" on="0"/>
        <pt x="616" y="901" on="0"/>
        <pt x="623" y="916" on="0"/>
        <pt x="623" y="918" on="1"/>
        <pt x="648" y="918" on="1"/>
        <pt x="647" y="914" on="0"/>
        <pt x="637" y="890" on="0"/>
        <pt x="614" y="864" on="0"/>
        <pt x="577" y="844" on="0"/>
      </contour>
    </TTGlyph>
    <TTGlyph name="O" xMin="50" yMin="-5" xMax="697" yMax="715">
      <contour>
        <pt x="297" y="-5" on="1"/>
        <pt x="238" y="-5" on="0"/>
        <pt x="146" y="43" on="0"/>
        <pt x="83" y="124" on="0"/>
        <pt x="50" y="230" on="0"/>
        <pt x="50" y="287" on="1"/>
        <pt x="50" y="369" on="0"/>
        <pt x="118" y="523" on="0"/>
        <pt x="230" y="643" on="0"/>
        <pt x="374" y="715" on="0"/>
        <pt x="451" y="715" on="1"/>
        <pt x="510" y="715" on="0"/>
        <pt x="602" y="665" on="0"/>
        <pt x="665" y="583" on="0"/>
        <pt x="697" y="477" on="0"/>
        <pt x="697" y="421" on="1"/>
        <pt x="697" y="340" on="0"/>
        <pt x="629" y="186" on="0"/>
        <pt x="518" y="67" on="0"/>
        <pt x="373" y="-5" on="0"/>
      </contour>
      <contour>
        <pt x="305" y="28" on="1"/>
        <pt x="377" y="28" on="0"/>
        <pt x="507" y="98" on="0"/>
        <pt x="605" y="209" on="0"/>
        <pt x="663" y="349" on="0"/>
        <pt x="663" y="418" on="1"/>
        <pt x="663" y="471" on="0"/>
        <pt x="633" y="567" on="0"/>
        <pt x="576" y="639" on="0"/>
        <pt x="495" y="682" on="0"/>
        <pt x="444" y="682" on="1"/>
        <pt x="372" y="682" on="0"/>
        <pt x="241" y="612" on="0"/>
        <pt x="143" y="501" on="0"/>
        <pt x="85" y="361" on="0"/>
        <pt x="85" y="291" on="1"/>
        <pt x="85" y="238" on="0"/>
        <pt x="115" y="143" on="0"/>
        <pt x="171" y="71" on="0"/>
        <pt x="253" y="28" on="0"/>
      </contour>
    </TTGlyph>
    <TTGlyph name="O.sc" xMin="38" yMin="-4" xMax="571" yMax="545">
      <contour>
        <pt x="247" y="-4" on="1"/>
        <pt x="197" y="-4" on="0"/>
        <pt x="119" y="34" on="0"/>
        <pt x="66" y="97" on="0"/>
        <pt x="38" y="179" on="0"/>
        <pt x="38" y="223" on="1"/>
        <pt x="38" y="284" on="0"/>
        <pt x="93" y="400" on="0"/>
        <pt x="183" y="490" on="0"/>
        <pt x="301" y="545" on="0"/>
        <pt x="364" y="545" on="1"/>
        <pt x="414" y="545" on="0"/>
        <pt x="491" y="507" on="0"/>
        <pt x="544" y="443" on="0"/>
        <pt x="571" y="361" on="0"/>
        <pt x="571" y="317" on="1"/>
        <pt x="571" y="256" on="0"/>
        <pt x="517" y="140" on="0"/>
        <pt x="427" y="50" on="0"/>
        <pt x="310" y="-4" on="0"/>
      </contour>
      <contour>
        <pt x="254" y="27" on="1"/>
        <pt x="312" y="27" on="0"/>
        <pt x="416" y="78" on="0"/>
        <pt x="494" y="161" on="0"/>
        <pt x="539" y="263" on="0"/>
        <pt x="539" y="314" on="1"/>
        <pt x="539" y="354" on="0"/>
        <pt x="514" y="427" on="0"/>
        <pt x="466" y="482" on="0"/>
        <pt x="399" y="515" on="0"/>
        <pt x="357" y="515" on="1"/>
        <pt x="299" y="515" on="0"/>
        <pt x="195" y="464" on="0"/>
        <pt x="117" y="382" on="0"/>
        <pt x="71" y="279" on="0"/>
        <pt x="71" y="227" on="1"/>
        <pt x="71" y="187" on="0"/>
        <pt x="96" y="115" on="0"/>
        <pt x="143" y="60" on="0"/>
        <pt x="211" y="27" on="0"/>
      </contour>
    </TTGlyph>
    <TTGlyph name="OE" xMin="50" yMin="-5" xMax="1167" yMax="715">
      <contour>
        <pt x="300" y="-5" on="1"/>
        <pt x="240" y="-5" on="0"/>
        <pt x="147" y="44" on="0"/>
        <pt x="83" y="125" on="0"/>
        <pt x="50" y="231" on="0"/>
        <pt x="50" y="288" on="1"/>
        <pt x="50" y="369" on="0"/>
        <pt x="118" y="523" on="0"/>
        <pt x="230" y="643" on="0"/>
        <pt x="374" y="715" on="0"/>
        <pt x="451" y="715" on="1"/>
        <pt x="502" y="715" on="0"/>
        <pt x="583" y="680" on="0"/>
        <pt x="642" y="619" on="0"/>
        <pt x="678" y="537" on="0"/>
        <pt x="684" y="491" on="1"/>
        <pt x="730" y="710" on="1"/>
        <pt x="1167" y="710" on="1"/>
        <pt x="1159" y="678" on="1"/>
        <pt x="758" y="678" on="1"/>
        <pt x="695" y="379" on="1"/>
        <pt x="1045" y="379" on="1"/>
        <pt x="1037" y="347" on="1"/>
        <pt x="687" y="347" on="1"/>
        <pt x="621" y="32" on="1"/>
        <pt x="1030" y="32" on="1"/>
        <pt x="1024" y="0" on="1"/>
        <pt x="579" y="0" on="1"/>
        <pt x="626" y="218" on="1"/>
        <pt x="600" y="171" on="0"/>
        <pt x="528" y="90" on="0"/>
        <pt x="443" y="30" on="0"/>
        <pt x="348" y="-5" on="0"/>
      </contour>
      <contour>
        <pt x="305" y="28" on="1"/>
        <pt x="377" y="28" on="0"/>
        <pt x="507" y="98" on="0"/>
        <pt x="604" y="209" on="0"/>
        <pt x="662" y="349" on="0"/>
        <pt x="662" y="418" on="1"/>
        <pt x="662" y="471" on="0"/>
        <pt x="632" y="567" on="0"/>
        <pt x="576" y="639" on="0"/>
        <pt x="496" y="682" on="0"/>
        <pt x="445" y="682" on="1"/>
        <pt x="373" y="682" on="0"/>
        <pt x="242" y="612" on="0"/>
        <pt x="143" y="501" on="0"/>
        <pt x="85" y="361" on="0"/>
        <pt x="85" y="291" on="1"/>
        <pt x="85" y="238" on="0"/>
        <pt x="115" y="143" on="0"/>
        <pt x="171" y="71" on="0"/>
        <pt x="253" y="28" on="0"/>
      </contour>
    </TTGlyph>
    <TTGlyph name="Oacute" xMin="50" yMin="-5" xMax="697" yMax="918">
      <contour>
        <pt x="467" y="826" on="1"/>
        <pt x="446" y="839" on="1"/>
        <pt x="522" y="918" on="1"/>
        <pt x="566" y="918" on="1"/>
      </contour>
      <contour>
        <pt x="297" y="-5" on="1"/>
        <pt x="238" y="-5" on="0"/>
        <pt x="146" y="43" on="0"/>
        <pt x="83" y="124" on="0"/>
        <pt x="50" y="230" on="0"/>
        <pt x="50" y="287" on="1"/>
        <pt x="50" y="369" on="0"/>
        <pt x="118" y="523" on="0"/>
        <pt x="230" y="643" on="0"/>
        <pt x="374" y="715" on="0"/>
        <pt x="451" y="715" on="1"/>
        <pt x="510" y="715" on="0"/>
        <pt x="602" y="665" on="0"/>
        <pt x="665" y="583" on="0"/>
        <pt x="697" y="477" on="0"/>
        <pt x="697" y="421" on="1"/>
        <pt x="697" y="340" on="0"/>
        <pt x="629" y="186" on="0"/>
        <pt x="518" y="67" on="0"/>
        <pt x="373" y="-5" on="0"/>
      </contour>
      <contour>
        <pt x="305" y="28" on="1"/>
        <pt x="377" y="28" on="0"/>
        <pt x="507" y="98" on="0"/>
        <pt x="605" y="209" on="0"/>
        <pt x="663" y="349" on="0"/>
        <pt x="663" y="418" on="1"/>
        <pt x="663" y="471" on="0"/>
        <pt x="633" y="567" on="0"/>
        <pt x="576" y="639" on="0"/>
        <pt x="495" y="682" on="0"/>
        <pt x="444" y="682" on="1"/>
        <pt x="372" y="682" on="0"/>
        <pt x="241" y="612" on="0"/>
        <pt x="143" y="501" on="0"/>
        <pt x="85" y="361" on="0"/>
        <pt x="85" y="291" on="1"/>
        <pt x="85" y="238" on="0"/>
        <pt x="115" y="143" on="0"/>
        <pt x="171" y="71" on="0"/>
        <pt x="253" y="28" on="0"/>
      </contour>
    </TTGlyph>
    <TTGlyph name="Obreve" xMin="50" yMin="-5" xMax="697" yMax="918">
      <contour>
        <pt x="297" y="-5" on="1"/>
        <pt x="238" y="-5" on="0"/>
        <pt x="146" y="43" on="0"/>
        <pt x="83" y="124" on="0"/>
        <pt x="50" y="230" on="0"/>
        <pt x="50" y="287" on="1"/>
        <pt x="50" y="369" on="0"/>
        <pt x="118" y="523" on="0"/>
        <pt x="230" y="643" on="0"/>
        <pt x="374" y="715" on="0"/>
        <pt x="451" y="715" on="1"/>
        <pt x="510" y="715" on="0"/>
        <pt x="602" y="665" on="0"/>
        <pt x="665" y="583" on="0"/>
        <pt x="697" y="477" on="0"/>
        <pt x="697" y="421" on="1"/>
        <pt x="697" y="340" on="0"/>
        <pt x="629" y="186" on="0"/>
        <pt x="518" y="67" on="0"/>
        <pt x="373" y="-5" on="0"/>
      </contour>
      <contour>
        <pt x="305" y="28" on="1"/>
        <pt x="377" y="28" on="0"/>
        <pt x="507" y="98" on="0"/>
        <pt x="605" y="209" on="0"/>
        <pt x="663" y="349" on="0"/>
        <pt x="663" y="418" on="1"/>
        <pt x="663" y="471" on="0"/>
        <pt x="633" y="567" on="0"/>
        <pt x="576" y="639" on="0"/>
        <pt x="495" y="682" on="0"/>
        <pt x="444" y="682" on="1"/>
        <pt x="372" y="682" on="0"/>
        <pt x="241" y="612" on="0"/>
        <pt x="143" y="501" on="0"/>
        <pt x="85" y="361" on="0"/>
        <pt x="85" y="291" on="1"/>
        <pt x="85" y="238" on="0"/>
        <pt x="115" y="143" on="0"/>
        <pt x="171" y="71" on="0"/>
        <pt x="253" y="28" on="0"/>
      </contour>
      <contour>
        <pt x="474" y="856" on="1"/>
        <pt x="494" y="856" on="0"/>
        <pt x="533" y="892" on="0"/>
        <pt x="541" y="918" on="1"/>
        <pt x="565" y="918" on="1"/>
        <pt x="561" y="901" on="0"/>
        <pt x="542" y="870" on="0"/>
        <pt x="516" y="847" on="0"/>
        <pt x="485" y="834" on="0"/>
        <pt x="470" y="834" on="1"/>
        <pt x="442" y="834" on="0"/>
        <pt x="407" y="872" on="0"/>
        <pt x="407" y="901" on="1"/>
        <pt x="407" y="906" on="0"/>
        <pt x="408" y="913" on="0"/>
        <pt x="409" y="918" on="1"/>
        <pt x="435" y="918" on="1"/>
        <pt x="433" y="910" on="0"/>
        <pt x="433" y="906" on="1"/>
        <pt x="433" y="886" on="0"/>
        <pt x="456" y="856" on="0"/>
      </contour>
    </TTGlyph>
    <TTGlyph name="Ocircumflex" xMin="50" yMin="-5" xMax="697" yMax="918">
      <contour>
        <pt x="379" y="841" on="1"/>
        <pt x="485" y="918" on="1"/>
        <pt x="511" y="918" on="1"/>
        <pt x="585" y="841" on="1"/>
        <pt x="560" y="826" on="1"/>
        <pt x="492" y="889" on="1"/>
        <pt x="398" y="826" on="1"/>
      </contour>
      <contour>
        <pt x="297" y="-5" on="1"/>
        <pt x="238" y="-5" on="0"/>
        <pt x="146" y="43" on="0"/>
        <pt x="83" y="124" on="0"/>
        <pt x="50" y="230" on="0"/>
        <pt x="50" y="287" on="1"/>
        <pt x="50" y="369" on="0"/>
        <pt x="118" y="523" on="0"/>
        <pt x="230" y="643" on="0"/>
        <pt x="374" y="715" on="0"/>
        <pt x="451" y="715" on="1"/>
        <pt x="510" y="715" on="0"/>
        <pt x="602" y="665" on="0"/>
        <pt x="665" y="583" on="0"/>
        <pt x="697" y="477" on="0"/>
        <pt x="697" y="421" on="1"/>
        <pt x="697" y="340" on="0"/>
        <pt x="629" y="186" on="0"/>
        <pt x="518" y="67" on="0"/>
        <pt x="373" y="-5" on="0"/>
      </contour>
      <contour>
        <pt x="305" y="28" on="1"/>
        <pt x="377" y="28" on="0"/>
        <pt x="507" y="98" on="0"/>
        <pt x="605" y="209" on="0"/>
        <pt x="663" y="349" on="0"/>
        <pt x="663" y="418" on="1"/>
        <pt x="663" y="471" on="0"/>
        <pt x="633" y="567" on="0"/>
        <pt x="576" y="639" on="0"/>
        <pt x="495" y="682" on="0"/>
        <pt x="444" y="682" on="1"/>
        <pt x="372" y="682" on="0"/>
        <pt x="241" y="612" on="0"/>
        <pt x="143" y="501" on="0"/>
        <pt x="85" y="361" on="0"/>
        <pt x="85" y="291" on="1"/>
        <pt x="85" y="238" on="0"/>
        <pt x="115" y="143" on="0"/>
        <pt x="171" y="71" on="0"/>
        <pt x="253" y="28" on="0"/>
      </contour>
    </TTGlyph>
    <TTGlyph name="Odblgrave" xMin="50" yMin="-5" xMax="697" yMax="918">
      <contour>
        <pt x="486" y="918" on="1"/>
        <pt x="527" y="918" on="1"/>
        <pt x="570" y="839" on="1"/>
        <pt x="544" y="826" on="1"/>
      </contour>
      <contour>
        <pt x="383" y="918" on="1"/>
        <pt x="424" y="918" on="1"/>
        <pt x="466" y="839" on="1"/>
        <pt x="442" y="826" on="1"/>
      </contour>
      <contour>
        <pt x="297" y="-5" on="1"/>
        <pt x="238" y="-5" on="0"/>
        <pt x="146" y="43" on="0"/>
        <pt x="83" y="124" on="0"/>
        <pt x="50" y="230" on="0"/>
        <pt x="50" y="287" on="1"/>
        <pt x="50" y="369" on="0"/>
        <pt x="118" y="523" on="0"/>
        <pt x="230" y="643" on="0"/>
        <pt x="374" y="715" on="0"/>
        <pt x="451" y="715" on="1"/>
        <pt x="510" y="715" on="0"/>
        <pt x="602" y="665" on="0"/>
        <pt x="665" y="583" on="0"/>
        <pt x="697" y="477" on="0"/>
        <pt x="697" y="421" on="1"/>
        <pt x="697" y="340" on="0"/>
        <pt x="629" y="186" on="0"/>
        <pt x="518" y="67" on="0"/>
        <pt x="373" y="-5" on="0"/>
      </contour>
      <contour>
        <pt x="305" y="28" on="1"/>
        <pt x="377" y="28" on="0"/>
        <pt x="507" y="98" on="0"/>
        <pt x="605" y="209" on="0"/>
        <pt x="663" y="349" on="0"/>
        <pt x="663" y="418" on="1"/>
        <pt x="663" y="471" on="0"/>
        <pt x="633" y="567" on="0"/>
        <pt x="576" y="639" on="0"/>
        <pt x="495" y="682" on="0"/>
        <pt x="444" y="682" on="1"/>
        <pt x="372" y="682" on="0"/>
        <pt x="241" y="612" on="0"/>
        <pt x="143" y="501" on="0"/>
        <pt x="85" y="361" on="0"/>
        <pt x="85" y="291" on="1"/>
        <pt x="85" y="238" on="0"/>
        <pt x="115" y="143" on="0"/>
        <pt x="171" y="71" on="0"/>
        <pt x="253" y="28" on="0"/>
      </contour>
    </TTGlyph>
    <TTGlyph name="Odieresis" xMin="50" yMin="-5" xMax="697" yMax="917">
      <contour>
        <pt x="401" y="835" on="1"/>
        <pt x="418" y="917" on="1"/>
        <pt x="449" y="917" on="1"/>
        <pt x="432" y="835" on="1"/>
      </contour>
      <contour>
        <pt x="521" y="835" on="1"/>
        <pt x="538" y="917" on="1"/>
        <pt x="569" y="917" on="1"/>
        <pt x="552" y="835" on="1"/>
      </contour>
      <contour>
        <pt x="297" y="-5" on="1"/>
        <pt x="238" y="-5" on="0"/>
        <pt x="146" y="43" on="0"/>
        <pt x="83" y="124" on="0"/>
        <pt x="50" y="230" on="0"/>
        <pt x="50" y="287" on="1"/>
        <pt x="50" y="369" on="0"/>
        <pt x="118" y="523" on="0"/>
        <pt x="230" y="643" on="0"/>
        <pt x="374" y="715" on="0"/>
        <pt x="451" y="715" on="1"/>
        <pt x="510" y="715" on="0"/>
        <pt x="602" y="665" on="0"/>
        <pt x="665" y="583" on="0"/>
        <pt x="697" y="477" on="0"/>
        <pt x="697" y="421" on="1"/>
        <pt x="697" y="340" on="0"/>
        <pt x="629" y="186" on="0"/>
        <pt x="518" y="67" on="0"/>
        <pt x="373" y="-5" on="0"/>
      </contour>
      <contour>
        <pt x="305" y="28" on="1"/>
        <pt x="377" y="28" on="0"/>
        <pt x="507" y="98" on="0"/>
        <pt x="605" y="209" on="0"/>
        <pt x="663" y="349" on="0"/>
        <pt x="663" y="418" on="1"/>
        <pt x="663" y="471" on="0"/>
        <pt x="633" y="567" on="0"/>
        <pt x="576" y="639" on="0"/>
        <pt x="495" y="682" on="0"/>
        <pt x="444" y="682" on="1"/>
        <pt x="372" y="682" on="0"/>
        <pt x="241" y="612" on="0"/>
        <pt x="143" y="501" on="0"/>
        <pt x="85" y="361" on="0"/>
        <pt x="85" y="291" on="1"/>
        <pt x="85" y="238" on="0"/>
        <pt x="115" y="143" on="0"/>
        <pt x="171" y="71" on="0"/>
        <pt x="253" y="28" on="0"/>
      </contour>
    </TTGlyph>
    <TTGlyph name="Odotbelow" xMin="50" yMin="-138" xMax="697" yMax="715">
      <contour>
        <pt x="255" y="-138" on="1"/>
        <pt x="272" y="-55" on="1"/>
        <pt x="304" y="-55" on="1"/>
        <pt x="287" y="-138" on="1"/>
      </contour>
      <contour>
        <pt x="297" y="-5" on="1"/>
        <pt x="238" y="-5" on="0"/>
        <pt x="146" y="43" on="0"/>
        <pt x="83" y="124" on="0"/>
        <pt x="50" y="230" on="0"/>
        <pt x="50" y="287" on="1"/>
        <pt x="50" y="369" on="0"/>
        <pt x="118" y="523" on="0"/>
        <pt x="230" y="643" on="0"/>
        <pt x="374" y="715" on="0"/>
        <pt x="451" y="715" on="1"/>
        <pt x="510" y="715" on="0"/>
        <pt x="602" y="665" on="0"/>
        <pt x="665" y="583" on="0"/>
        <pt x="697" y="477" on="0"/>
        <pt x="697" y="421" on="1"/>
        <pt x="697" y="340" on="0"/>
        <pt x="629" y="186" on="0"/>
        <pt x="518" y="67" on="0"/>
        <pt x="373" y="-5" on="0"/>
      </contour>
      <contour>
        <pt x="305" y="28" on="1"/>
        <pt x="377" y="28" on="0"/>
        <pt x="507" y="98" on="0"/>
        <pt x="605" y="209" on="0"/>
        <pt x="663" y="349" on="0"/>
        <pt x="663" y="418" on="1"/>
        <pt x="663" y="471" on="0"/>
        <pt x="633" y="567" on="0"/>
        <pt x="576" y="639" on="0"/>
        <pt x="495" y="682" on="0"/>
        <pt x="444" y="682" on="1"/>
        <pt x="372" y="682" on="0"/>
        <pt x="241" y="612" on="0"/>
        <pt x="143" y="501" on="0"/>
        <pt x="85" y="361" on="0"/>
        <pt x="85" y="291" on="1"/>
        <pt x="85" y="238" on="0"/>
        <pt x="115" y="143" on="0"/>
        <pt x="171" y="71" on="0"/>
        <pt x="253" y="28" on="0"/>
      </contour>
    </TTGlyph>
    <TTGlyph name="Ograve" xMin="50" yMin="-5" xMax="697" yMax="918">
      <contour>
        <pt x="297" y="-5" on="1"/>
        <pt x="238" y="-5" on="0"/>
        <pt x="146" y="43" on="0"/>
        <pt x="83" y="124" on="0"/>
        <pt x="50" y="230" on="0"/>
        <pt x="50" y="287" on="1"/>
        <pt x="50" y="369" on="0"/>
        <pt x="118" y="523" on="0"/>
        <pt x="230" y="643" on="0"/>
        <pt x="374" y="715" on="0"/>
        <pt x="451" y="715" on="1"/>
        <pt x="510" y="715" on="0"/>
        <pt x="602" y="665" on="0"/>
        <pt x="665" y="583" on="0"/>
        <pt x="697" y="477" on="0"/>
        <pt x="697" y="421" on="1"/>
        <pt x="697" y="340" on="0"/>
        <pt x="629" y="186" on="0"/>
        <pt x="518" y="67" on="0"/>
        <pt x="373" y="-5" on="0"/>
      </contour>
      <contour>
        <pt x="305" y="28" on="1"/>
        <pt x="377" y="28" on="0"/>
        <pt x="507" y="98" on="0"/>
        <pt x="605" y="209" on="0"/>
        <pt x="663" y="349" on="0"/>
        <pt x="663" y="418" on="1"/>
        <pt x="663" y="471" on="0"/>
        <pt x="633" y="567" on="0"/>
        <pt x="576" y="639" on="0"/>
        <pt x="495" y="682" on="0"/>
        <pt x="444" y="682" on="1"/>
        <pt x="372" y="682" on="0"/>
        <pt x="241" y="612" on="0"/>
        <pt x="143" y="501" on="0"/>
        <pt x="85" y="361" on="0"/>
        <pt x="85" y="291" on="1"/>
        <pt x="85" y="238" on="0"/>
        <pt x="115" y="143" on="0"/>
        <pt x="171" y="71" on="0"/>
        <pt x="253" y="28" on="0"/>
      </contour>
      <contour>
        <pt x="424" y="918" on="1"/>
        <pt x="468" y="918" on="1"/>
        <pt x="511" y="839" on="1"/>
        <pt x="484" y="826" on="1"/>
      </contour>
    </TTGlyph>
    <TTGlyph name="Ohungarumlaut" xMin="50" yMin="-5" xMax="697" yMax="918">
      <contour>
        <pt x="399" y="826" on="1"/>
        <pt x="381" y="839" on="1"/>
        <pt x="456" y="918" on="1"/>
        <pt x="497" y="918" on="1"/>
      </contour>
      <contour>
        <pt x="503" y="826" on="1"/>
        <pt x="484" y="839" on="1"/>
        <pt x="559" y="918" on="1"/>
        <pt x="601" y="918" on="1"/>
      </contour>
      <contour>
        <pt x="297" y="-5" on="1"/>
        <pt x="238" y="-5" on="0"/>
        <pt x="146" y="43" on="0"/>
        <pt x="83" y="124" on="0"/>
        <pt x="50" y="230" on="0"/>
        <pt x="50" y="287" on="1"/>
        <pt x="50" y="369" on="0"/>
        <pt x="118" y="523" on="0"/>
        <pt x="230" y="643" on="0"/>
        <pt x="374" y="715" on="0"/>
        <pt x="451" y="715" on="1"/>
        <pt x="510" y="715" on="0"/>
        <pt x="602" y="665" on="0"/>
        <pt x="665" y="583" on="0"/>
        <pt x="697" y="477" on="0"/>
        <pt x="697" y="421" on="1"/>
        <pt x="697" y="340" on="0"/>
        <pt x="629" y="186" on="0"/>
        <pt x="518" y="67" on="0"/>
        <pt x="373" y="-5" on="0"/>
      </contour>
      <contour>
        <pt x="305" y="28" on="1"/>
        <pt x="377" y="28" on="0"/>
        <pt x="507" y="98" on="0"/>
        <pt x="605" y="209" on="0"/>
        <pt x="663" y="349" on="0"/>
        <pt x="663" y="418" on="1"/>
        <pt x="663" y="471" on="0"/>
        <pt x="633" y="567" on="0"/>
        <pt x="576" y="639" on="0"/>
        <pt x="495" y="682" on="0"/>
        <pt x="444" y="682" on="1"/>
        <pt x="372" y="682" on="0"/>
        <pt x="241" y="612" on="0"/>
        <pt x="143" y="501" on="0"/>
        <pt x="85" y="361" on="0"/>
        <pt x="85" y="291" on="1"/>
        <pt x="85" y="238" on="0"/>
        <pt x="115" y="143" on="0"/>
        <pt x="171" y="71" on="0"/>
        <pt x="253" y="28" on="0"/>
      </contour>
    </TTGlyph>
    <TTGlyph name="Oinvertedbreve" xMin="50" yMin="-5" xMax="697" yMax="918">
      <contour>
        <pt x="404" y="834" on="1"/>
        <pt x="407" y="850" on="0"/>
        <pt x="425" y="881" on="0"/>
        <pt x="450" y="904" on="0"/>
        <pt x="481" y="918" on="0"/>
        <pt x="499" y="918" on="1"/>
        <pt x="530" y="918" on="0"/>
        <pt x="561" y="877" on="0"/>
        <pt x="561" y="851" on="1"/>
        <pt x="561" y="846" on="0"/>
        <pt x="561" y="839" on="0"/>
        <pt x="560" y="834" on="1"/>
        <pt x="535" y="834" on="1"/>
        <pt x="537" y="844" on="0"/>
        <pt x="537" y="849" on="1"/>
        <pt x="537" y="896" on="0"/>
        <pt x="496" y="896" on="1"/>
        <pt x="470" y="896" on="0"/>
        <pt x="434" y="858" on="0"/>
        <pt x="429" y="834" on="1"/>
      </contour>
      <contour>
        <pt x="297" y="-5" on="1"/>
        <pt x="238" y="-5" on="0"/>
        <pt x="146" y="43" on="0"/>
        <pt x="83" y="124" on="0"/>
        <pt x="50" y="230" on="0"/>
        <pt x="50" y="287" on="1"/>
        <pt x="50" y="369" on="0"/>
        <pt x="118" y="523" on="0"/>
        <pt x="230" y="643" on="0"/>
        <pt x="374" y="715" on="0"/>
        <pt x="451" y="715" on="1"/>
        <pt x="510" y="715" on="0"/>
        <pt x="602" y="665" on="0"/>
        <pt x="665" y="583" on="0"/>
        <pt x="697" y="477" on="0"/>
        <pt x="697" y="421" on="1"/>
        <pt x="697" y="340" on="0"/>
        <pt x="629" y="186" on="0"/>
        <pt x="518" y="67" on="0"/>
        <pt x="373" y="-5" on="0"/>
      </contour>
      <contour>
        <pt x="305" y="28" on="1"/>
        <pt x="377" y="28" on="0"/>
        <pt x="507" y="98" on="0"/>
        <pt x="605" y="209" on="0"/>
        <pt x="663" y="349" on="0"/>
        <pt x="663" y="418" on="1"/>
        <pt x="663" y="471" on="0"/>
        <pt x="633" y="567" on="0"/>
        <pt x="576" y="639" on="0"/>
        <pt x="495" y="682" on="0"/>
        <pt x="444" y="682" on="1"/>
        <pt x="372" y="682" on="0"/>
        <pt x="241" y="612" on="0"/>
        <pt x="143" y="501" on="0"/>
        <pt x="85" y="361" on="0"/>
        <pt x="85" y="291" on="1"/>
        <pt x="85" y="238" on="0"/>
        <pt x="115" y="143" on="0"/>
        <pt x="171" y="71" on="0"/>
        <pt x="253" y="28" on="0"/>
      </contour>
    </TTGlyph>
    <TTGlyph name="Omacron" xMin="50" yMin="-5" xMax="697" yMax="895">
      <contour>
        <pt x="348" y="867" on="1"/>
        <pt x="353" y="895" on="1"/>
        <pt x="622" y="895" on="1"/>
        <pt x="616" y="867" on="1"/>
      </contour>
      <contour>
        <pt x="297" y="-5" on="1"/>
        <pt x="238" y="-5" on="0"/>
        <pt x="146" y="43" on="0"/>
        <pt x="83" y="124" on="0"/>
        <pt x="50" y="230" on="0"/>
        <pt x="50" y="287" on="1"/>
        <pt x="50" y="369" on="0"/>
        <pt x="118" y="523" on="0"/>
        <pt x="230" y="643" on="0"/>
        <pt x="374" y="715" on="0"/>
        <pt x="451" y="715" on="1"/>
        <pt x="510" y="715" on="0"/>
        <pt x="602" y="665" on="0"/>
        <pt x="665" y="583" on="0"/>
        <pt x="697" y="477" on="0"/>
        <pt x="697" y="421" on="1"/>
        <pt x="697" y="340" on="0"/>
        <pt x="629" y="186" on="0"/>
        <pt x="518" y="67" on="0"/>
        <pt x="373" y="-5" on="0"/>
      </contour>
      <contour>
        <pt x="305" y="28" on="1"/>
        <pt x="377" y="28" on="0"/>
        <pt x="507" y="98" on="0"/>
        <pt x="605" y="209" on="0"/>
        <pt x="663" y="349" on="0"/>
        <pt x="663" y="418" on="1"/>
        <pt x="663" y="471" on="0"/>
        <pt x="633" y="567" on="0"/>
        <pt x="576" y="639" on="0"/>
        <pt x="495" y="682" on="0"/>
        <pt x="444" y="682" on="1"/>
        <pt x="372" y="682" on="0"/>
        <pt x="241" y="612" on="0"/>
        <pt x="143" y="501" on="0"/>
        <pt x="85" y="361" on="0"/>
        <pt x="85" y="291" on="1"/>
        <pt x="85" y="238" on="0"/>
        <pt x="115" y="143" on="0"/>
        <pt x="171" y="71" on="0"/>
        <pt x="253" y="28" on="0"/>
      </contour>
    </TTGlyph>
    <TTGlyph name="Omega" xMin="61" yMin="0" xMax="733" yMax="715">
      <contour>
        <pt x="61" y="33" on="1"/>
        <pt x="271" y="33" on="1"/>
        <pt x="223" y="55" on="0"/>
        <pt x="147" y="125" on="0"/>
        <pt x="95" y="212" on="0"/>
        <pt x="67" y="312" on="0"/>
        <pt x="67" y="365" on="1"/>
        <pt x="67" y="434" on="0"/>
        <pt x="117" y="561" on="0"/>
        <pt x="205" y="657" on="0"/>
        <pt x="326" y="715" on="0"/>
        <pt x="397" y="715" on="1"/>
        <pt x="468" y="715" on="0"/>
        <pt x="589" y="657" on="0"/>
        <pt x="677" y="561" on="0"/>
        <pt x="727" y="434" on="0"/>
        <pt x="727" y="365" on="1"/>
        <pt x="727" y="312" on="0"/>
        <pt x="699" y="212" on="0"/>
        <pt x="646" y="125" on="0"/>
        <pt x="570" y="55" on="0"/>
        <pt x="522" y="33" on="1"/>
        <pt x="733" y="33" on="1"/>
        <pt x="733" y="0" on="1"/>
        <pt x="444" y="0" on="1"/>
        <pt x="444" y="33" on="1"/>
        <pt x="504" y="46" on="0"/>
        <pt x="596" y="114" on="0"/>
        <pt x="659" y="206" on="0"/>
        <pt x="691" y="313" on="0"/>
        <pt x="691" y="365" on="1"/>
        <pt x="691" y="424" on="0"/>
        <pt x="650" y="537" on="0"/>
        <pt x="574" y="626" on="0"/>
        <pt x="465" y="681" on="0"/>
        <pt x="397" y="681" on="1"/>
        <pt x="328" y="681" on="0"/>
        <pt x="219" y="626" on="0"/>
        <pt x="143" y="537" on="0"/>
        <pt x="102" y="424" on="0"/>
        <pt x="102" y="365" on="1"/>
        <pt x="102" y="313" on="0"/>
        <pt x="134" y="206" on="0"/>
        <pt x="197" y="114" on="0"/>
        <pt x="290" y="46" on="0"/>
        <pt x="350" y="33" on="1"/>
        <pt x="350" y="0" on="1"/>
        <pt x="61" y="0" on="1"/>
      </contour>
    </TTGlyph>
    <TTGlyph name="Oogonek" xMin="50" yMin="-167" xMax="697" yMax="715">
      <contour>
        <pt x="233" y="-167" on="1"/>
        <pt x="211" y="-161" on="0"/>
        <pt x="189" y="-133" on="0"/>
        <pt x="189" y="-114" on="1"/>
        <pt x="189" y="-87" on="0"/>
        <pt x="229" y="-37" on="0"/>
        <pt x="278" y="-4" on="1"/>
        <pt x="223" y="0" on="0"/>
        <pt x="138" y="51" on="0"/>
        <pt x="80" y="131" on="0"/>
        <pt x="50" y="232" on="0"/>
        <pt x="50" y="287" on="1"/>
        <pt x="50" y="369" on="0"/>
        <pt x="118" y="523" on="0"/>
        <pt x="230" y="643" on="0"/>
        <pt x="374" y="715" on="0"/>
        <pt x="451" y="715" on="1"/>
        <pt x="510" y="715" on="0"/>
        <pt x="602" y="665" on="0"/>
        <pt x="665" y="583" on="0"/>
        <pt x="697" y="477" on="0"/>
        <pt x="697" y="421" on="1"/>
        <pt x="697" y="341" on="0"/>
        <pt x="633" y="191" on="0"/>
        <pt x="526" y="73" on="0"/>
        <pt x="387" y="-1" on="0"/>
        <pt x="312" y="-4" on="1"/>
        <pt x="284" y="-21" on="0"/>
        <pt x="247" y="-48" on="0"/>
        <pt x="225" y="-72" on="0"/>
        <pt x="216" y="-95" on="0"/>
        <pt x="216" y="-107" on="1"/>
        <pt x="216" y="-137" on="0"/>
        <pt x="252" y="-144" on="1"/>
      </contour>
      <contour>
        <pt x="305" y="28" on="1"/>
        <pt x="377" y="28" on="0"/>
        <pt x="507" y="98" on="0"/>
        <pt x="605" y="209" on="0"/>
        <pt x="663" y="349" on="0"/>
        <pt x="663" y="418" on="1"/>
        <pt x="663" y="471" on="0"/>
        <pt x="633" y="567" on="0"/>
        <pt x="576" y="639" on="0"/>
        <pt x="495" y="682" on="0"/>
        <pt x="444" y="682" on="1"/>
        <pt x="372" y="682" on="0"/>
        <pt x="241" y="612" on="0"/>
        <pt x="143" y="501" on="0"/>
        <pt x="85" y="361" on="0"/>
        <pt x="85" y="291" on="1"/>
        <pt x="85" y="238" on="0"/>
        <pt x="115" y="143" on="0"/>
        <pt x="171" y="71" on="0"/>
        <pt x="253" y="28" on="0"/>
      </contour>
    </TTGlyph>
    <TTGlyph name="Oslash" xMin="50" yMin="-5" xMax="697" yMax="715">
      <contour>
        <pt x="690" y="710" on="1"/>
        <pt x="626" y="633" on="1"/>
        <pt x="661" y="591" on="0"/>
        <pt x="697" y="481" on="0"/>
        <pt x="697" y="421" on="1"/>
        <pt x="697" y="340" on="0"/>
        <pt x="629" y="186" on="0"/>
        <pt x="518" y="67" on="0"/>
        <pt x="373" y="-5" on="0"/>
        <pt x="297" y="-5" on="1"/>
        <pt x="250" y="-5" on="0"/>
        <pt x="173" y="25" on="0"/>
        <pt x="144" y="52" on="1"/>
        <pt x="101" y="0" on="1"/>
        <pt x="61" y="0" on="1"/>
        <pt x="122" y="74" on="1"/>
        <pt x="87" y="116" on="0"/>
        <pt x="50" y="226" on="0"/>
        <pt x="50" y="287" on="1"/>
        <pt x="50" y="369" on="0"/>
        <pt x="118" y="523" on="0"/>
        <pt x="230" y="643" on="0"/>
        <pt x="374" y="715" on="0"/>
        <pt x="451" y="715" on="1"/>
        <pt x="498" y="715" on="0"/>
        <pt x="575" y="683" on="0"/>
        <pt x="605" y="655" on="1"/>
        <pt x="650" y="710" on="1"/>
      </contour>
      <contour>
        <pt x="85" y="291" on="1"/>
        <pt x="85" y="236" on="0"/>
        <pt x="116" y="139" on="0"/>
        <pt x="146" y="102" on="1"/>
        <pt x="582" y="628" on="1"/>
        <pt x="555" y="653" on="0"/>
        <pt x="486" y="682" on="0"/>
        <pt x="444" y="682" on="1"/>
        <pt x="372" y="682" on="0"/>
        <pt x="241" y="612" on="0"/>
        <pt x="143" y="501" on="0"/>
        <pt x="85" y="361" on="0"/>
      </contour>
      <contour>
        <pt x="305" y="28" on="1"/>
        <pt x="377" y="28" on="0"/>
        <pt x="507" y="98" on="0"/>
        <pt x="605" y="209" on="0"/>
        <pt x="663" y="349" on="0"/>
        <pt x="663" y="418" on="1"/>
        <pt x="663" y="472" on="0"/>
        <pt x="632" y="568" on="0"/>
        <pt x="603" y="605" on="1"/>
        <pt x="167" y="80" on="1"/>
        <pt x="194" y="55" on="0"/>
        <pt x="263" y="28" on="0"/>
      </contour>
    </TTGlyph>
    <TTGlyph name="Oslashacute" xMin="50" yMin="-5" xMax="697" yMax="918">
      <contour>
        <pt x="690" y="710" on="1"/>
        <pt x="626" y="633" on="1"/>
        <pt x="661" y="591" on="0"/>
        <pt x="697" y="481" on="0"/>
        <pt x="697" y="421" on="1"/>
        <pt x="697" y="340" on="0"/>
        <pt x="629" y="186" on="0"/>
        <pt x="518" y="67" on="0"/>
        <pt x="373" y="-5" on="0"/>
        <pt x="297" y="-5" on="1"/>
        <pt x="250" y="-5" on="0"/>
        <pt x="173" y="25" on="0"/>
        <pt x="144" y="52" on="1"/>
        <pt x="101" y="0" on="1"/>
        <pt x="61" y="0" on="1"/>
        <pt x="122" y="74" on="1"/>
        <pt x="87" y="116" on="0"/>
        <pt x="50" y="226" on="0"/>
        <pt x="50" y="287" on="1"/>
        <pt x="50" y="369" on="0"/>
        <pt x="118" y="523" on="0"/>
        <pt x="230" y="643" on="0"/>
        <pt x="374" y="715" on="0"/>
        <pt x="451" y="715" on="1"/>
        <pt x="498" y="715" on="0"/>
        <pt x="575" y="683" on="0"/>
        <pt x="605" y="655" on="1"/>
        <pt x="650" y="710" on="1"/>
      </contour>
      <contour>
        <pt x="85" y="291" on="1"/>
        <pt x="85" y="236" on="0"/>
        <pt x="116" y="139" on="0"/>
        <pt x="146" y="102" on="1"/>
        <pt x="582" y="628" on="1"/>
        <pt x="555" y="653" on="0"/>
        <pt x="486" y="682" on="0"/>
        <pt x="444" y="682" on="1"/>
        <pt x="372" y="682" on="0"/>
        <pt x="241" y="612" on="0"/>
        <pt x="143" y="501" on="0"/>
        <pt x="85" y="361" on="0"/>
      </contour>
      <contour>
        <pt x="305" y="28" on="1"/>
        <pt x="377" y="28" on="0"/>
        <pt x="507" y="98" on="0"/>
        <pt x="605" y="209" on="0"/>
        <pt x="663" y="349" on="0"/>
        <pt x="663" y="418" on="1"/>
        <pt x="663" y="472" on="0"/>
        <pt x="632" y="568" on="0"/>
        <pt x="603" y="605" on="1"/>
        <pt x="167" y="80" on="1"/>
        <pt x="194" y="55" on="0"/>
        <pt x="263" y="28" on="0"/>
      </contour>
      <contour>
        <pt x="459" y="826" on="1"/>
        <pt x="438" y="839" on="1"/>
        <pt x="514" y="918" on="1"/>
        <pt x="558" y="918" on="1"/>
      </contour>
    </TTGlyph>
    <TTGlyph name="Otilde" xMin="50" yMin="-5" xMax="697" yMax="918">
      <contour>
        <pt x="297" y="-5" on="1"/>
        <pt x="238" y="-5" on="0"/>
        <pt x="146" y="43" on="0"/>
        <pt x="83" y="124" on="0"/>
        <pt x="50" y="230" on="0"/>
        <pt x="50" y="287" on="1"/>
        <pt x="50" y="369" on="0"/>
        <pt x="118" y="523" on="0"/>
        <pt x="230" y="643" on="0"/>
        <pt x="374" y="715" on="0"/>
        <pt x="451" y="715" on="1"/>
        <pt x="510" y="715" on="0"/>
        <pt x="602" y="665" on="0"/>
        <pt x="665" y="583" on="0"/>
        <pt x="697" y="477" on="0"/>
        <pt x="697" y="421" on="1"/>
        <pt x="697" y="340" on="0"/>
        <pt x="629" y="186" on="0"/>
        <pt x="518" y="67" on="0"/>
        <pt x="373" y="-5" on="0"/>
      </contour>
      <contour>
        <pt x="305" y="28" on="1"/>
        <pt x="377" y="28" on="0"/>
        <pt x="507" y="98" on="0"/>
        <pt x="605" y="209" on="0"/>
        <pt x="663" y="349" on="0"/>
        <pt x="663" y="418" on="1"/>
        <pt x="663" y="471" on="0"/>
        <pt x="633" y="567" on="0"/>
        <pt x="576" y="639" on="0"/>
        <pt x="495" y="682" on="0"/>
        <pt x="444" y="682" on="1"/>
        <pt x="372" y="682" on="0"/>
        <pt x="241" y="612" on="0"/>
        <pt x="143" y="501" on="0"/>
        <pt x="85" y="361" on="0"/>
        <pt x="85" y="291" on="1"/>
        <pt x="85" y="238" on="0"/>
        <pt x="115" y="143" on="0"/>
        <pt x="171" y="71" on="0"/>
        <pt x="253" y="28" on="0"/>
      </contour>
      <contour>
        <pt x="534" y="844" on="1"/>
        <pt x="513" y="844" on="0"/>
        <pt x="484" y="856" on="0"/>
        <pt x="460" y="870" on="0"/>
        <pt x="438" y="882" on="0"/>
        <pt x="423" y="882" on="1"/>
        <pt x="408" y="882" on="0"/>
        <pt x="386" y="869" on="0"/>
        <pt x="372" y="852" on="0"/>
        <pt x="365" y="836" on="0"/>
        <pt x="364" y="834" on="1"/>
        <pt x="339" y="834" on="1"/>
        <pt x="339" y="837" on="0"/>
        <pt x="349" y="862" on="0"/>
        <pt x="371" y="888" on="0"/>
        <pt x="405" y="909" on="0"/>
        <pt x="430" y="909" on="1"/>
        <pt x="449" y="909" on="0"/>
        <pt x="475" y="897" on="0"/>
        <pt x="498" y="882" on="0"/>
        <pt x="523" y="870" on="0"/>
        <pt x="541" y="870" on="1"/>
        <pt x="560" y="870" on="0"/>
        <pt x="585" y="884" on="0"/>
        <pt x="600" y="901" on="0"/>
        <pt x="607" y="916" on="0"/>
        <pt x="607" y="918" on="1"/>
        <pt x="632" y="918" on="1"/>
        <pt x="631" y="914" on="0"/>
        <pt x="621" y="890" on="0"/>
        <pt x="598" y="864" on="0"/>
        <pt x="561" y="844" on="0"/>
      </contour>
    </TTGlyph>
    <TTGlyph name="P" xMin="30" yMin="0" xMax="609" yMax="710">
      <contour>
        <pt x="181" y="710" on="1"/>
        <pt x="458" y="710" on="1"/>
        <pt x="494" y="710" on="0"/>
        <pt x="550" y="680" on="0"/>
        <pt x="589" y="630" on="0"/>
        <pt x="609" y="565" on="0"/>
        <pt x="609" y="531" on="1"/>
        <pt x="609" y="484" on="0"/>
        <pt x="571" y="393" on="0"/>
        <pt x="506" y="319" on="0"/>
        <pt x="419" y="274" on="0"/>
        <pt x="371" y="274" on="1"/>
        <pt x="123" y="274" on="1"/>
        <pt x="65" y="0" on="1"/>
        <pt x="30" y="0" on="1"/>
      </contour>
      <contour>
        <pt x="377" y="306" on="1"/>
        <pt x="418" y="306" on="0"/>
        <pt x="490" y="346" on="0"/>
        <pt x="544" y="410" on="0"/>
        <pt x="575" y="488" on="0"/>
        <pt x="575" y="527" on="1"/>
        <pt x="575" y="557" on="0"/>
        <pt x="557" y="612" on="0"/>
        <pt x="524" y="654" on="0"/>
        <pt x="477" y="678" on="0"/>
        <pt x="449" y="678" on="1"/>
        <pt x="209" y="678" on="1"/>
        <pt x="130" y="306" on="1"/>
      </contour>
    </TTGlyph>
    <TTGlyph name="P.sc" xMin="26" yMin="0" xMax="499" yMax="542">
      <contour>
        <pt x="141" y="542" on="1"/>
        <pt x="370" y="542" on="1"/>
        <pt x="400" y="542" on="0"/>
        <pt x="448" y="518" on="0"/>
        <pt x="481" y="479" on="0"/>
        <pt x="499" y="429" on="0"/>
        <pt x="499" y="402" on="1"/>
        <pt x="499" y="366" on="0"/>
        <pt x="468" y="297" on="0"/>
        <pt x="415" y="241" on="0"/>
        <pt x="344" y="207" on="0"/>
        <pt x="304" y="207" on="1"/>
        <pt x="102" y="207" on="1"/>
        <pt x="58" y="0" on="1"/>
        <pt x="26" y="0" on="1"/>
      </contour>
      <contour>
        <pt x="309" y="237" on="1"/>
        <pt x="342" y="237" on="0"/>
        <pt x="399" y="266" on="0"/>
        <pt x="441" y="312" on="0"/>
        <pt x="465" y="369" on="0"/>
        <pt x="465" y="398" on="1"/>
        <pt x="465" y="421" on="0"/>
        <pt x="450" y="462" on="0"/>
        <pt x="423" y="494" on="0"/>
        <pt x="385" y="512" on="0"/>
        <pt x="362" y="512" on="1"/>
        <pt x="167" y="512" on="1"/>
        <pt x="109" y="237" on="1"/>
      </contour>
    </TTGlyph>
    <TTGlyph name="Q" xMin="50" yMin="-5" xMax="697" yMax="715">
      <contour>
        <pt x="508" y="68" on="1"/>
        <pt x="460" y="33" on="0"/>
        <pt x="354" y="-5" on="0"/>
        <pt x="298" y="-5" on="1"/>
        <pt x="239" y="-5" on="0"/>
        <pt x="146" y="43" on="0"/>
        <pt x="83" y="124" on="0"/>
        <pt x="50" y="230" on="0"/>
        <pt x="50" y="287" on="1"/>
        <pt x="50" y="369" on="0"/>
        <pt x="118" y="523" on="0"/>
        <pt x="230" y="643" on="0"/>
        <pt x="375" y="715" on="0"/>
        <pt x="452" y="715" on="1"/>
        <pt x="511" y="715" on="0"/>
        <pt x="603" y="665" on="0"/>
        <pt x="665" y="583" on="0"/>
        <pt x="697" y="477" on="0"/>
        <pt x="697" y="421" on="1"/>
        <pt x="697" y="373" on="0"/>
        <pt x="673" y="280" on="0"/>
        <pt x="630" y="195" on="0"/>
        <pt x="570" y="119" on="0"/>
        <pt x="534" y="89" on="1"/>
        <pt x="585" y="0" on="1"/>
        <pt x="547" y="0" on="1"/>
      </contour>
      <contour>
        <pt x="305" y="28" on="1"/>
        <pt x="356" y="28" on="0"/>
        <pt x="451" y="63" on="0"/>
        <pt x="493" y="95" on="1"/>
        <pt x="437" y="195" on="1"/>
        <pt x="475" y="195" on="1"/>
        <pt x="519" y="116" on="1"/>
        <pt x="552" y="145" on="0"/>
        <pt x="605" y="216" on="0"/>
        <pt x="642" y="294" on="0"/>
        <pt x="663" y="377" on="0"/>
        <pt x="663" y="418" on="1"/>
        <pt x="663" y="471" on="0"/>
        <pt x="633" y="567" on="0"/>
        <pt x="576" y="639" on="0"/>
        <pt x="496" y="682" on="0"/>
        <pt x="445" y="682" on="1"/>
        <pt x="373" y="682" on="0"/>
        <pt x="242" y="612" on="0"/>
        <pt x="143" y="501" on="0"/>
        <pt x="85" y="361" on="0"/>
        <pt x="85" y="291" on="1"/>
        <pt x="85" y="238" on="0"/>
        <pt x="115" y="143" on="0"/>
        <pt x="171" y="71" on="0"/>
        <pt x="253" y="28" on="0"/>
      </contour>
    </TTGlyph>
    <TTGlyph name="Q.sc" xMin="38" yMin="-4" xMax="571" yMax="545">
      <contour>
        <pt x="419" y="52" on="1"/>
        <pt x="381" y="26" on="0"/>
        <pt x="293" y="-4" on="0"/>
        <pt x="247" y="-4" on="1"/>
        <pt x="197" y="-4" on="0"/>
        <pt x="119" y="34" on="0"/>
        <pt x="66" y="97" on="0"/>
        <pt x="38" y="179" on="0"/>
        <pt x="38" y="223" on="1"/>
        <pt x="38" y="284" on="0"/>
        <pt x="93" y="400" on="0"/>
        <pt x="183" y="490" on="0"/>
        <pt x="301" y="545" on="0"/>
        <pt x="364" y="545" on="1"/>
        <pt x="414" y="545" on="0"/>
        <pt x="491" y="507" on="0"/>
        <pt x="544" y="443" on="0"/>
        <pt x="571" y="361" on="0"/>
        <pt x="571" y="317" on="1"/>
        <pt x="571" y="246" on="0"/>
        <pt x="499" y="116" on="0"/>
        <pt x="442" y="69" on="1"/>
        <pt x="486" y="0" on="1"/>
        <pt x="451" y="0" on="1"/>
      </contour>
      <contour>
        <pt x="254" y="27" on="1"/>
        <pt x="295" y="27" on="0"/>
        <pt x="371" y="53" on="0"/>
        <pt x="404" y="76" on="1"/>
        <pt x="356" y="154" on="1"/>
        <pt x="390" y="154" on="1"/>
        <pt x="427" y="94" on="1"/>
        <pt x="478" y="136" on="0"/>
        <pt x="538" y="254" on="0"/>
        <pt x="538" y="314" on="1"/>
        <pt x="538" y="354" on="0"/>
        <pt x="513" y="427" on="0"/>
        <pt x="466" y="483" on="0"/>
        <pt x="399" y="516" on="0"/>
        <pt x="357" y="516" on="1"/>
        <pt x="299" y="516" on="0"/>
        <pt x="195" y="464" on="0"/>
        <pt x="116" y="382" on="0"/>
        <pt x="70" y="279" on="0"/>
        <pt x="70" y="227" on="1"/>
        <pt x="70" y="187" on="0"/>
        <pt x="95" y="115" on="0"/>
        <pt x="143" y="60" on="0"/>
        <pt x="211" y="27" on="0"/>
      </contour>
    </TTGlyph>
    <TTGlyph name="R" xMin="30" yMin="0" xMax="611" yMax="710">
      <contour>
        <pt x="30" y="0" on="1"/>
        <pt x="181" y="710" on="1"/>
        <pt x="459" y="710" on="1"/>
        <pt x="495" y="710" on="0"/>
        <pt x="551" y="680" on="0"/>
        <pt x="590" y="630" on="0"/>
        <pt x="611" y="565" on="0"/>
        <pt x="611" y="531" on="1"/>
        <pt x="611" y="486" on="0"/>
        <pt x="577" y="399" on="0"/>
        <pt x="518" y="329" on="0"/>
        <pt x="440" y="282" on="0"/>
        <pt x="396" y="278" on="1"/>
        <pt x="505" y="0" on="1"/>
        <pt x="465" y="0" on="1"/>
        <pt x="357" y="274" on="1"/>
        <pt x="123" y="274" on="1"/>
        <pt x="65" y="0" on="1"/>
      </contour>
      <contour>
        <pt x="379" y="306" on="1"/>
        <pt x="420" y="306" on="0"/>
        <pt x="492" y="346" on="0"/>
        <pt x="545" y="409" on="0"/>
        <pt x="576" y="487" on="0"/>
        <pt x="576" y="526" on="1"/>
        <pt x="576" y="556" on="0"/>
        <pt x="558" y="611" on="0"/>
        <pt x="525" y="653" on="0"/>
        <pt x="479" y="678" on="0"/>
        <pt x="451" y="678" on="1"/>
        <pt x="209" y="678" on="1"/>
        <pt x="130" y="306" on="1"/>
      </contour>
    </TTGlyph>
    <TTGlyph name="R.sc" xMin="26" yMin="0" xMax="501" yMax="542">
      <contour>
        <pt x="141" y="542" on="1"/>
        <pt x="372" y="542" on="1"/>
        <pt x="402" y="542" on="0"/>
        <pt x="450" y="518" on="0"/>
        <pt x="483" y="479" on="0"/>
        <pt x="501" y="429" on="0"/>
        <pt x="501" y="402" on="1"/>
        <pt x="501" y="368" on="0"/>
        <pt x="474" y="304" on="0"/>
        <pt x="427" y="251" on="0"/>
        <pt x="364" y="216" on="0"/>
        <pt x="328" y="212" on="1"/>
        <pt x="423" y="0" on="1"/>
        <pt x="385" y="0" on="1"/>
        <pt x="292" y="207" on="1"/>
        <pt x="102" y="207" on="1"/>
        <pt x="58" y="0" on="1"/>
        <pt x="26" y="0" on="1"/>
      </contour>
      <contour>
        <pt x="311" y="237" on="1"/>
        <pt x="343" y="237" on="0"/>
        <pt x="400" y="266" on="0"/>
        <pt x="443" y="312" on="0"/>
        <pt x="468" y="369" on="0"/>
        <pt x="468" y="398" on="1"/>
        <pt x="468" y="420" on="0"/>
        <pt x="453" y="462" on="0"/>
        <pt x="426" y="493" on="0"/>
        <pt x="388" y="512" on="0"/>
        <pt x="364" y="512" on="1"/>
        <pt x="167" y="512" on="1"/>
        <pt x="109" y="237" on="1"/>
      </contour>
    </TTGlyph>
    <TTGlyph name="Racute" xMin="30" yMin="0" xMax="611" yMax="920">
      <contour>
        <pt x="396" y="828" on="1"/>
        <pt x="375" y="841" on="1"/>
        <pt x="451" y="920" on="1"/>
        <pt x="495" y="920" on="1"/>
      </contour>
      <contour>
        <pt x="30" y="0" on="1"/>
        <pt x="181" y="710" on="1"/>
        <pt x="459" y="710" on="1"/>
        <pt x="495" y="710" on="0"/>
        <pt x="551" y="680" on="0"/>
        <pt x="590" y="630" on="0"/>
        <pt x="611" y="565" on="0"/>
        <pt x="611" y="531" on="1"/>
        <pt x="611" y="486" on="0"/>
        <pt x="577" y="399" on="0"/>
        <pt x="518" y="329" on="0"/>
        <pt x="440" y="282" on="0"/>
        <pt x="396" y="278" on="1"/>
        <pt x="505" y="0" on="1"/>
        <pt x="465" y="0" on="1"/>
        <pt x="357" y="274" on="1"/>
        <pt x="123" y="274" on="1"/>
        <pt x="65" y="0" on="1"/>
      </contour>
      <contour>
        <pt x="379" y="306" on="1"/>
        <pt x="420" y="306" on="0"/>
        <pt x="492" y="346" on="0"/>
        <pt x="545" y="409" on="0"/>
        <pt x="576" y="487" on="0"/>
        <pt x="576" y="526" on="1"/>
        <pt x="576" y="556" on="0"/>
        <pt x="558" y="611" on="0"/>
        <pt x="525" y="653" on="0"/>
        <pt x="479" y="678" on="0"/>
        <pt x="451" y="678" on="1"/>
        <pt x="209" y="678" on="1"/>
        <pt x="130" y="306" on="1"/>
      </contour>
    </TTGlyph>
    <TTGlyph name="Rcaron" xMin="30" yMin="0" xMax="611" yMax="920">
      <contour>
        <pt x="335" y="906" on="1"/>
        <pt x="360" y="920" on="1"/>
        <pt x="428" y="857" on="1"/>
        <pt x="522" y="920" on="1"/>
        <pt x="541" y="906" on="1"/>
        <pt x="434" y="828" on="1"/>
        <pt x="408" y="828" on="1"/>
      </contour>
      <contour>
        <pt x="30" y="0" on="1"/>
        <pt x="181" y="710" on="1"/>
        <pt x="459" y="710" on="1"/>
        <pt x="495" y="710" on="0"/>
        <pt x="551" y="680" on="0"/>
        <pt x="590" y="630" on="0"/>
        <pt x="611" y="565" on="0"/>
        <pt x="611" y="531" on="1"/>
        <pt x="611" y="486" on="0"/>
        <pt x="577" y="399" on="0"/>
        <pt x="518" y="329" on="0"/>
        <pt x="440" y="282" on="0"/>
        <pt x="396" y="278" on="1"/>
        <pt x="505" y="0" on="1"/>
        <pt x="465" y="0" on="1"/>
        <pt x="357" y="274" on="1"/>
        <pt x="123" y="274" on="1"/>
        <pt x="65" y="0" on="1"/>
      </contour>
      <contour>
        <pt x="379" y="306" on="1"/>
        <pt x="420" y="306" on="0"/>
        <pt x="492" y="346" on="0"/>
        <pt x="545" y="409" on="0"/>
        <pt x="576" y="487" on="0"/>
        <pt x="576" y="526" on="1"/>
        <pt x="576" y="556" on="0"/>
        <pt x="558" y="611" on="0"/>
        <pt x="525" y="653" on="0"/>
        <pt x="479" y="678" on="0"/>
        <pt x="451" y="678" on="1"/>
        <pt x="209" y="678" on="1"/>
        <pt x="130" y="306" on="1"/>
      </contour>
    </TTGlyph>
    <TTGlyph name="Rcommaaccent" xMin="30" yMin="-176" xMax="611" yMax="710">
      <contour>
        <pt x="194" y="-176" on="1"/>
        <pt x="219" y="-114" on="1"/>
        <pt x="207" y="-114" on="1"/>
        <pt x="221" y="-50" on="1"/>
        <pt x="257" y="-50" on="1"/>
        <pt x="243" y="-114" on="1"/>
        <pt x="214" y="-176" on="1"/>
      </contour>
      <contour>
        <pt x="30" y="0" on="1"/>
        <pt x="181" y="710" on="1"/>
        <pt x="459" y="710" on="1"/>
        <pt x="495" y="710" on="0"/>
        <pt x="551" y="680" on="0"/>
        <pt x="590" y="630" on="0"/>
        <pt x="611" y="565" on="0"/>
        <pt x="611" y="531" on="1"/>
        <pt x="611" y="486" on="0"/>
        <pt x="577" y="399" on="0"/>
        <pt x="518" y="329" on="0"/>
        <pt x="440" y="282" on="0"/>
        <pt x="396" y="278" on="1"/>
        <pt x="505" y="0" on="1"/>
        <pt x="465" y="0" on="1"/>
        <pt x="357" y="274" on="1"/>
        <pt x="123" y="274" on="1"/>
        <pt x="65" y="0" on="1"/>
      </contour>
      <contour>
        <pt x="379" y="306" on="1"/>
        <pt x="420" y="306" on="0"/>
        <pt x="492" y="346" on="0"/>
        <pt x="545" y="409" on="0"/>
        <pt x="576" y="487" on="0"/>
        <pt x="576" y="526" on="1"/>
        <pt x="576" y="556" on="0"/>
        <pt x="558" y="611" on="0"/>
        <pt x="525" y="653" on="0"/>
        <pt x="479" y="678" on="0"/>
        <pt x="451" y="678" on="1"/>
        <pt x="209" y="678" on="1"/>
        <pt x="130" y="306" on="1"/>
      </contour>
    </TTGlyph>
    <TTGlyph name="Rdblgrave" xMin="30" yMin="0" xMax="611" yMax="918">
      <contour>
        <pt x="422" y="918" on="1"/>
        <pt x="463" y="918" on="1"/>
        <pt x="506" y="839" on="1"/>
        <pt x="480" y="826" on="1"/>
      </contour>
      <contour>
        <pt x="319" y="918" on="1"/>
        <pt x="360" y="918" on="1"/>
        <pt x="402" y="839" on="1"/>
        <pt x="378" y="826" on="1"/>
      </contour>
      <contour>
        <pt x="30" y="0" on="1"/>
        <pt x="181" y="710" on="1"/>
        <pt x="459" y="710" on="1"/>
        <pt x="495" y="710" on="0"/>
        <pt x="551" y="680" on="0"/>
        <pt x="590" y="630" on="0"/>
        <pt x="611" y="565" on="0"/>
        <pt x="611" y="531" on="1"/>
        <pt x="611" y="486" on="0"/>
        <pt x="577" y="399" on="0"/>
        <pt x="518" y="329" on="0"/>
        <pt x="440" y="282" on="0"/>
        <pt x="396" y="278" on="1"/>
        <pt x="505" y="0" on="1"/>
        <pt x="465" y="0" on="1"/>
        <pt x="357" y="274" on="1"/>
        <pt x="123" y="274" on="1"/>
        <pt x="65" y="0" on="1"/>
      </contour>
      <contour>
        <pt x="379" y="306" on="1"/>
        <pt x="420" y="306" on="0"/>
        <pt x="492" y="346" on="0"/>
        <pt x="545" y="409" on="0"/>
        <pt x="576" y="487" on="0"/>
        <pt x="576" y="526" on="1"/>
        <pt x="576" y="556" on="0"/>
        <pt x="558" y="611" on="0"/>
        <pt x="525" y="653" on="0"/>
        <pt x="479" y="678" on="0"/>
        <pt x="451" y="678" on="1"/>
        <pt x="209" y="678" on="1"/>
        <pt x="130" y="306" on="1"/>
      </contour>
    </TTGlyph>
    <TTGlyph name="Rdotbelow" xMin="30" yMin="-138" xMax="611" yMax="710">
      <contour>
        <pt x="30" y="0" on="1"/>
        <pt x="181" y="710" on="1"/>
        <pt x="459" y="710" on="1"/>
        <pt x="495" y="710" on="0"/>
        <pt x="551" y="680" on="0"/>
        <pt x="590" y="630" on="0"/>
        <pt x="611" y="565" on="0"/>
        <pt x="611" y="531" on="1"/>
        <pt x="611" y="486" on="0"/>
        <pt x="577" y="399" on="0"/>
        <pt x="518" y="329" on="0"/>
        <pt x="440" y="282" on="0"/>
        <pt x="396" y="278" on="1"/>
        <pt x="505" y="0" on="1"/>
        <pt x="465" y="0" on="1"/>
        <pt x="357" y="274" on="1"/>
        <pt x="123" y="274" on="1"/>
        <pt x="65" y="0" on="1"/>
      </contour>
      <contour>
        <pt x="379" y="306" on="1"/>
        <pt x="420" y="306" on="0"/>
        <pt x="492" y="346" on="0"/>
        <pt x="545" y="409" on="0"/>
        <pt x="576" y="487" on="0"/>
        <pt x="576" y="526" on="1"/>
        <pt x="576" y="556" on="0"/>
        <pt x="558" y="611" on="0"/>
        <pt x="525" y="653" on="0"/>
        <pt x="479" y="678" on="0"/>
        <pt x="451" y="678" on="1"/>
        <pt x="209" y="678" on="1"/>
        <pt x="130" y="306" on="1"/>
      </contour>
      <contour>
        <pt x="206" y="-138" on="1"/>
        <pt x="223" y="-55" on="1"/>
        <pt x="255" y="-55" on="1"/>
        <pt x="238" y="-138" on="1"/>
      </contour>
    </TTGlyph>
    <TTGlyph name="Rinvertedbreve" xMin="30" yMin="0" xMax="611" yMax="918">
      <contour>
        <pt x="350" y="834" on="1"/>
        <pt x="353" y="850" on="0"/>
        <pt x="371" y="881" on="0"/>
        <pt x="396" y="904" on="0"/>
        <pt x="427" y="918" on="0"/>
        <pt x="445" y="918" on="1"/>
        <pt x="476" y="918" on="0"/>
        <pt x="507" y="877" on="0"/>
        <pt x="507" y="851" on="1"/>
        <pt x="507" y="846" on="0"/>
        <pt x="507" y="839" on="0"/>
        <pt x="506" y="834" on="1"/>
        <pt x="481" y="834" on="1"/>
        <pt x="483" y="844" on="0"/>
        <pt x="483" y="849" on="1"/>
        <pt x="483" y="896" on="0"/>
        <pt x="442" y="896" on="1"/>
        <pt x="416" y="896" on="0"/>
        <pt x="380" y="858" on="0"/>
        <pt x="375" y="834" on="1"/>
      </contour>
      <contour>
        <pt x="30" y="0" on="1"/>
        <pt x="181" y="710" on="1"/>
        <pt x="459" y="710" on="1"/>
        <pt x="495" y="710" on="0"/>
        <pt x="551" y="680" on="0"/>
        <pt x="590" y="630" on="0"/>
        <pt x="611" y="565" on="0"/>
        <pt x="611" y="531" on="1"/>
        <pt x="611" y="486" on="0"/>
        <pt x="577" y="399" on="0"/>
        <pt x="518" y="329" on="0"/>
        <pt x="440" y="282" on="0"/>
        <pt x="396" y="278" on="1"/>
        <pt x="505" y="0" on="1"/>
        <pt x="465" y="0" on="1"/>
        <pt x="357" y="274" on="1"/>
        <pt x="123" y="274" on="1"/>
        <pt x="65" y="0" on="1"/>
      </contour>
      <contour>
        <pt x="379" y="306" on="1"/>
        <pt x="420" y="306" on="0"/>
        <pt x="492" y="346" on="0"/>
        <pt x="545" y="409" on="0"/>
        <pt x="576" y="487" on="0"/>
        <pt x="576" y="526" on="1"/>
        <pt x="576" y="556" on="0"/>
        <pt x="558" y="611" on="0"/>
        <pt x="525" y="653" on="0"/>
        <pt x="479" y="678" on="0"/>
        <pt x="451" y="678" on="1"/>
        <pt x="209" y="678" on="1"/>
        <pt x="130" y="306" on="1"/>
      </contour>
    </TTGlyph>
    <TTGlyph name="S" xMin="-3" yMin="-5" xMax="575" yMax="715">
      <contour>
        <pt x="239" y="-5" on="1"/>
        <pt x="81" y="-5" on="0"/>
        <pt x="-3" y="103" on="1"/>
        <pt x="22" y="128" on="1"/>
        <pt x="95" y="25" on="0"/>
        <pt x="247" y="25" on="1"/>
        <pt x="355" y="25" on="0"/>
        <pt x="484" y="116" on="0"/>
        <pt x="484" y="203" on="1"/>
        <pt x="484" y="232" on="0"/>
        <pt x="460" y="274" on="0"/>
        <pt x="414" y="306" on="0"/>
        <pt x="343" y="329" on="0"/>
        <pt x="297" y="340" on="1"/>
        <pt x="251" y="350" on="0"/>
        <pt x="179" y="373" on="0"/>
        <pt x="130" y="406" on="0"/>
        <pt x="104" y="453" on="0"/>
        <pt x="104" y="486" on="1"/>
        <pt x="104" y="540" on="0"/>
        <pt x="146" y="625" on="0"/>
        <pt x="222" y="684" on="0"/>
        <pt x="325" y="715" on="0"/>
        <pt x="387" y="715" on="1"/>
        <pt x="453" y="715" on="0"/>
        <pt x="544" y="675" on="0"/>
        <pt x="575" y="631" on="1"/>
        <pt x="551" y="605" on="1"/>
        <pt x="523" y="648" on="0"/>
        <pt x="442" y="683" on="0"/>
        <pt x="382" y="683" on="1"/>
        <pt x="318" y="683" on="0"/>
        <pt x="227" y="654" on="0"/>
        <pt x="168" y="604" on="0"/>
        <pt x="141" y="535" on="0"/>
        <pt x="141" y="496" on="1"/>
        <pt x="141" y="468" on="0"/>
        <pt x="163" y="430" on="0"/>
        <pt x="206" y="402" on="0"/>
        <pt x="272" y="381" on="0"/>
        <pt x="317" y="371" on="1"/>
        <pt x="363" y="360" on="0"/>
        <pt x="438" y="336" on="0"/>
        <pt x="492" y="300" on="0"/>
        <pt x="521" y="249" on="0"/>
        <pt x="521" y="212" on="1"/>
        <pt x="521" y="160" on="0"/>
        <pt x="480" y="79" on="0"/>
        <pt x="405" y="24" on="0"/>
        <pt x="302" y="-5" on="0"/>
      </contour>
    </TTGlyph>
    <TTGlyph name="S.sc" xMin="-3" yMin="-4" xMax="469" yMax="545">
      <contour>
        <pt x="199" y="-4" on="1"/>
        <pt x="133" y="-4" on="0"/>
        <pt x="34" y="36" on="0"/>
        <pt x="-3" y="77" on="1"/>
        <pt x="21" y="102" on="1"/>
        <pt x="50" y="64" on="0"/>
        <pt x="142" y="24" on="0"/>
        <pt x="206" y="24" on="1"/>
        <pt x="248" y="24" on="0"/>
        <pt x="317" y="40" on="0"/>
        <pt x="367" y="73" on="0"/>
        <pt x="395" y="121" on="0"/>
        <pt x="395" y="154" on="1"/>
        <pt x="395" y="198" on="0"/>
        <pt x="318" y="241" on="0"/>
        <pt x="240" y="257" on="1"/>
        <pt x="202" y="265" on="0"/>
        <pt x="143" y="283" on="0"/>
        <pt x="103" y="309" on="0"/>
        <pt x="82" y="346" on="0"/>
        <pt x="82" y="372" on="1"/>
        <pt x="82" y="413" on="0"/>
        <pt x="116" y="477" on="0"/>
        <pt x="178" y="522" on="0"/>
        <pt x="262" y="545" on="0"/>
        <pt x="312" y="545" on="1"/>
        <pt x="366" y="545" on="0"/>
        <pt x="443" y="515" on="0"/>
        <pt x="469" y="482" on="1"/>
        <pt x="447" y="456" on="1"/>
        <pt x="424" y="488" on="0"/>
        <pt x="357" y="517" on="0"/>
        <pt x="307" y="517" on="1"/>
        <pt x="256" y="517" on="0"/>
        <pt x="184" y="496" on="0"/>
        <pt x="137" y="459" on="0"/>
        <pt x="115" y="409" on="0"/>
        <pt x="115" y="380" on="1"/>
        <pt x="115" y="359" on="0"/>
        <pt x="133" y="330" on="0"/>
        <pt x="169" y="309" on="0"/>
        <pt x="223" y="293" on="0"/>
        <pt x="260" y="285" on="1"/>
        <pt x="299" y="277" on="0"/>
        <pt x="361" y="258" on="0"/>
        <pt x="406" y="231" on="0"/>
        <pt x="430" y="191" on="0"/>
        <pt x="430" y="162" on="1"/>
        <pt x="430" y="121" on="0"/>
        <pt x="396" y="59" on="0"/>
        <pt x="335" y="17" on="0"/>
        <pt x="250" y="-4" on="0"/>
      </contour>
    </TTGlyph>
    <TTGlyph name="Sacute" xMin="-3" yMin="-5" xMax="575" yMax="938">
      <contour>
        <pt x="396" y="846" on="1"/>
        <pt x="375" y="859" on="1"/>
        <pt x="451" y="938" on="1"/>
        <pt x="495" y="938" on="1"/>
      </contour>
      <contour>
        <pt x="239" y="-5" on="1"/>
        <pt x="81" y="-5" on="0"/>
        <pt x="-3" y="103" on="1"/>
        <pt x="22" y="128" on="1"/>
        <pt x="95" y="25" on="0"/>
        <pt x="247" y="25" on="1"/>
        <pt x="355" y="25" on="0"/>
        <pt x="484" y="116" on="0"/>
        <pt x="484" y="203" on="1"/>
        <pt x="484" y="232" on="0"/>
        <pt x="460" y="274" on="0"/>
        <pt x="414" y="306" on="0"/>
        <pt x="343" y="329" on="0"/>
        <pt x="297" y="340" on="1"/>
        <pt x="251" y="350" on="0"/>
        <pt x="179" y="373" on="0"/>
        <pt x="130" y="406" on="0"/>
        <pt x="104" y="453" on="0"/>
        <pt x="104" y="486" on="1"/>
        <pt x="104" y="540" on="0"/>
        <pt x="146" y="625" on="0"/>
        <pt x="222" y="684" on="0"/>
        <pt x="325" y="715" on="0"/>
        <pt x="387" y="715" on="1"/>
        <pt x="453" y="715" on="0"/>
        <pt x="544" y="675" on="0"/>
        <pt x="575" y="631" on="1"/>
        <pt x="551" y="605" on="1"/>
        <pt x="523" y="648" on="0"/>
        <pt x="442" y="683" on="0"/>
        <pt x="382" y="683" on="1"/>
        <pt x="318" y="683" on="0"/>
        <pt x="227" y="654" on="0"/>
        <pt x="168" y="604" on="0"/>
        <pt x="141" y="535" on="0"/>
        <pt x="141" y="496" on="1"/>
        <pt x="141" y="468" on="0"/>
        <pt x="163" y="430" on="0"/>
        <pt x="206" y="402" on="0"/>
        <pt x="272" y="381" on="0"/>
        <pt x="317" y="371" on="1"/>
        <pt x="363" y="360" on="0"/>
        <pt x="438" y="336" on="0"/>
        <pt x="492" y="300" on="0"/>
        <pt x="521" y="249" on="0"/>
        <pt x="521" y="212" on="1"/>
        <pt x="521" y="160" on="0"/>
        <pt x="480" y="79" on="0"/>
        <pt x="405" y="24" on="0"/>
        <pt x="302" y="-5" on="0"/>
      </contour>
    </TTGlyph>
    <TTGlyph name="Scaron" xMin="-3" yMin="-5" xMax="575" yMax="938">
      <contour>
        <pt x="327" y="924" on="1"/>
        <pt x="352" y="938" on="1"/>
        <pt x="420" y="875" on="1"/>
        <pt x="514" y="938" on="1"/>
        <pt x="533" y="924" on="1"/>
        <pt x="426" y="846" on="1"/>
        <pt x="400" y="846" on="1"/>
      </contour>
      <contour>
        <pt x="239" y="-5" on="1"/>
        <pt x="81" y="-5" on="0"/>
        <pt x="-3" y="103" on="1"/>
        <pt x="22" y="128" on="1"/>
        <pt x="95" y="25" on="0"/>
        <pt x="247" y="25" on="1"/>
        <pt x="355" y="25" on="0"/>
        <pt x="484" y="116" on="0"/>
        <pt x="484" y="203" on="1"/>
        <pt x="484" y="232" on="0"/>
        <pt x="460" y="274" on="0"/>
        <pt x="414" y="306" on="0"/>
        <pt x="343" y="329" on="0"/>
        <pt x="297" y="340" on="1"/>
        <pt x="251" y="350" on="0"/>
        <pt x="179" y="373" on="0"/>
        <pt x="130" y="406" on="0"/>
        <pt x="104" y="453" on="0"/>
        <pt x="104" y="486" on="1"/>
        <pt x="104" y="540" on="0"/>
        <pt x="146" y="625" on="0"/>
        <pt x="222" y="684" on="0"/>
        <pt x="325" y="715" on="0"/>
        <pt x="387" y="715" on="1"/>
        <pt x="453" y="715" on="0"/>
        <pt x="544" y="675" on="0"/>
        <pt x="575" y="631" on="1"/>
        <pt x="551" y="605" on="1"/>
        <pt x="523" y="648" on="0"/>
        <pt x="442" y="683" on="0"/>
        <pt x="382" y="683" on="1"/>
        <pt x="318" y="683" on="0"/>
        <pt x="227" y="654" on="0"/>
        <pt x="168" y="604" on="0"/>
        <pt x="141" y="535" on="0"/>
        <pt x="141" y="496" on="1"/>
        <pt x="141" y="468" on="0"/>
        <pt x="163" y="430" on="0"/>
        <pt x="206" y="402" on="0"/>
        <pt x="272" y="381" on="0"/>
        <pt x="317" y="371" on="1"/>
        <pt x="363" y="360" on="0"/>
        <pt x="438" y="336" on="0"/>
        <pt x="492" y="300" on="0"/>
        <pt x="521" y="249" on="0"/>
        <pt x="521" y="212" on="1"/>
        <pt x="521" y="160" on="0"/>
        <pt x="480" y="79" on="0"/>
        <pt x="405" y="24" on="0"/>
        <pt x="302" y="-5" on="0"/>
      </contour>
    </TTGlyph>
    <TTGlyph name="Schwa" xMin="31" yMin="-9" xMax="678" yMax="715">
      <contour>
        <pt x="281" y="-9" on="1"/>
        <pt x="225" y="-9" on="0"/>
        <pt x="133" y="32" on="0"/>
        <pt x="67" y="106" on="0"/>
        <pt x="31" y="206" on="0"/>
        <pt x="31" y="266" on="1"/>
        <pt x="31" y="294" on="0"/>
        <pt x="39" y="345" on="0"/>
        <pt x="46" y="368" on="1"/>
        <pt x="635" y="368" on="1"/>
        <pt x="637" y="383" on="0"/>
        <pt x="639" y="411" on="0"/>
        <pt x="639" y="427" on="1"/>
        <pt x="639" y="482" on="0"/>
        <pt x="608" y="576" on="0"/>
        <pt x="551" y="643" on="0"/>
        <pt x="471" y="681" on="0"/>
        <pt x="422" y="681" on="1"/>
        <pt x="385" y="681" on="0"/>
        <pt x="310" y="659" on="0"/>
        <pt x="241" y="620" on="0"/>
        <pt x="182" y="565" on="0"/>
        <pt x="162" y="531" on="1"/>
        <pt x="132" y="546" on="1"/>
        <pt x="154" y="582" on="0"/>
        <pt x="221" y="644" on="0"/>
        <pt x="301" y="689" on="0"/>
        <pt x="388" y="715" on="0"/>
        <pt x="430" y="715" on="1"/>
        <pt x="486" y="715" on="0"/>
        <pt x="578" y="669" on="0"/>
        <pt x="643" y="589" on="0"/>
        <pt x="678" y="481" on="0"/>
        <pt x="678" y="420" on="1"/>
        <pt x="678" y="333" on="0"/>
        <pt x="610" y="177" on="0"/>
        <pt x="499" y="60" on="0"/>
        <pt x="356" y="-9" on="0"/>
      </contour>
      <contour>
        <pt x="285" y="25" on="1"/>
        <pt x="344" y="25" on="0"/>
        <pt x="455" y="73" on="0"/>
        <pt x="548" y="156" on="0"/>
        <pt x="614" y="269" on="0"/>
        <pt x="628" y="335" on="1"/>
        <pt x="75" y="335" on="1"/>
        <pt x="71" y="318" on="0"/>
        <pt x="67" y="283" on="0"/>
        <pt x="67" y="265" on="1"/>
        <pt x="67" y="219" on="0"/>
        <pt x="93" y="133" on="0"/>
        <pt x="147" y="66" on="0"/>
        <pt x="229" y="25" on="0"/>
      </contour>
    </TTGlyph>
    <TTGlyph name="Scircumflex" xMin="-3" yMin="-5" xMax="575" yMax="938">
      <contour>
        <pt x="318" y="861" on="1"/>
        <pt x="424" y="938" on="1"/>
        <pt x="450" y="938" on="1"/>
        <pt x="524" y="861" on="1"/>
        <pt x="499" y="846" on="1"/>
        <pt x="431" y="909" on="1"/>
        <pt x="337" y="846" on="1"/>
      </contour>
      <contour>
        <pt x="239" y="-5" on="1"/>
        <pt x="81" y="-5" on="0"/>
        <pt x="-3" y="103" on="1"/>
        <pt x="22" y="128" on="1"/>
        <pt x="95" y="25" on="0"/>
        <pt x="247" y="25" on="1"/>
        <pt x="355" y="25" on="0"/>
        <pt x="484" y="116" on="0"/>
        <pt x="484" y="203" on="1"/>
        <pt x="484" y="232" on="0"/>
        <pt x="460" y="274" on="0"/>
        <pt x="414" y="306" on="0"/>
        <pt x="343" y="329" on="0"/>
        <pt x="297" y="340" on="1"/>
        <pt x="251" y="350" on="0"/>
        <pt x="179" y="373" on="0"/>
        <pt x="130" y="406" on="0"/>
        <pt x="104" y="453" on="0"/>
        <pt x="104" y="486" on="1"/>
        <pt x="104" y="540" on="0"/>
        <pt x="146" y="625" on="0"/>
        <pt x="222" y="684" on="0"/>
        <pt x="325" y="715" on="0"/>
        <pt x="387" y="715" on="1"/>
        <pt x="453" y="715" on="0"/>
        <pt x="544" y="675" on="0"/>
        <pt x="575" y="631" on="1"/>
        <pt x="551" y="605" on="1"/>
        <pt x="523" y="648" on="0"/>
        <pt x="442" y="683" on="0"/>
        <pt x="382" y="683" on="1"/>
        <pt x="318" y="683" on="0"/>
        <pt x="227" y="654" on="0"/>
        <pt x="168" y="604" on="0"/>
        <pt x="141" y="535" on="0"/>
        <pt x="141" y="496" on="1"/>
        <pt x="141" y="468" on="0"/>
        <pt x="163" y="430" on="0"/>
        <pt x="206" y="402" on="0"/>
        <pt x="272" y="381" on="0"/>
        <pt x="317" y="371" on="1"/>
        <pt x="363" y="360" on="0"/>
        <pt x="438" y="336" on="0"/>
        <pt x="492" y="300" on="0"/>
        <pt x="521" y="249" on="0"/>
        <pt x="521" y="212" on="1"/>
        <pt x="521" y="160" on="0"/>
        <pt x="480" y="79" on="0"/>
        <pt x="405" y="24" on="0"/>
        <pt x="302" y="-5" on="0"/>
      </contour>
    </TTGlyph>
    <TTGlyph name="Sdotbelow" xMin="-3" yMin="-138" xMax="575" yMax="715">
      <contour>
        <pt x="239" y="-5" on="1"/>
        <pt x="81" y="-5" on="0"/>
        <pt x="-3" y="103" on="1"/>
        <pt x="22" y="128" on="1"/>
        <pt x="95" y="25" on="0"/>
        <pt x="247" y="25" on="1"/>
        <pt x="355" y="25" on="0"/>
        <pt x="484" y="116" on="0"/>
        <pt x="484" y="203" on="1"/>
        <pt x="484" y="232" on="0"/>
        <pt x="460" y="274" on="0"/>
        <pt x="414" y="306" on="0"/>
        <pt x="343" y="329" on="0"/>
        <pt x="297" y="340" on="1"/>
        <pt x="251" y="350" on="0"/>
        <pt x="179" y="373" on="0"/>
        <pt x="130" y="406" on="0"/>
        <pt x="104" y="453" on="0"/>
        <pt x="104" y="486" on="1"/>
        <pt x="104" y="540" on="0"/>
        <pt x="146" y="625" on="0"/>
        <pt x="222" y="684" on="0"/>
        <pt x="325" y="715" on="0"/>
        <pt x="387" y="715" on="1"/>
        <pt x="453" y="715" on="0"/>
        <pt x="544" y="675" on="0"/>
        <pt x="575" y="631" on="1"/>
        <pt x="551" y="605" on="1"/>
        <pt x="523" y="648" on="0"/>
        <pt x="442" y="683" on="0"/>
        <pt x="382" y="683" on="1"/>
        <pt x="318" y="683" on="0"/>
        <pt x="227" y="654" on="0"/>
        <pt x="168" y="604" on="0"/>
        <pt x="141" y="535" on="0"/>
        <pt x="141" y="496" on="1"/>
        <pt x="141" y="468" on="0"/>
        <pt x="163" y="430" on="0"/>
        <pt x="206" y="402" on="0"/>
        <pt x="272" y="381" on="0"/>
        <pt x="317" y="371" on="1"/>
        <pt x="363" y="360" on="0"/>
        <pt x="438" y="336" on="0"/>
        <pt x="492" y="300" on="0"/>
        <pt x="521" y="249" on="0"/>
        <pt x="521" y="212" on="1"/>
        <pt x="521" y="160" on="0"/>
        <pt x="480" y="79" on="0"/>
        <pt x="405" y="24" on="0"/>
        <pt x="302" y="-5" on="0"/>
      </contour>
      <contour>
        <pt x="194" y="-138" on="1"/>
        <pt x="211" y="-55" on="1"/>
        <pt x="243" y="-55" on="1"/>
        <pt x="226" y="-138" on="1"/>
      </contour>
    </TTGlyph>
    <TTGlyph name="T" xMin="96" yMin="0" xMax="641" yMax="710">
      <contour>
        <pt x="348" y="678" on="1"/>
        <pt x="96" y="678" on="1"/>
        <pt x="102" y="710" on="1"/>
        <pt x="641" y="710" on="1"/>
        <pt x="635" y="678" on="1"/>
        <pt x="382" y="678" on="1"/>
        <pt x="238" y="0" on="1"/>
        <pt x="204" y="0" on="1"/>
      </contour>
    </TTGlyph>
    <TTGlyph name="T.sc" xMin="69" yMin="0" xMax="523" yMax="542">
      <contour>
        <pt x="277" y="512" on="1"/>
        <pt x="69" y="512" on="1"/>
        <pt x="76" y="542" on="1"/>
        <pt x="523" y="542" on="1"/>
        <pt x="516" y="512" on="1"/>
        <pt x="310" y="512" on="1"/>
        <pt x="201" y="0" on="1"/>
        <pt x="168" y="0" on="1"/>
      </contour>
    </TTGlyph>
    <TTGlyph name="Tbar" xMin="85" yMin="0" xMax="663" yMax="710">
      <contour>
        <pt x="90" y="418" on="1"/>
        <pt x="314" y="418" on="1"/>
        <pt x="369" y="678" on="1"/>
        <pt x="116" y="678" on="1"/>
        <pt x="123" y="710" on="1"/>
        <pt x="663" y="710" on="1"/>
        <pt x="655" y="678" on="1"/>
        <pt x="403" y="678" on="1"/>
        <pt x="348" y="418" on="1"/>
        <pt x="571" y="418" on="1"/>
        <pt x="566" y="393" on="1"/>
        <pt x="342" y="393" on="1"/>
        <pt x="259" y="0" on="1"/>
        <pt x="225" y="0" on="1"/>
        <pt x="308" y="393" on="1"/>
        <pt x="85" y="393" on="1"/>
      </contour>
    </TTGlyph>
    <TTGlyph name="Tcaron" xMin="96" yMin="0" xMax="641" yMax="918">
      <contour>
        <pt x="304" y="904" on="1"/>
        <pt x="329" y="918" on="1"/>
        <pt x="397" y="855" on="1"/>
        <pt x="491" y="918" on="1"/>
        <pt x="510" y="904" on="1"/>
        <pt x="403" y="826" on="1"/>
        <pt x="377" y="826" on="1"/>
      </contour>
      <contour>
        <pt x="348" y="678" on="1"/>
        <pt x="96" y="678" on="1"/>
        <pt x="102" y="710" on="1"/>
        <pt x="641" y="710" on="1"/>
        <pt x="635" y="678" on="1"/>
        <pt x="382" y="678" on="1"/>
        <pt x="238" y="0" on="1"/>
        <pt x="204" y="0" on="1"/>
      </contour>
    </TTGlyph>
    <TTGlyph name="Tdotbelow" xMin="96" yMin="-138" xMax="641" yMax="710">
      <contour>
        <pt x="176" y="-138" on="1"/>
        <pt x="193" y="-55" on="1"/>
        <pt x="225" y="-55" on="1"/>
        <pt x="208" y="-138" on="1"/>
      </contour>
      <contour>
        <pt x="348" y="678" on="1"/>
        <pt x="96" y="678" on="1"/>
        <pt x="102" y="710" on="1"/>
        <pt x="641" y="710" on="1"/>
        <pt x="635" y="678" on="1"/>
        <pt x="382" y="678" on="1"/>
        <pt x="238" y="0" on="1"/>
        <pt x="204" y="0" on="1"/>
      </contour>
    </TTGlyph>
    <TTGlyph name="Thorn" xMin="30" yMin="0" xMax="559" yMax="710">
      <contour>
        <pt x="181" y="710" on="1"/>
        <pt x="216" y="710" on="1"/>
        <pt x="184" y="563" on="1"/>
        <pt x="408" y="563" on="1"/>
        <pt x="444" y="563" on="0"/>
        <pt x="500" y="533" on="0"/>
        <pt x="539" y="482" on="0"/>
        <pt x="559" y="417" on="0"/>
        <pt x="559" y="383" on="1"/>
        <pt x="559" y="336" on="0"/>
        <pt x="521" y="245" on="0"/>
        <pt x="456" y="172" on="0"/>
        <pt x="369" y="127" on="0"/>
        <pt x="321" y="127" on="1"/>
        <pt x="91" y="127" on="1"/>
        <pt x="65" y="0" on="1"/>
        <pt x="30" y="0" on="1"/>
      </contour>
      <contour>
        <pt x="327" y="159" on="1"/>
        <pt x="369" y="159" on="0"/>
        <pt x="441" y="199" on="0"/>
        <pt x="494" y="262" on="0"/>
        <pt x="525" y="341" on="0"/>
        <pt x="525" y="379" on="1"/>
        <pt x="525" y="409" on="0"/>
        <pt x="507" y="464" on="0"/>
        <pt x="474" y="506" on="0"/>
        <pt x="427" y="530" on="0"/>
        <pt x="399" y="530" on="1"/>
        <pt x="178" y="530" on="1"/>
        <pt x="99" y="159" on="1"/>
      </contour>
    </TTGlyph>
    <TTGlyph name="U" xMin="81" yMin="-5" xMax="727" yMax="710">
      <contour>
        <pt x="298" y="-5" on="1"/>
        <pt x="237" y="-5" on="0"/>
        <pt x="154" y="31" on="0"/>
        <pt x="103" y="94" on="0"/>
        <pt x="81" y="179" on="0"/>
        <pt x="81" y="227" on="1"/>
        <pt x="81" y="287" on="0"/>
        <pt x="95" y="354" on="1"/>
        <pt x="171" y="710" on="1"/>
        <pt x="205" y="710" on="1"/>
        <pt x="130" y="354" on="1"/>
        <pt x="123" y="323" on="0"/>
        <pt x="115" y="262" on="0"/>
        <pt x="115" y="233" on="1"/>
        <pt x="115" y="190" on="0"/>
        <pt x="134" y="115" on="0"/>
        <pt x="178" y="60" on="0"/>
        <pt x="251" y="28" on="0"/>
        <pt x="304" y="28" on="1"/>
        <pt x="376" y="28" on="0"/>
        <pt x="483" y="85" on="0"/>
        <pt x="558" y="177" on="0"/>
        <pt x="605" y="294" on="0"/>
        <pt x="618" y="354" on="1"/>
        <pt x="693" y="710" on="1"/>
        <pt x="727" y="710" on="1"/>
        <pt x="652" y="354" on="1"/>
        <pt x="637" y="283" on="0"/>
        <pt x="581" y="153" on="0"/>
        <pt x="494" y="54" on="0"/>
        <pt x="376" y="-5" on="0"/>
      </contour>
    </TTGlyph>
    <TTGlyph name="U.sc" xMin="64" yMin="-4" xMax="593" yMax="542">
      <contour>
        <pt x="247" y="-4" on="1"/>
        <pt x="196" y="-4" on="0"/>
        <pt x="126" y="25" on="0"/>
        <pt x="83" y="75" on="0"/>
        <pt x="64" y="142" on="0"/>
        <pt x="64" y="180" on="1"/>
        <pt x="64" y="202" on="0"/>
        <pt x="70" y="247" on="0"/>
        <pt x="75" y="270" on="1"/>
        <pt x="132" y="542" on="1"/>
        <pt x="165" y="542" on="1"/>
        <pt x="107" y="270" on="1"/>
        <pt x="98" y="228" on="0"/>
        <pt x="98" y="185" on="1"/>
        <pt x="98" y="152" on="0"/>
        <pt x="114" y="94" on="0"/>
        <pt x="150" y="52" on="0"/>
        <pt x="209" y="27" on="0"/>
        <pt x="253" y="27" on="1"/>
        <pt x="311" y="27" on="0"/>
        <pt x="397" y="69" on="0"/>
        <pt x="457" y="138" on="0"/>
        <pt x="494" y="225" on="0"/>
        <pt x="504" y="270" on="1"/>
        <pt x="562" y="542" on="1"/>
        <pt x="593" y="542" on="1"/>
        <pt x="536" y="270" on="1"/>
        <pt x="524" y="216" on="0"/>
        <pt x="479" y="116" on="0"/>
        <pt x="408" y="41" on="0"/>
        <pt x="311" y="-4" on="0"/>
      </contour>
    </TTGlyph>
    <TTGlyph name="Uacute" xMin="81" yMin="-5" xMax="727" yMax="918">
      <contour>
        <pt x="449" y="826" on="1"/>
        <pt x="428" y="839" on="1"/>
        <pt x="504" y="918" on="1"/>
        <pt x="548" y="918" on="1"/>
      </contour>
      <contour>
        <pt x="298" y="-5" on="1"/>
        <pt x="237" y="-5" on="0"/>
        <pt x="154" y="31" on="0"/>
        <pt x="103" y="94" on="0"/>
        <pt x="81" y="179" on="0"/>
        <pt x="81" y="227" on="1"/>
        <pt x="81" y="287" on="0"/>
        <pt x="95" y="354" on="1"/>
        <pt x="171" y="710" on="1"/>
        <pt x="205" y="710" on="1"/>
        <pt x="130" y="354" on="1"/>
        <pt x="123" y="323" on="0"/>
        <pt x="115" y="262" on="0"/>
        <pt x="115" y="233" on="1"/>
        <pt x="115" y="190" on="0"/>
        <pt x="134" y="115" on="0"/>
        <pt x="178" y="60" on="0"/>
        <pt x="251" y="28" on="0"/>
        <pt x="304" y="28" on="1"/>
        <pt x="376" y="28" on="0"/>
        <pt x="483" y="85" on="0"/>
        <pt x="558" y="177" on="0"/>
        <pt x="605" y="294" on="0"/>
        <pt x="618" y="354" on="1"/>
        <pt x="693" y="710" on="1"/>
        <pt x="727" y="710" on="1"/>
        <pt x="652" y="354" on="1"/>
        <pt x="637" y="283" on="0"/>
        <pt x="581" y="153" on="0"/>
        <pt x="494" y="54" on="0"/>
        <pt x="376" y="-5" on="0"/>
      </contour>
    </TTGlyph>
    <TTGlyph name="Ubreve" xMin="81" yMin="-5" xMax="727" yMax="918">
      <contour>
        <pt x="298" y="-5" on="1"/>
        <pt x="237" y="-5" on="0"/>
        <pt x="154" y="31" on="0"/>
        <pt x="103" y="94" on="0"/>
        <pt x="81" y="179" on="0"/>
        <pt x="81" y="227" on="1"/>
        <pt x="81" y="287" on="0"/>
        <pt x="95" y="354" on="1"/>
        <pt x="171" y="710" on="1"/>
        <pt x="205" y="710" on="1"/>
        <pt x="130" y="354" on="1"/>
        <pt x="123" y="323" on="0"/>
        <pt x="115" y="262" on="0"/>
        <pt x="115" y="233" on="1"/>
        <pt x="115" y="190" on="0"/>
        <pt x="134" y="115" on="0"/>
        <pt x="178" y="60" on="0"/>
        <pt x="251" y="28" on="0"/>
        <pt x="304" y="28" on="1"/>
        <pt x="376" y="28" on="0"/>
        <pt x="483" y="85" on="0"/>
        <pt x="558" y="177" on="0"/>
        <pt x="605" y="294" on="0"/>
        <pt x="618" y="354" on="1"/>
        <pt x="693" y="710" on="1"/>
        <pt x="727" y="710" on="1"/>
        <pt x="652" y="354" on="1"/>
        <pt x="637" y="283" on="0"/>
        <pt x="581" y="153" on="0"/>
        <pt x="494" y="54" on="0"/>
        <pt x="376" y="-5" on="0"/>
      </contour>
      <contour>
        <pt x="472" y="856" on="1"/>
        <pt x="492" y="856" on="0"/>
        <pt x="531" y="892" on="0"/>
        <pt x="539" y="918" on="1"/>
        <pt x="563" y="918" on="1"/>
        <pt x="559" y="901" on="0"/>
        <pt x="540" y="870" on="0"/>
        <pt x="514" y="847" on="0"/>
        <pt x="483" y="834" on="0"/>
        <pt x="468" y="834" on="1"/>
        <pt x="440" y="834" on="0"/>
        <pt x="405" y="872" on="0"/>
        <pt x="405" y="901" on="1"/>
        <pt x="405" y="906" on="0"/>
        <pt x="406" y="913" on="0"/>
        <pt x="407" y="918" on="1"/>
        <pt x="433" y="918" on="1"/>
        <pt x="431" y="910" on="0"/>
        <pt x="431" y="906" on="1"/>
        <pt x="431" y="886" on="0"/>
        <pt x="454" y="856" on="0"/>
      </contour>
    </TTGlyph>
    <TTGlyph name="Ucircumflex" xMin="81" yMin="-5" xMax="727" yMax="918">
      <contour>
        <pt x="374" y="841" on="1"/>
        <pt x="480" y="918" on="1"/>
        <pt x="506" y="918" on="1"/>
        <pt x="580" y="841" on="1"/>
        <pt x="555" y="826" on="1"/>
        <pt x="487" y="889" on="1"/>
        <pt x="393" y="826" on="1"/>
      </contour>
      <contour>
        <pt x="298" y="-5" on="1"/>
        <pt x="237" y="-5" on="0"/>
        <pt x="154" y="31" on="0"/>
        <pt x="103" y="94" on="0"/>
        <pt x="81" y="179" on="0"/>
        <pt x="81" y="227" on="1"/>
        <pt x="81" y="287" on="0"/>
        <pt x="95" y="354" on="1"/>
        <pt x="171" y="710" on="1"/>
        <pt x="205" y="710" on="1"/>
        <pt x="130" y="354" on="1"/>
        <pt x="123" y="323" on="0"/>
        <pt x="115" y="262" on="0"/>
        <pt x="115" y="233" on="1"/>
        <pt x="115" y="190" on="0"/>
        <pt x="134" y="115" on="0"/>
        <pt x="178" y="60" on="0"/>
        <pt x="251" y="28" on="0"/>
        <pt x="304" y="28" on="1"/>
        <pt x="376" y="28" on="0"/>
        <pt x="483" y="85" on="0"/>
        <pt x="558" y="177" on="0"/>
        <pt x="605" y="294" on="0"/>
        <pt x="618" y="354" on="1"/>
        <pt x="693" y="710" on="1"/>
        <pt x="727" y="710" on="1"/>
        <pt x="652" y="354" on="1"/>
        <pt x="637" y="283" on="0"/>
        <pt x="581" y="153" on="0"/>
        <pt x="494" y="54" on="0"/>
        <pt x="376" y="-5" on="0"/>
      </contour>
    </TTGlyph>
    <TTGlyph name="Udblgrave" xMin="81" yMin="-5" xMax="727" yMax="918">
      <contour>
        <pt x="477" y="918" on="1"/>
        <pt x="518" y="918" on="1"/>
        <pt x="561" y="839" on="1"/>
        <pt x="535" y="826" on="1"/>
      </contour>
      <contour>
        <pt x="374" y="918" on="1"/>
        <pt x="415" y="918" on="1"/>
        <pt x="457" y="839" on="1"/>
        <pt x="433" y="826" on="1"/>
      </contour>
      <contour>
        <pt x="298" y="-5" on="1"/>
        <pt x="237" y="-5" on="0"/>
        <pt x="154" y="31" on="0"/>
        <pt x="103" y="94" on="0"/>
        <pt x="81" y="179" on="0"/>
        <pt x="81" y="227" on="1"/>
        <pt x="81" y="287" on="0"/>
        <pt x="95" y="354" on="1"/>
        <pt x="171" y="710" on="1"/>
        <pt x="205" y="710" on="1"/>
        <pt x="130" y="354" on="1"/>
        <pt x="123" y="323" on="0"/>
        <pt x="115" y="262" on="0"/>
        <pt x="115" y="233" on="1"/>
        <pt x="115" y="190" on="0"/>
        <pt x="134" y="115" on="0"/>
        <pt x="178" y="60" on="0"/>
        <pt x="251" y="28" on="0"/>
        <pt x="304" y="28" on="1"/>
        <pt x="376" y="28" on="0"/>
        <pt x="483" y="85" on="0"/>
        <pt x="558" y="177" on="0"/>
        <pt x="605" y="294" on="0"/>
        <pt x="618" y="354" on="1"/>
        <pt x="693" y="710" on="1"/>
        <pt x="727" y="710" on="1"/>
        <pt x="652" y="354" on="1"/>
        <pt x="637" y="283" on="0"/>
        <pt x="581" y="153" on="0"/>
        <pt x="494" y="54" on="0"/>
        <pt x="376" y="-5" on="0"/>
      </contour>
    </TTGlyph>
    <TTGlyph name="Udieresis" xMin="81" yMin="-5" xMax="727" yMax="917">
      <contour>
        <pt x="397" y="835" on="1"/>
        <pt x="414" y="917" on="1"/>
        <pt x="445" y="917" on="1"/>
        <pt x="428" y="835" on="1"/>
      </contour>
      <contour>
        <pt x="517" y="835" on="1"/>
        <pt x="534" y="917" on="1"/>
        <pt x="565" y="917" on="1"/>
        <pt x="548" y="835" on="1"/>
      </contour>
      <contour>
        <pt x="298" y="-5" on="1"/>
        <pt x="237" y="-5" on="0"/>
        <pt x="154" y="31" on="0"/>
        <pt x="103" y="94" on="0"/>
        <pt x="81" y="179" on="0"/>
        <pt x="81" y="227" on="1"/>
        <pt x="81" y="287" on="0"/>
        <pt x="95" y="354" on="1"/>
        <pt x="171" y="710" on="1"/>
        <pt x="205" y="710" on="1"/>
        <pt x="130" y="354" on="1"/>
        <pt x="123" y="323" on="0"/>
        <pt x="115" y="262" on="0"/>
        <pt x="115" y="233" on="1"/>
        <pt x="115" y="190" on="0"/>
        <pt x="134" y="115" on="0"/>
        <pt x="178" y="60" on="0"/>
        <pt x="251" y="28" on="0"/>
        <pt x="304" y="28" on="1"/>
        <pt x="376" y="28" on="0"/>
        <pt x="483" y="85" on="0"/>
        <pt x="558" y="177" on="0"/>
        <pt x="605" y="294" on="0"/>
        <pt x="618" y="354" on="1"/>
        <pt x="693" y="710" on="1"/>
        <pt x="727" y="710" on="1"/>
        <pt x="652" y="354" on="1"/>
        <pt x="637" y="283" on="0"/>
        <pt x="581" y="153" on="0"/>
        <pt x="494" y="54" on="0"/>
        <pt x="376" y="-5" on="0"/>
      </contour>
    </TTGlyph>
    <TTGlyph name="Udotbelow" xMin="81" yMin="-138" xMax="727" yMax="710">
      <contour>
        <pt x="298" y="-5" on="1"/>
        <pt x="237" y="-5" on="0"/>
        <pt x="154" y="31" on="0"/>
        <pt x="103" y="94" on="0"/>
        <pt x="81" y="179" on="0"/>
        <pt x="81" y="227" on="1"/>
        <pt x="81" y="287" on="0"/>
        <pt x="95" y="354" on="1"/>
        <pt x="171" y="710" on="1"/>
        <pt x="205" y="710" on="1"/>
        <pt x="130" y="354" on="1"/>
        <pt x="123" y="323" on="0"/>
        <pt x="115" y="262" on="0"/>
        <pt x="115" y="233" on="1"/>
        <pt x="115" y="190" on="0"/>
        <pt x="134" y="115" on="0"/>
        <pt x="178" y="60" on="0"/>
        <pt x="251" y="28" on="0"/>
        <pt x="304" y="28" on="1"/>
        <pt x="376" y="28" on="0"/>
        <pt x="483" y="85" on="0"/>
        <pt x="558" y="177" on="0"/>
        <pt x="605" y="294" on="0"/>
        <pt x="618" y="354" on="1"/>
        <pt x="693" y="710" on="1"/>
        <pt x="727" y="710" on="1"/>
        <pt x="652" y="354" on="1"/>
        <pt x="637" y="283" on="0"/>
        <pt x="581" y="153" on="0"/>
        <pt x="494" y="54" on="0"/>
        <pt x="376" y="-5" on="0"/>
      </contour>
      <contour>
        <pt x="253" y="-138" on="1"/>
        <pt x="270" y="-55" on="1"/>
        <pt x="302" y="-55" on="1"/>
        <pt x="285" y="-138" on="1"/>
      </contour>
    </TTGlyph>
    <TTGlyph name="Ugrave" xMin="81" yMin="-5" xMax="727" yMax="918">
      <contour>
        <pt x="298" y="-5" on="1"/>
        <pt x="237" y="-5" on="0"/>
        <pt x="154" y="31" on="0"/>
        <pt x="103" y="94" on="0"/>
        <pt x="81" y="179" on="0"/>
        <pt x="81" y="227" on="1"/>
        <pt x="81" y="287" on="0"/>
        <pt x="95" y="354" on="1"/>
        <pt x="171" y="710" on="1"/>
        <pt x="205" y="710" on="1"/>
        <pt x="130" y="354" on="1"/>
        <pt x="123" y="323" on="0"/>
        <pt x="115" y="262" on="0"/>
        <pt x="115" y="233" on="1"/>
        <pt x="115" y="190" on="0"/>
        <pt x="134" y="115" on="0"/>
        <pt x="178" y="60" on="0"/>
        <pt x="251" y="28" on="0"/>
        <pt x="304" y="28" on="1"/>
        <pt x="376" y="28" on="0"/>
        <pt x="483" y="85" on="0"/>
        <pt x="558" y="177" on="0"/>
        <pt x="605" y="294" on="0"/>
        <pt x="618" y="354" on="1"/>
        <pt x="693" y="710" on="1"/>
        <pt x="727" y="710" on="1"/>
        <pt x="652" y="354" on="1"/>
        <pt x="637" y="283" on="0"/>
        <pt x="581" y="153" on="0"/>
        <pt x="494" y="54" on="0"/>
        <pt x="376" y="-5" on="0"/>
      </contour>
      <contour>
        <pt x="421" y="918" on="1"/>
        <pt x="465" y="918" on="1"/>
        <pt x="508" y="839" on="1"/>
        <pt x="481" y="826" on="1"/>
      </contour>
    </TTGlyph>
    <TTGlyph name="Uhungarumlaut" xMin="81" yMin="-5" xMax="727" yMax="918">
      <contour>
        <pt x="298" y="-5" on="1"/>
        <pt x="237" y="-5" on="0"/>
        <pt x="154" y="31" on="0"/>
        <pt x="103" y="94" on="0"/>
        <pt x="81" y="179" on="0"/>
        <pt x="81" y="227" on="1"/>
        <pt x="81" y="287" on="0"/>
        <pt x="95" y="354" on="1"/>
        <pt x="171" y="710" on="1"/>
        <pt x="205" y="710" on="1"/>
        <pt x="130" y="354" on="1"/>
        <pt x="123" y="323" on="0"/>
        <pt x="115" y="262" on="0"/>
        <pt x="115" y="233" on="1"/>
        <pt x="115" y="190" on="0"/>
        <pt x="134" y="115" on="0"/>
        <pt x="178" y="60" on="0"/>
        <pt x="251" y="28" on="0"/>
        <pt x="304" y="28" on="1"/>
        <pt x="376" y="28" on="0"/>
        <pt x="483" y="85" on="0"/>
        <pt x="558" y="177" on="0"/>
        <pt x="605" y="294" on="0"/>
        <pt x="618" y="354" on="1"/>
        <pt x="693" y="710" on="1"/>
        <pt x="727" y="710" on="1"/>
        <pt x="652" y="354" on="1"/>
        <pt x="637" y="283" on="0"/>
        <pt x="581" y="153" on="0"/>
        <pt x="494" y="54" on="0"/>
        <pt x="376" y="-5" on="0"/>
      </contour>
      <contour>
        <pt x="397" y="826" on="1"/>
        <pt x="379" y="839" on="1"/>
        <pt x="454" y="918" on="1"/>
        <pt x="495" y="918" on="1"/>
      </contour>
      <contour>
        <pt x="501" y="826" on="1"/>
        <pt x="482" y="839" on="1"/>
        <pt x="557" y="918" on="1"/>
        <pt x="599" y="918" on="1"/>
      </contour>
    </TTGlyph>
    <TTGlyph name="Uinvertedbreve" xMin="81" yMin="-5" xMax="727" yMax="918">
      <contour>
        <pt x="399" y="834" on="1"/>
        <pt x="402" y="850" on="0"/>
        <pt x="420" y="881" on="0"/>
        <pt x="445" y="904" on="0"/>
        <pt x="476" y="918" on="0"/>
        <pt x="494" y="918" on="1"/>
        <pt x="525" y="918" on="0"/>
        <pt x="556" y="877" on="0"/>
        <pt x="556" y="851" on="1"/>
        <pt x="556" y="846" on="0"/>
        <pt x="556" y="839" on="0"/>
        <pt x="555" y="834" on="1"/>
        <pt x="530" y="834" on="1"/>
        <pt x="532" y="844" on="0"/>
        <pt x="532" y="849" on="1"/>
        <pt x="532" y="896" on="0"/>
        <pt x="491" y="896" on="1"/>
        <pt x="465" y="896" on="0"/>
        <pt x="429" y="858" on="0"/>
        <pt x="424" y="834" on="1"/>
      </contour>
      <contour>
        <pt x="298" y="-5" on="1"/>
        <pt x="237" y="-5" on="0"/>
        <pt x="154" y="31" on="0"/>
        <pt x="103" y="94" on="0"/>
        <pt x="81" y="179" on="0"/>
        <pt x="81" y="227" on="1"/>
        <pt x="81" y="287" on="0"/>
        <pt x="95" y="354" on="1"/>
        <pt x="171" y="710" on="1"/>
        <pt x="205" y="710" on="1"/>
        <pt x="130" y="354" on="1"/>
        <pt x="123" y="323" on="0"/>
        <pt x="115" y="262" on="0"/>
        <pt x="115" y="233" on="1"/>
        <pt x="115" y="190" on="0"/>
        <pt x="134" y="115" on="0"/>
        <pt x="178" y="60" on="0"/>
        <pt x="251" y="28" on="0"/>
        <pt x="304" y="28" on="1"/>
        <pt x="376" y="28" on="0"/>
        <pt x="483" y="85" on="0"/>
        <pt x="558" y="177" on="0"/>
        <pt x="605" y="294" on="0"/>
        <pt x="618" y="354" on="1"/>
        <pt x="693" y="710" on="1"/>
        <pt x="727" y="710" on="1"/>
        <pt x="652" y="354" on="1"/>
        <pt x="637" y="283" on="0"/>
        <pt x="581" y="153" on="0"/>
        <pt x="494" y="54" on="0"/>
        <pt x="376" y="-5" on="0"/>
      </contour>
    </TTGlyph>
    <TTGlyph name="Umacron" xMin="81" yMin="-5" xMax="727" yMax="895">
      <contour>
        <pt x="298" y="-5" on="1"/>
        <pt x="237" y="-5" on="0"/>
        <pt x="154" y="31" on="0"/>
        <pt x="103" y="94" on="0"/>
        <pt x="81" y="179" on="0"/>
        <pt x="81" y="227" on="1"/>
        <pt x="81" y="287" on="0"/>
        <pt x="95" y="354" on="1"/>
        <pt x="171" y="710" on="1"/>
        <pt x="205" y="710" on="1"/>
        <pt x="130" y="354" on="1"/>
        <pt x="123" y="323" on="0"/>
        <pt x="115" y="262" on="0"/>
        <pt x="115" y="233" on="1"/>
        <pt x="115" y="190" on="0"/>
        <pt x="134" y="115" on="0"/>
        <pt x="178" y="60" on="0"/>
        <pt x="251" y="28" on="0"/>
        <pt x="304" y="28" on="1"/>
        <pt x="376" y="28" on="0"/>
        <pt x="483" y="85" on="0"/>
        <pt x="558" y="177" on="0"/>
        <pt x="605" y="294" on="0"/>
        <pt x="618" y="354" on="1"/>
        <pt x="693" y="710" on="1"/>
        <pt x="727" y="710" on="1"/>
        <pt x="652" y="354" on="1"/>
        <pt x="637" y="283" on="0"/>
        <pt x="581" y="153" on="0"/>
        <pt x="494" y="54" on="0"/>
        <pt x="376" y="-5" on="0"/>
      </contour>
      <contour>
        <pt x="344" y="867" on="1"/>
        <pt x="349" y="895" on="1"/>
        <pt x="618" y="895" on="1"/>
        <pt x="612" y="867" on="1"/>
      </contour>
    </TTGlyph>
    <TTGlyph name="Uogonek" xMin="81" yMin="-167" xMax="727" yMax="710">
      <contour>
        <pt x="232" y="-167" on="1"/>
        <pt x="210" y="-161" on="0"/>
        <pt x="188" y="-133" on="0"/>
        <pt x="188" y="-114" on="1"/>
        <pt x="188" y="-87" on="0"/>
        <pt x="228" y="-37" on="0"/>
        <pt x="277" y="-4" on="1"/>
        <pt x="222" y="-1" on="0"/>
        <pt x="147" y="37" on="0"/>
        <pt x="101" y="99" on="0"/>
        <pt x="81" y="181" on="0"/>
        <pt x="81" y="227" on="1"/>
        <pt x="81" y="287" on="0"/>
        <pt x="95" y="354" on="1"/>
        <pt x="171" y="710" on="1"/>
        <pt x="205" y="710" on="1"/>
        <pt x="130" y="354" on="1"/>
        <pt x="123" y="323" on="0"/>
        <pt x="115" y="262" on="0"/>
        <pt x="115" y="233" on="1"/>
        <pt x="115" y="190" on="0"/>
        <pt x="134" y="115" on="0"/>
        <pt x="178" y="60" on="0"/>
        <pt x="251" y="28" on="0"/>
        <pt x="304" y="28" on="1"/>
        <pt x="376" y="28" on="0"/>
        <pt x="483" y="85" on="0"/>
        <pt x="558" y="177" on="0"/>
        <pt x="605" y="294" on="0"/>
        <pt x="618" y="354" on="1"/>
        <pt x="693" y="710" on="1"/>
        <pt x="727" y="710" on="1"/>
        <pt x="652" y="354" on="1"/>
        <pt x="637" y="285" on="0"/>
        <pt x="583" y="157" on="0"/>
        <pt x="499" y="59" on="0"/>
        <pt x="385" y="-2" on="0"/>
        <pt x="311" y="-4" on="1"/>
        <pt x="283" y="-21" on="0"/>
        <pt x="246" y="-48" on="0"/>
        <pt x="224" y="-72" on="0"/>
        <pt x="215" y="-95" on="0"/>
        <pt x="215" y="-107" on="1"/>
        <pt x="215" y="-137" on="0"/>
        <pt x="251" y="-144" on="1"/>
        <pt x="232" y="-167" on="1"/>
      </contour>
    </TTGlyph>
    <TTGlyph name="Uring" xMin="81" yMin="-5" xMax="727" yMax="918">
      <contour>
        <pt x="418" y="847" on="1"/>
        <pt x="418" y="877" on="0"/>
        <pt x="463" y="918" on="0"/>
        <pt x="492" y="918" on="1"/>
        <pt x="514" y="918" on="0"/>
        <pt x="539" y="891" on="0"/>
        <pt x="539" y="870" on="1"/>
        <pt x="539" y="841" on="0"/>
        <pt x="495" y="799" on="0"/>
        <pt x="466" y="799" on="1"/>
        <pt x="444" y="799" on="0"/>
        <pt x="418" y="826" on="0"/>
      </contour>
      <contour>
        <pt x="487" y="899" on="1"/>
        <pt x="469" y="899" on="0"/>
        <pt x="439" y="872" on="0"/>
        <pt x="439" y="851" on="1"/>
        <pt x="439" y="837" on="0"/>
        <pt x="456" y="818" on="0"/>
        <pt x="470" y="818" on="1"/>
        <pt x="487" y="818" on="0"/>
        <pt x="519" y="846" on="0"/>
        <pt x="519" y="866" on="1"/>
        <pt x="519" y="881" on="0"/>
        <pt x="501" y="899" on="0"/>
      </contour>
      <contour>
        <pt x="298" y="-5" on="1"/>
        <pt x="237" y="-5" on="0"/>
        <pt x="154" y="31" on="0"/>
        <pt x="103" y="94" on="0"/>
        <pt x="81" y="179" on="0"/>
        <pt x="81" y="227" on="1"/>
        <pt x="81" y="287" on="0"/>
        <pt x="95" y="354" on="1"/>
        <pt x="171" y="710" on="1"/>
        <pt x="205" y="710" on="1"/>
        <pt x="130" y="354" on="1"/>
        <pt x="123" y="323" on="0"/>
        <pt x="115" y="262" on="0"/>
        <pt x="115" y="233" on="1"/>
        <pt x="115" y="190" on="0"/>
        <pt x="134" y="115" on="0"/>
        <pt x="178" y="60" on="0"/>
        <pt x="251" y="28" on="0"/>
        <pt x="304" y="28" on="1"/>
        <pt x="376" y="28" on="0"/>
        <pt x="483" y="85" on="0"/>
        <pt x="558" y="177" on="0"/>
        <pt x="605" y="294" on="0"/>
        <pt x="618" y="354" on="1"/>
        <pt x="693" y="710" on="1"/>
        <pt x="727" y="710" on="1"/>
        <pt x="652" y="354" on="1"/>
        <pt x="637" y="283" on="0"/>
        <pt x="581" y="153" on="0"/>
        <pt x="494" y="54" on="0"/>
        <pt x="376" y="-5" on="0"/>
      </contour>
    </TTGlyph>
</ttFont>
